<?xml version="1.0" encoding="utf-8"?>
<!-- Generator: Adobe Illustrator 25.2.1, SVG Export Plug-In . SVG Version: 6.00 Build 0)  -->
<svg version="1.1" id="Layer_1" xmlns="http://www.w3.org/2000/svg" xmlns:xlink="http://www.w3.org/1999/xlink" x="0px" y="0px"
	 viewBox="0 0 500 500" style="enable-background:new 0 0 500 500;" xml:space="preserve">
<style type="text/css">
	.st0{fill:#EBDCD5;}
	.st1{fill:#7A5648;}
</style>
<path class="st0" d="M244.2,481.1L50.9,385.7c-24.8-12.2-38.9-39.1-35-66.5l31-213.3c4-27.4,25.1-49.1,52.4-53.8l212.5-36.5
	c27.3-4.7,54.5,8.7,67.4,33.2l100.3,190.8c12.9,24.5,8.5,54.5-10.8,74.3L318.2,468.4C298.9,488.2,269,493.3,244.2,481.1z"/>
<path class="st1" d="M233,349.9c108.1-12,167.9-82.7,111.3-231c-44.4,31.1-105.1,51.3-135.5,92.9c19.9,17.5,36.4,36.9,41,62.2
	c27.5-33.5,57.6-64.1,73.5-98c-16.2,81.5-41.7,112.3-80.9,153.9C239.5,336.8,236.4,343.5,233,349.9L233,349.9z M201.9,358.2
	c-83.8-20.4-123.8-80.7-62.3-187.7c49.6,47.8,137.2,78.2,80,179c-1.1,2.1-2.4,4.2-3.8,6.1c-10.3-49.9-51.3-89.3-63.4-131.2
	c2.8,68.4,22.5,88.4,53.1,134C204.3,358.4,203.1,358.3,201.9,358.2L201.9,358.2z"/>
</svg>
