<?xml version="1.0" encoding="utf-8"?>
<!-- Generator: Adobe Illustrator 25.2.1, SVG Export Plug-In . SVG Version: 6.00 Build 0)  -->
<svg version="1.1" id="Layer_1" xmlns="http://www.w3.org/2000/svg" xmlns:xlink="http://www.w3.org/1999/xlink" x="0px" y="0px"
	 viewBox="0 0 500 500" style="enable-background:new 0 0 500 500;" xml:space="preserve">
<style type="text/css">
	.st0{fill:#FBC5B7;}
	.st1{fill-rule:evenodd;clip-rule:evenodd;fill:#7C4E47;}
</style>
<path class="st0" d="M244.2,481.1L50.9,385.7c-24.8-12.2-38.9-39.1-35-66.5l31-213.3c4-27.4,25.1-49.1,52.4-53.8l212.5-36.5
	c27.3-4.7,54.5,8.7,67.4,33.2l100.3,190.8c12.9,24.5,8.5,54.5-10.8,74.3L318.2,468.4C298.9,488.2,269,493.3,244.2,481.1z"/>
<path class="st1" d="M241,88.7c5.4-0.2,9.7,1.7,14,4.4c5.5,3.5,11.7,10.3,19.3,14.7c10.7,6.1,30.6-2.3,40.7,12.8
	c1.9,2.8,3.2,5.5,4.2,8L289,150.9c-11.5-13.6-28.8-22.3-48-22.3c-34.7,0-62.9,28.1-62.9,62.9c0,12.5,3.6,24.1,9.9,33.9L161,245.5
	c-1.5-7.9,0.5-14.4-2.9-22.3c-2.1-4.9-11.4-9.3-15.7-17.1c-6.4-11.4-3.8-22.4,8.6-38.9c7.5-10,8.8-16.7,9.3-24.1
	c0.4-6.8,0.7-13.7,6.7-22.5c10.2-15.1,30-6.7,40.7-12.8c7.6-4.4,13.8-11.2,19.3-14.7C231.3,90.4,235.6,88.5,241,88.7L241,88.7z
	 M242.7,158.3l9.2,21.5l23.3,2.1c1.7,0.1,2.3,2.2,1.1,3.3l-17.7,15.4l5.2,22.9c0.4,1.7-1.5,2.9-2.9,2l-20.1-12l-20.1,12
	c-1.4,0.9-3.1-0.4-2.8-2l5.2-22.9l-17.7-15.4c-1.3-1.1-0.5-3.2,1.1-3.3l23.3-2.1l9.2-21.6C239.9,156.7,242.1,156.8,242.7,158.3z"/>
<path class="st1" d="M319.2,128.6c1.8,4.8,2.2,9.5,2.5,14.6c0.5,7.4,1.8,14.1,9.3,24.1c12.5,16.5,15.1,27.5,8.7,38.9
	c-4.4,7.8-13.6,12.1-15.7,17.1c-4.5,10.5,0.5,18.4-5.7,30.7c-4.3,8.5-11,14.1-19.8,17c-7.5,2.4-15-1.1-21,1.4
	c-10.5,4.4-18.3,14.7-26.7,17.3c-3.2,1-6.5,1.5-9.7,1.5c-3.2,0-6.4-0.5-9.7-1.5c-8.4-2.6-16.1-12.9-26.7-17.3c-6-2.5-13.5,1-21-1.4
	c-8.9-2.9-15.5-8.5-19.8-17c-1.4-2.8-2.4-5.6-2.9-8.6l27.1-20c11.2,17.4,30.7,29,53,29c34.7,0,62.9-28.1,62.9-62.9
	c0-15.5-5.6-29.6-14.9-40.6L319.2,128.6L319.2,128.6z"/>
<path class="st1" d="M134,371.5l28.9-5.2l14.3,25.7c10.4,12.9,17-8.3,19.9-15.7l27.9-52.6c-6.4-2.2-14.2-8.7-22.1-15.9
	c-15.9,0.3-30.7-2.4-41.6-16.3l-32,61.9l-2.8,5.9C124.3,367.1,125.4,372.2,134,371.5z M348,371.5l-28.9-5.2l-14.3,25.7
	c-10.4,12.9-17-8.3-19.9-15.7L257,323.7c6.4-2.2,14.2-8.7,22.1-15.9c15.9,0.3,30.7-2.4,41.6-16.3l32,61.9l2.8,5.9
	C357.7,367.1,356.6,372.2,348,371.5L348,371.5z"/>
</svg>
