<?xml version="1.0" encoding="utf-8"?>
<!-- Generator: Adobe Illustrator 25.2.1, SVG Export Plug-In . SVG Version: 6.00 Build 0)  -->
<svg version="1.1" id="Layer_1" xmlns="http://www.w3.org/2000/svg" xmlns:xlink="http://www.w3.org/1999/xlink" x="0px" y="0px"
	 viewBox="0 0 500 500" style="enable-background:new 0 0 500 500;" xml:space="preserve">
<style type="text/css">
	.st0{fill:#F4E2BB;}
	.st1{fill:#6D5932;}
	.st2{fill-rule:evenodd;clip-rule:evenodd;fill:#6D5932;}
</style>
<path class="st0" d="M244.2,481.1L50.9,385.7c-24.8-12.2-38.9-39.1-35-66.5l31-213.3c4-27.4,25.1-49.1,52.4-53.8l212.5-36.5
	c27.3-4.7,54.5,8.7,67.4,33.2l100.3,190.8c12.9,24.5,8.5,54.5-10.8,74.3L318.2,468.4C298.9,488.2,269,493.3,244.2,481.1z"/>
<path class="st1" d="M156.1,163.4v-31.2c-2.2,1.6-4.1,2.8-5.7,3.8c-2.4,1.4-4.3,2-5.6,2c-0.8,0-1.4-0.1-2.1-0.5
	c-0.6-0.3-1.3-0.7-1.8-1.3c-0.5-0.5-0.9-1.2-1.2-1.8c-0.3-0.7-0.4-1.4-0.4-2.2c0-0.9,0.1-1.6,0.4-2.3c0.3-0.7,0.8-1.3,1.4-1.8
	l0.1-0.1c0.5-0.3,1-0.7,1.7-1.1l2.7-1.4c2.9-1.4,5.3-2.8,6.9-4.3c0.9-0.8,1.7-1.5,2.4-2.4s1.5-1.7,2.2-2.7c1-1.3,1.8-2.5,2.9-3.8
	c0.4-0.4,1-0.8,1.7-0.9c0.5-0.1,1.2-0.2,1.9-0.2c1.8,0,3.3,0.7,4.4,2.2c0.5,0.6,0.9,1.4,1.2,2.4c0.3,0.9,0.4,1.8,0.4,2.8V162
	c0,2.8-0.5,5-1.6,6.6c-1.2,1.7-2.9,2.6-5.2,2.6c-1,0-1.9-0.2-2.7-0.5c-0.8-0.4-1.6-0.9-2.2-1.5l-0.1-0.1c-0.6-0.7-1-1.5-1.3-2.4
	C156.2,165.6,156.1,164.6,156.1,163.4L156.1,163.4z M223.7,141.4c0,2-0.1,4-0.2,5.9c-0.1,1.8-0.3,3.5-0.6,5
	c-0.3,1.5-0.6,3.1-1.2,4.5c-0.5,1.4-1.1,2.8-1.8,4.1c-0.9,1.6-2,3-3.2,4.3c-1.2,1.2-2.6,2.3-4,3.2c-1.5,0.9-3.1,1.5-4.7,2
	s-3.4,0.6-5.1,0.6c-2.1,0-4.1-0.3-5.9-0.9c-1.9-0.6-3.6-1.5-5.3-2.7s-3.1-2.6-4.3-4.2c-1.2-1.6-2.3-3.4-3.1-5.5l0-0.1
	c-0.4-1.1-0.8-2.3-1.1-3.5c-0.3-1.2-0.5-2.5-0.7-3.8c-0.2-1.3-0.3-2.7-0.4-4.1c-0.1-1.4-0.1-2.9-0.1-4.4c0-1.9,0.1-3.7,0.1-5.5v0
	c0.1-1.7,0.3-3.4,0.5-4.9c0.2-1.5,0.5-3,0.8-4.4s0.7-2.7,1.2-3.8l0.1-0.1c0.8-1.9,1.8-3.6,2.9-5c1.2-1.5,2.6-2.8,4.1-3.8
	c1.5-1,3.3-1.8,5.1-2.3c1.8-0.5,3.8-0.8,5.9-0.8c1.4,0,2.7,0.1,4,0.4c1.3,0.2,2.5,0.6,3.7,1l0.1,0c1.1,0.5,2.2,1,3.2,1.7
	c1,0.7,2,1.5,2.8,2.3c0.9,0.9,1.7,1.9,2.4,2.9c0.7,1.1,1.4,2.2,2,3.5l0.1,0.1c1,2.2,1.7,4.8,2.2,7.8v0.1
	C223.5,134.1,223.7,137.6,223.7,141.4L223.7,141.4z M210.3,140.6c0-2.3-0.1-4.4-0.2-6.1c-0.1-1.8-0.3-3.5-0.6-4.9v0
	c-0.3-1.3-0.6-2.5-1-3.5c-0.4-1-0.9-1.8-1.4-2.4c-0.5-0.6-1.1-1-1.8-1.3l-0.1,0c-0.7-0.3-1.5-0.4-2.4-0.4c-1.3,0-2.4,0.3-3.3,1
	l-0.1,0.1c-0.9,0.6-1.6,1.7-2.1,3c-0.6,1.5-1,3.6-1.4,6c-0.3,2.5-0.5,5.5-0.5,8.9c0,2.4,0.1,4.5,0.2,6.4c0.1,1.9,0.3,3.6,0.6,5
	c0.3,1.4,0.6,2.6,1,3.7c0.4,1,0.9,1.8,1.4,2.5c0.5,0.6,1.1,1,1.8,1.3c0.7,0.3,1.5,0.5,2.4,0.5c1,0,1.8-0.1,2.5-0.5
	c0.7-0.3,1.3-0.8,1.8-1.4c0.6-0.7,1-1.5,1.4-2.6c0.4-1,0.8-2.3,1-3.7c0.3-1.5,0.5-3.2,0.6-5.1C210.2,145.2,210.3,143.1,210.3,140.6
	L210.3,140.6z M269.3,141.4c0,2-0.1,4-0.2,5.9c-0.1,1.8-0.3,3.5-0.6,5c-0.3,1.5-0.6,3.1-1.2,4.5c-0.5,1.4-1.1,2.8-1.8,4.1
	c-0.9,1.6-2,3-3.2,4.3c-1.2,1.2-2.6,2.3-4,3.2c-1.5,0.9-3.1,1.5-4.7,2c-1.7,0.4-3.4,0.6-5.1,0.6c-2.1,0-4.1-0.3-5.9-0.9
	c-1.9-0.6-3.6-1.5-5.3-2.7s-3.1-2.6-4.3-4.2c-1.2-1.6-2.3-3.4-3.1-5.5l0-0.1c-0.4-1.1-0.8-2.3-1.1-3.5c-0.3-1.2-0.5-2.5-0.7-3.8
	c-0.2-1.3-0.3-2.7-0.4-4.1c-0.1-1.4-0.1-2.9-0.1-4.4c0-1.9,0.1-3.7,0.1-5.5v0c0.1-1.7,0.3-3.4,0.5-4.9c0.2-1.5,0.5-3,0.8-4.4
	s0.7-2.7,1.2-3.8l0.1-0.1c0.8-1.9,1.8-3.6,2.9-5c1.2-1.5,2.6-2.8,4.1-3.8c1.5-1,3.3-1.8,5.1-2.3c1.8-0.5,3.8-0.8,5.9-0.8
	c1.4,0,2.7,0.1,4,0.4c1.3,0.2,2.5,0.6,3.7,1l0.1,0c1.1,0.5,2.2,1,3.2,1.7c1,0.7,2,1.5,2.8,2.3c0.9,0.9,1.7,1.9,2.4,2.9
	c0.7,1.1,1.4,2.2,2,3.5l0,0.1c1,2.2,1.7,4.8,2.2,7.8v0.1C269.1,134.1,269.3,137.6,269.3,141.4L269.3,141.4z M255.9,140.6
	c0-2.3-0.1-4.4-0.2-6.1c-0.1-1.8-0.3-3.5-0.6-4.9v0c-0.3-1.3-0.6-2.5-1-3.5c-0.4-1-0.9-1.8-1.4-2.4c-0.5-0.6-1.1-1-1.8-1.3l-0.1,0
	c-0.7-0.3-1.5-0.4-2.4-0.4c-1.3,0-2.4,0.3-3.3,1l-0.1,0.1c-0.9,0.6-1.6,1.7-2.1,3c-0.6,1.5-1,3.6-1.4,6c-0.3,2.5-0.5,5.5-0.5,8.9
	c0,2.4,0.1,4.5,0.2,6.4c0.1,1.9,0.3,3.6,0.6,5c0.3,1.4,0.6,2.6,1,3.7c0.4,1,0.9,1.8,1.4,2.5c0.5,0.6,1.1,1,1.8,1.3
	c0.7,0.3,1.5,0.5,2.4,0.5c1,0,1.8-0.1,2.5-0.5c0.7-0.3,1.3-0.8,1.8-1.4c0.6-0.7,1-1.5,1.4-2.6c0.4-1,0.8-2.3,1-3.7
	c0.3-1.5,0.5-3.2,0.6-5.1C255.8,145.2,255.9,143.1,255.9,140.6L255.9,140.6z M299.7,127.4c0,2.6-0.3,4.8-0.9,6.7
	c-0.6,2-1.5,3.7-2.7,5l-0.1,0.1c-1.2,1.3-2.6,2.3-4.3,2.9c-1.7,0.6-3.5,1-5.5,1c-1.3,0-2.4-0.1-3.6-0.4c-1.2-0.3-2.3-0.7-3.3-1.3
	c-1-0.6-2-1.3-2.8-2.2c-0.8-0.9-1.5-1.9-2-3.1l0-0.1c-0.5-1.2-0.9-2.4-1.2-3.8c-0.3-1.4-0.4-2.9-0.4-4.5c0-1.7,0.1-3.3,0.3-4.7
	c0.2-1.5,0.5-2.8,0.9-4l0.1-0.1c0.4-1.2,1-2.3,1.7-3.2c0.8-1,1.7-1.8,2.7-2.4c1-0.6,2.2-1.2,3.5-1.5h0.1c1.3-0.3,2.6-0.5,4.1-0.5
	c1,0,2.1,0.1,3.1,0.3c0.9,0.2,1.9,0.4,2.7,0.8c0.9,0.4,1.7,0.8,2.4,1.3c0.7,0.5,1.4,1.2,2,1.9l0.1,0.1c0.5,0.7,1,1.4,1.4,2.3
	c0.4,0.8,0.8,1.8,1.1,2.8l0,0.1c0.3,1,0.5,2,0.6,3.1C299.6,124.9,299.7,126.2,299.7,127.4L299.7,127.4z M289.5,127
	c0-1.6-0.1-2.9-0.3-4v0c-0.1-1-0.4-1.9-0.6-2.4l0,0c-0.2-0.4-0.5-0.8-0.8-1l0,0c-0.4-0.2-0.8-0.3-1.4-0.3c-0.4,0-0.8,0.1-1.1,0.2
	s-0.5,0.3-0.7,0.5s-0.4,0.5-0.6,0.9l0,0.1c-0.2,0.4-0.3,0.9-0.4,1.4c-0.1,0.6-0.2,1.4-0.3,2.2l-0.1,2.8l0.1,3
	c0.1,0.8,0.1,1.6,0.3,2.2c0.1,0.6,0.3,1.1,0.5,1.5c0.1,0.4,0.4,0.6,0.6,0.9l0.1,0.1c0.2,0.2,0.4,0.3,0.6,0.4
	c0.3,0.1,0.7,0.2,1.1,0.2c0.6,0,1.2-0.1,1.5-0.4c0.4-0.2,0.6-0.6,0.9-1.1l0,0c0.3-0.6,0.5-1.5,0.6-2.6
	C289.4,130.1,289.5,128.7,289.5,127L289.5,127z M338.4,154.7c0,2.6-0.3,4.8-0.9,6.7c-0.6,2-1.5,3.7-2.7,5l-0.1,0.1
	c-1.2,1.3-2.6,2.3-4.3,2.9c-1.7,0.6-3.5,1-5.5,1c-1.3,0-2.5-0.1-3.6-0.4l-0.1,0c-1.1-0.3-2.2-0.7-3.2-1.3c-1-0.6-2-1.3-2.8-2.2
	c-0.8-0.9-1.5-1.9-2.1-3.1l0-0.1c-0.5-1.2-1-2.4-1.2-3.8c-0.3-1.4-0.4-2.9-0.4-4.5c0-2.6,0.3-4.9,0.8-6.8c0.5-2,1.3-3.8,2.4-5.2
	c1.1-1.5,2.5-2.6,4.3-3.3c1.7-0.7,3.7-1,5.9-1c1,0,2,0.1,3,0.3h0.1c0.9,0.1,1.8,0.4,2.7,0.8c0.8,0.4,1.6,0.8,2.4,1.3
	c0.7,0.5,1.4,1.2,2,1.8c0.6,0.7,1.1,1.5,1.6,2.3l0,0.1c0.4,0.8,0.8,1.7,1,2.7l0,0.1c0.3,1,0.5,2,0.6,3.1
	C338.3,152.3,338.4,153.4,338.4,154.7L338.4,154.7z M328.2,154.3c0-1.5-0.1-2.9-0.3-4c-0.1-1-0.4-1.9-0.6-2.5
	c-0.2-0.5-0.5-0.8-0.9-1l0,0c-0.4-0.2-0.8-0.3-1.4-0.3c-0.5,0-0.9,0.1-1.2,0.2s-0.5,0.3-0.7,0.4c-0.2,0.2-0.4,0.5-0.6,0.9
	c-0.2,0.4-0.4,0.9-0.5,1.5v0.1c-0.1,0.6-0.2,1.3-0.3,2.1c-0.1,0.8-0.1,1.8-0.1,2.8c0,1.6,0.1,3,0.3,4.1v0c0.1,1.1,0.4,1.9,0.7,2.6
	c0.2,0.5,0.5,0.9,0.9,1.1c0.4,0.2,0.9,0.4,1.5,0.4c1.2,0,1.9-0.5,2.3-1.4c0.3-0.7,0.5-1.6,0.6-2.7
	C328.1,157.4,328.2,156,328.2,154.3L328.2,154.3z M324.7,118.6l-31.5,50.7c-0.5,0.9-1.1,1.5-1.7,2c-0.8,0.6-1.5,0.9-2.4,0.9
	c-0.5,0-0.9-0.1-1.4-0.3c-0.4-0.1-0.9-0.4-1.3-0.7c-0.5-0.4-0.9-0.8-1.1-1.3l0-0.1c-0.2-0.5-0.4-1-0.4-1.6c0-0.4,0.1-0.9,0.3-1.4
	c0.1-0.4,0.4-0.9,0.7-1.3l32.4-52.4l0.8-1c0.4-0.4,0.8-0.7,1.3-0.9l0.1,0c0.5-0.1,0.9-0.3,1.5-0.3s1,0.1,1.5,0.3l0.1,0
	c0.5,0.2,0.9,0.5,1.3,0.8l0.1,0.1c0.4,0.4,0.6,0.8,0.8,1.3c0.2,0.5,0.3,1,0.3,1.6c0,0.5-0.2,1.1-0.5,1.8
	C325.6,117.2,325.2,117.8,324.7,118.6L324.7,118.6z"/>
<path class="st2" d="M244.6,289.9c2.2,0.6,4.7,0.9,6.9,1.3c56.4,9.1,96.7-18.5,89.3-101.9c-38.9,13.5-91.5,10.8-102.1,59.8
	c-10.6-49-63.2-46.4-102.1-59.8c-7.4,83.7,33.2,111.2,89.9,101.8c2-0.3,4.4-0.7,6.3-1.2C234.5,292.6,240.5,294,244.6,289.9
	L244.6,289.9z M225,274.5c-15.5-33.4-55.3-44.8-75-67.6C171.4,248.5,188.9,250.6,225,274.5L225,274.5L225,274.5z M252.4,274.5
	c15.5-33.4,55.3-44.8,75-67.6C306.1,248.5,288.6,250.6,252.4,274.5L252.4,274.5L252.4,274.5z"/>
<path class="st1" d="M148.8,306.3c2.3,0,4.4,0.2,6.3,0.7c1.9,0.5,3.7,1.2,5.4,2.1l0,0c1.6,0.9,3.1,2,4.3,3.3
	c1.3,1.3,2.3,2.8,3.1,4.6c0.8,1.7,1.5,3.6,1.9,5.5c0.4,2,0.6,4.1,0.6,6.4c0,3.3-0.5,6.4-1.4,9.2c-0.5,1.4-1,2.7-1.7,3.9
	c-0.7,1.2-1.5,2.3-2.4,3.3c-0.9,1-2,1.9-3.1,2.7c-1.2,0.8-2.4,1.4-3.7,2h0c-1.3,0.5-2.8,0.9-4.3,1.2c-1.5,0.3-3.2,0.4-4.9,0.4
	s-3.3-0.1-4.9-0.4s-3-0.7-4.4-1.3c-1.4-0.5-2.6-1.2-3.7-2c-1.2-0.8-2.2-1.7-3.1-2.7l0,0c-0.9-1-1.7-2.1-2.4-3.3
	c-0.7-1.2-1.3-2.6-1.7-4c-0.5-1.4-0.8-2.9-1-4.4c-0.2-1.5-0.4-3.1-0.4-4.7c0-1.7,0.1-3.3,0.4-4.8c0.3-1.5,0.6-3,1.1-4.4l0,0
	c0.5-1.4,1.1-2.7,1.8-3.8c0.7-1.2,1.5-2.3,2.4-3.3c0.9-1,1.9-1.9,3.1-2.6c1.1-0.8,2.3-1.4,3.7-1.9h0c1.3-0.5,2.7-0.9,4.2-1.2
	C145.6,306.5,147.2,306.3,148.8,306.3L148.8,306.3z M160.4,328.9c0-1.5-0.1-2.9-0.4-4.2c-0.3-1.3-0.6-2.5-1.1-3.6v0
	c-0.5-1-1-2-1.7-2.8c-0.7-0.8-1.4-1.5-2.3-2c-0.9-0.5-1.8-1-2.8-1.2c-1-0.3-2.1-0.4-3.2-0.4c-0.8,0-1.6,0.1-2.3,0.2
	c-0.8,0.1-1.5,0.4-2.2,0.7h0c-0.7,0.3-1.3,0.7-1.9,1.1c-0.6,0.4-1.1,0.9-1.6,1.5c-0.5,0.6-0.9,1.2-1.3,2c-0.4,0.8-0.8,1.6-1,2.5
	c-0.3,0.9-0.5,1.9-0.6,2.9c-0.1,1-0.2,2.2-0.2,3.3c0,1.2,0.1,2.3,0.2,3.3c0.1,1,0.4,2,0.6,3s0.6,1.8,1,2.6s0.9,1.4,1.4,2
	c0.5,0.6,1.1,1.1,1.7,1.6c0.6,0.4,1.2,0.8,1.9,1.1l0,0c0.6,0.3,1.4,0.5,2.1,0.6c0.7,0.1,1.5,0.2,2.3,0.2c1,0,2-0.1,3-0.4
	c0.9-0.3,1.9-0.6,2.7-1.2h0c0.8-0.5,1.6-1.2,2.3-1.9c0.7-0.8,1.3-1.8,1.8-2.8v0c0.5-1.1,0.9-2.3,1.2-3.6
	C160.2,332.1,160.4,330.6,160.4,328.9L160.4,328.9z M186.7,339.6v6.6c0,1.8-0.4,3.2-1.3,4.1c-0.4,0.5-1,0.8-1.5,1.1
	c-0.6,0.3-1.2,0.4-1.9,0.4c-0.6,0-1.3-0.1-1.8-0.4c-0.6-0.3-1.1-0.6-1.5-1.1s-0.8-1.1-1-1.8c-0.2-0.7-0.3-1.4-0.3-2.3v-22
	c0-1.9,0.4-3.4,1.1-4.4c0.8-1.1,1.9-1.7,3.5-1.7c0.8,0,1.4,0.1,2,0.4h0c0.6,0.3,1,0.6,1.4,1.2v0c0.3,0.5,0.6,1.1,0.8,1.8l0.1,0.3
	l0.4-0.5c0.5-0.6,1-1.2,1.6-1.7c0.6-0.5,1.2-0.8,2-1.1c0.7-0.2,1.5-0.4,2.4-0.4c0.9,0,1.8,0.1,2.6,0.3c0.9,0.2,1.7,0.5,2.6,1l0,0
	c0.9,0.5,1.5,1,2,1.7l0,0c0.5,0.7,0.7,1.4,0.7,2.2c0,0.6-0.1,1.1-0.3,1.6c-0.2,0.5-0.5,0.9-0.9,1.3l0,0c-0.4,0.4-0.8,0.6-1.2,0.8
	c-0.5,0.2-0.9,0.3-1.4,0.3c-0.2,0-0.5,0-0.9-0.1c-0.3-0.1-0.8-0.2-1.4-0.4h0c-0.5-0.1-1-0.3-1.4-0.4c-0.4-0.1-0.9-0.1-1.3-0.1
	c-0.5,0-1,0.1-1.4,0.2c-0.4,0.1-0.7,0.3-1,0.5h0c-0.3,0.3-0.6,0.6-0.8,0.9c-0.3,0.4-0.5,0.9-0.6,1.4v0c-0.2,0.5-0.4,1.2-0.5,1.8
	c-0.1,0.7-0.3,1.4-0.3,2.2l0,0c-0.1,0.8-0.1,1.7-0.2,2.7C186.7,337.3,186.7,338.4,186.7,339.6L186.7,339.6z M234,324.7v23
	c0,1.3-0.1,2.6-0.2,3.8c-0.1,1.2-0.4,2.2-0.6,3.2v0c-0.3,1-0.7,1.9-1.2,2.7l0,0c-0.5,0.8-1,1.6-1.7,2.2l0,0
	c-0.6,0.6-1.4,1.2-2.3,1.7c-0.9,0.5-1.8,0.9-2.9,1.2c-1,0.3-2.2,0.5-3.5,0.7c-1.3,0.1-2.7,0.2-4.2,0.2c-1.4,0-2.7-0.1-4-0.3
	c-1.3-0.2-2.5-0.5-3.6-0.9c-1.1-0.4-2.1-0.9-3-1.4c-0.9-0.5-1.7-1.1-2.3-1.8c-0.6-0.7-1.1-1.3-1.4-2c-0.3-0.7-0.5-1.4-0.5-2.2
	c0-0.6,0.1-1.1,0.3-1.6s0.5-0.9,0.9-1.3l0,0c0.4-0.4,0.8-0.6,1.3-0.8c0.5-0.2,1-0.3,1.5-0.3c0.7,0,1.4,0.1,2,0.5
	c0.6,0.3,1.2,0.8,1.7,1.3l1.3,1.6c0.2,0.2,0.4,0.4,0.6,0.6c0.2,0.2,0.5,0.4,0.7,0.6h0c0.2,0.1,0.5,0.3,0.8,0.4h0
	c0.3,0.1,0.6,0.2,0.9,0.3h0c0.4,0.1,0.7,0.1,1.1,0.2c0.4,0,0.9,0.1,1.4,0.1c1,0,1.9-0.1,2.6-0.2c0.7-0.1,1.3-0.3,1.8-0.6h0
	c0.5-0.3,0.9-0.5,1.2-0.9c0.3-0.3,0.6-0.7,0.8-1.2c0.2-0.5,0.4-1,0.5-1.5c0.1-0.5,0.2-1,0.3-1.6c0-0.6,0.1-1.4,0.1-2.3l0-1.2
	c-0.3,0.3-0.5,0.5-0.7,0.7c-0.8,0.7-1.5,1.3-2.4,1.7h0c-0.9,0.5-1.8,0.8-2.8,1c-1,0.3-2.1,0.4-3.2,0.4c-1.4,0-2.7-0.2-3.9-0.5
	s-2.4-0.9-3.4-1.6c-1-0.7-2-1.6-2.8-2.6c-0.8-1-1.5-2.1-2-3.4c-0.5-1.3-1-2.6-1.3-4.1c-0.3-1.4-0.4-3-0.4-4.6c0-1.2,0.1-2.4,0.3-3.5
	c0.2-1.1,0.4-2.2,0.8-3.2c0.4-1,0.8-1.9,1.3-2.8c0.5-0.8,1-1.6,1.7-2.3c0.6-0.7,1.3-1.3,2-1.8c0.7-0.5,1.5-1,2.3-1.3h0
	c0.8-0.4,1.7-0.6,2.6-0.8c0.9-0.2,1.8-0.3,2.8-0.3c1.2,0,2.3,0.1,3.3,0.4c1,0.2,2,0.6,2.9,1c0.9,0.5,1.7,1,2.5,1.8l0,0
	c0.3,0.3,0.7,0.6,1,1c0-0.4,0.1-0.8,0.3-1.2c0.2-0.6,0.5-1.2,0.9-1.6c0.4-0.5,0.9-0.8,1.4-1c0.5-0.2,1.1-0.4,1.7-0.4
	c0.9,0,1.6,0.1,2.2,0.5c0.6,0.3,1.2,0.8,1.5,1.4c0.3,0.6,0.5,1.3,0.6,2C234,322.8,234,323.7,234,324.7L234,324.7z M211.1,334.7
	c0,1.5,0.2,2.9,0.5,4c0.3,1.1,0.8,2,1.4,2.8s1.4,1.3,2.2,1.7c0.8,0.4,1.7,0.5,2.7,0.5c0.6,0,1.2-0.1,1.7-0.3
	c0.6-0.1,1.1-0.4,1.7-0.7c0.5-0.3,1-0.7,1.4-1.2c0.4-0.5,0.8-1,1.2-1.7l0,0c0.3-0.6,0.6-1.4,0.8-2.2s0.3-1.7,0.3-2.7
	c0-1.5-0.2-2.9-0.5-4.1c-0.3-1.2-0.8-2.2-1.5-3l0,0c-0.6-0.8-1.4-1.4-2.2-1.8c-0.8-0.4-1.8-0.6-2.8-0.6c-1,0-1.9,0.2-2.7,0.6
	c-0.8,0.4-1.5,1-2.1,1.7c-0.6,0.8-1.1,1.8-1.4,2.9C211.2,331.8,211.1,333.2,211.1,334.7L211.1,334.7z M261.1,347.6
	c-0.8,0.6-1.5,1.1-2.3,1.5c-1,0.6-1.9,1-2.8,1.4h0c-0.9,0.4-1.9,0.7-2.9,0.9c-1,0.2-2.2,0.3-3.3,0.3c-1,0-2.1-0.1-3-0.3
	c-1-0.2-1.8-0.5-2.7-1c-0.8-0.4-1.5-0.9-2.2-1.5l0,0c-0.6-0.6-1.2-1.2-1.6-2c-0.5-0.8-0.8-1.5-1-2.3c-0.2-0.8-0.3-1.7-0.3-2.5
	c0-1.2,0.2-2.3,0.6-3.3c0.4-1,0.9-1.9,1.7-2.8l0,0c0.8-0.8,1.6-1.5,2.6-2c1-0.5,2.1-0.9,3.4-1.2c2.2-0.5,4.4-0.9,6.5-1.4
	c0.9-0.2,1.7-0.4,2.3-0.5c0.8-0.2,1.5-0.4,2.3-0.6l1.8-0.5c-0.1-0.8-0.2-1.4-0.3-2c-0.2-0.7-0.4-1.2-0.8-1.6l0,0
	c-0.3-0.4-0.7-0.6-1.3-0.8c-0.7-0.2-1.6-0.3-2.7-0.3c-1,0-1.8,0.1-2.5,0.2c-0.7,0.1-1.2,0.3-1.7,0.5h0c-0.4,0.3-0.9,0.5-1.3,0.9
	c-0.4,0.4-0.8,0.8-1.1,1.4l-0.9,1.4c-0.3,0.4-0.5,0.7-0.7,0.9l0,0c-0.3,0.3-0.6,0.5-1.1,0.6c-0.4,0.1-0.9,0.1-1.4,0.1
	c-1.1,0-2-0.4-2.8-1l0,0c-0.4-0.4-0.7-0.8-0.9-1.2l0,0c-0.2-0.5-0.3-0.9-0.3-1.5c0-0.8,0.1-1.5,0.4-2.3c0.3-0.8,0.7-1.5,1.2-2.2
	c0.5-0.7,1.2-1.4,2-1.9c0.8-0.6,1.8-1.1,2.9-1.5c1.1-0.4,2.3-0.8,3.7-1c1.4-0.2,2.8-0.3,4.4-0.3c1.8,0,3.4,0.1,4.8,0.3
	c1.4,0.2,2.7,0.5,3.7,1c1.1,0.4,2,1,2.8,1.7l0,0c0.8,0.7,1.4,1.5,1.8,2.5c0.4,0.9,0.8,2,1,3.3c0.2,1.2,0.3,2.6,0.3,4.1
	c0,3,0,6-0.1,9.1c0,1.4,0.3,2.9,0.7,4.5c0.3,0.8,0.4,1.5,0.6,2c0.1,0.6,0.2,1,0.2,1.3c0,0.5-0.1,1-0.4,1.5l0,0
	c-0.2,0.4-0.6,0.9-1,1.2c-0.4,0.4-0.9,0.7-1.4,0.9c-0.5,0.2-1.1,0.3-1.7,0.3c-0.5,0-1-0.1-1.5-0.4c-0.5-0.2-0.9-0.5-1.4-1
	c-0.4-0.4-0.9-0.9-1.3-1.5C261.8,348.6,261.5,348.1,261.1,347.6L261.1,347.6z M260.1,336.1l-1.3,0.4c-0.9,0.2-1.8,0.5-2.9,0.7
	c-1.5,0.3-3.1,0.7-4.6,1c-0.4,0.1-0.7,0.3-1,0.4c-0.4,0.2-0.7,0.4-1,0.7c-0.3,0.3-0.5,0.5-0.7,0.9c-0.1,0.4-0.2,0.8-0.2,1.3
	c0,0.5,0.1,1,0.3,1.4c0.2,0.4,0.5,0.8,0.9,1.2c0.4,0.4,0.8,0.6,1.3,0.8c0.5,0.2,1.1,0.3,1.8,0.3c0.7,0,1.4-0.1,2.1-0.3
	c0.7-0.1,1.3-0.4,1.9-0.7c0.6-0.3,1.2-0.7,1.6-1.1c0.4-0.4,0.8-0.8,1-1.3l0,0c0.3-0.5,0.5-1.2,0.7-2.1
	C260.1,338.7,260.2,337.5,260.1,336.1L260.1,336.1L260.1,336.1z M286,322.2c0.4-0.4,0.7-0.7,1-1c0.8-0.7,1.7-1.3,2.5-1.8
	s1.8-0.8,2.8-1c1-0.2,2.1-0.3,3.2-0.3c1.1,0,2.2,0.1,3.1,0.4c1,0.3,1.9,0.6,2.8,1.1l0,0c0.9,0.5,1.7,1.1,2.3,1.8l0,0
	c0.6,0.7,1.2,1.5,1.7,2.4l0,0c0.3,0.5,0.5,1,0.7,1.6c0.2,0.6,0.3,1.2,0.4,1.8v0c0.1,0.6,0.1,1.2,0.2,2c0,0.8,0.1,1.5,0.1,2.4v14.7
	c0,0.9-0.1,1.6-0.3,2.3c-0.2,0.7-0.5,1.3-1,1.8c-0.4,0.5-0.9,0.9-1.5,1.1c-0.6,0.3-1.2,0.4-1.9,0.4s-1.3-0.1-1.9-0.4
	c-0.6-0.3-1.1-0.6-1.5-1.1l0,0c-0.4-0.5-0.7-1.1-0.9-1.7s-0.3-1.4-0.3-2.3v-13.2c0-1.3-0.1-2.4-0.3-3.3c-0.2-0.9-0.4-1.7-0.8-2.3
	l0,0c-0.3-0.5-0.7-0.9-1.3-1.2l-0.1,0c-0.6-0.3-1.4-0.4-2.3-0.4c-0.6,0-1.2,0.1-1.8,0.3s-1.1,0.5-1.7,0.8c-0.5,0.4-1,0.8-1.4,1.3
	c-0.4,0.5-0.7,1.1-0.9,1.8c-0.2,0.5-0.3,1.3-0.4,2.4c-0.1,1.1-0.1,2.4-0.1,4v9.9c0,0.9-0.1,1.7-0.3,2.3c-0.2,0.7-0.5,1.3-1,1.8
	c-0.5,0.5-1,0.9-1.5,1.1l-0.1,0c-0.5,0.2-1.2,0.3-1.8,0.3c-0.7,0-1.3-0.1-1.8-0.4l0,0c-0.5-0.3-1-0.6-1.4-1.1
	c-0.4-0.5-0.8-1.1-1-1.8c-0.2-0.6-0.3-1.4-0.3-2.3v-22.9c0-0.8,0.1-1.5,0.3-2.2c0.2-0.7,0.5-1.2,0.9-1.7l0,0c0.4-0.4,0.9-0.8,1.4-1
	c0.5-0.2,1.2-0.3,1.8-0.3c0.4,0,0.8,0,1.2,0.1s0.8,0.3,1.1,0.4c0.4,0.2,0.6,0.5,0.9,0.8c0.3,0.3,0.5,0.6,0.7,1
	c0.2,0.4,0.4,0.8,0.4,1.3L286,322.2L286,322.2z M324.1,323.3v22.9c0,1.8-0.4,3.1-1.3,4.1c-0.4,0.5-1,0.9-1.5,1.1h0
	c-0.6,0.2-1.2,0.4-1.8,0.4c-0.7,0-1.3-0.1-1.9-0.4c-0.6-0.3-1.1-0.6-1.5-1.1c-0.4-0.5-0.8-1.1-1-1.8c-0.2-0.7-0.3-1.4-0.3-2.3v-22.7
	c0-0.9,0.1-1.6,0.3-2.3c0.2-0.7,0.5-1.3,1-1.8s0.9-0.8,1.5-1.1c0.6-0.3,1.2-0.4,1.9-0.4s1.3,0.1,1.9,0.4c0.6,0.3,1.1,0.6,1.5,1
	c0.5,0.5,0.8,1,1,1.7C324,321.8,324.1,322.6,324.1,323.3L324.1,323.3z M319.5,315.9c-0.6,0-1.2-0.1-1.8-0.3c-0.5-0.2-1-0.5-1.5-0.9
	l0,0c-0.5-0.4-0.8-0.9-1-1.5c-0.2-0.6-0.4-1.2-0.4-1.9c0-0.6,0.1-1.3,0.4-1.8c0.3-0.5,0.6-1,1.1-1.5c0.5-0.4,1-0.8,1.5-0.9
	c0.5-0.2,1.2-0.3,1.8-0.3c0.6,0,1.2,0.1,1.7,0.3c0.5,0.2,1,0.5,1.5,0.9c0.5,0.4,0.9,0.9,1.1,1.5c0.2,0.6,0.4,1.2,0.4,1.9
	c0,0.7-0.1,1.3-0.4,1.9c-0.2,0.6-0.6,1.1-1,1.5c-0.5,0.4-0.9,0.7-1.5,0.9C320.7,315.8,320.1,315.9,319.5,315.9L319.5,315.9z
	 M362.2,341.2c0,0.5-0.1,1.1-0.3,1.7c-0.1,0.6-0.4,1.2-0.7,1.8v0c-0.3,0.6-0.7,1.2-1.2,1.7l0,0c-0.5,0.6-1,1.1-1.7,1.6
	c-0.6,0.5-1.4,1-2.2,1.5c-0.8,0.4-1.7,0.8-2.6,1.1c-1,0.3-2,0.6-3.1,0.7c-1.1,0.1-2.2,0.3-3.4,0.3c-5.1,0-9.1-1.5-12-4.5
	c-1.4-1.5-2.6-3.2-3.3-5.3c-0.7-2-1.1-4.2-1.1-6.7c0-1.7,0.1-3.2,0.5-4.7c0.3-1.5,0.8-2.9,1.5-4.2c0.6-1.3,1.5-2.5,2.4-3.5
	c1-1,2-1.9,3.3-2.6s2.6-1.3,4.1-1.6c1.5-0.4,3.1-0.5,4.8-0.5c1,0,2.1,0.1,3.1,0.3c1,0.1,1.9,0.4,2.8,0.7c0.9,0.3,1.7,0.7,2.5,1.1
	c0.8,0.4,1.4,0.9,2.1,1.4c0.6,0.5,1.2,1,1.7,1.5c0.5,0.5,0.9,1.1,1.2,1.7l0,0c0.3,0.6,0.6,1.1,0.8,1.7c0.2,0.6,0.3,1.1,0.3,1.7
	c0,0.6-0.1,1.1-0.3,1.6c-0.2,0.5-0.5,0.9-1,1.3c-0.4,0.4-0.9,0.7-1.4,0.9c-0.5,0.2-1.1,0.3-1.7,0.3c-0.4,0-0.8,0-1.1-0.1
	s-0.7-0.3-1-0.5c-0.3-0.2-0.5-0.4-0.8-0.8c-0.3-0.3-0.5-0.6-0.8-1v0c-0.5-0.7-0.9-1.3-1.4-1.8c-0.5-0.5-0.9-0.9-1.4-1.3
	c-0.5-0.3-1-0.6-1.6-0.7c-0.6-0.1-1.3-0.3-2-0.3c-1,0-2,0.2-2.8,0.6c-0.8,0.4-1.6,1-2.2,1.8c-0.6,0.8-1.2,1.8-1.5,3
	c-0.3,1.2-0.5,2.5-0.5,4.1c0,0.7,0,1.4,0.1,2c0.1,0.6,0.2,1.3,0.4,1.9c0.2,0.6,0.4,1.1,0.6,1.6l0,0c0.3,0.5,0.5,0.9,0.8,1.3
	c0.3,0.4,0.6,0.8,1,1c0.4,0.3,0.8,0.5,1.2,0.8c0.4,0.2,0.9,0.4,1.4,0.5c0.5,0.1,1,0.1,1.5,0.1c0.7,0,1.4-0.1,2-0.3s1.2-0.4,1.7-0.7
	c0.5-0.3,1-0.8,1.5-1.3c0.5-0.5,0.9-1.2,1.3-1.9v0c0.3-0.5,0.5-0.9,0.8-1.2l0,0c0.3-0.4,0.6-0.7,0.9-1h0c0.3-0.3,0.7-0.5,1.2-0.7h0
	c0.4-0.1,0.9-0.2,1.3-0.2c0.6,0,1.1,0.1,1.6,0.4c0.5,0.3,0.9,0.6,1.3,1c0.4,0.4,0.6,0.9,0.8,1.3l0,0
	C362.1,340.3,362.2,340.8,362.2,341.2L362.2,341.2z"/>
</svg>
