<?xml version="1.0" encoding="utf-8"?>
<!-- Generator: Adobe Illustrator 25.2.1, SVG Export Plug-In . SVG Version: 6.00 Build 0)  -->
<svg version="1.1" id="Layer_1" xmlns="http://www.w3.org/2000/svg" xmlns:xlink="http://www.w3.org/1999/xlink" x="0px" y="0px"
	 viewBox="0 0 500 500" style="enable-background:new 0 0 500 500;" xml:space="preserve">
<style type="text/css">
	.st0{fill:#D8E9BD;}
	.st1{fill-rule:evenodd;clip-rule:evenodd;fill:#708738;}
</style>
<path class="st0" d="M244.2,481.1L50.9,385.7c-24.8-12.2-38.9-39.1-35-66.5l31-213.3c4-27.4,25.1-49.1,52.4-53.8l212.5-36.5
	c27.3-4.7,54.5,8.7,67.4,33.2l100.3,190.8c12.9,24.5,8.5,54.5-10.8,74.3L318.2,468.4C298.9,488.2,269,493.3,244.2,481.1z"/>
<g>
	<path class="st1" d="M204.5,75.4h78.3c3.3,0,6.4,1.4,8.6,3.6c2.2,2.2,3.6,5.2,3.6,8.6v18.2c0,3.3-1.4,6.4-3.6,8.6
		c-2.2,2.2-5.2,3.6-8.6,3.6h-1.5c9.9,17,17.7,34.5,23.3,52.5c6.2,19.9,9.8,22.1,10.8,43.3c0,0.1,0,0.2,0,0.2l0,0v146
		c0,0.2,0,0.4,0,0.5c-0.4,9.5-2.8,17.5-7.5,23.6c-4.9,6.3-12.1,10.4-22,11.8c-0.2,0-0.4,0.1-0.7,0.1l0,0h-82.5c-0.2,0-0.4,0-0.5,0
		c-9.1-0.4-16-3.5-21.1-8.8c-5-5.3-7.9-12.5-9.4-21.5c0-0.2-0.1-0.5-0.1-0.7h0V214.3c0-0.2,0-0.4,0-0.6c1.8-22.8,5.7-25.6,11.4-45
		c5.5-18.6,12.6-35.5,21-50.7c-3.2-0.1-6.2-1.4-8.3-3.6c-2.2-2.2-3.6-5.2-3.6-8.6V87.5c0-3.3,1.4-6.4,3.6-8.6
		C198.1,76.8,201.1,75.4,204.5,75.4L204.5,75.4L204.5,75.4z M273,84.5v24.4h9.8c0.8,0,1.6-0.3,2.2-0.9c0.5-0.5,0.9-1.3,0.9-2.2V87.5
		c0-0.8-0.3-1.6-0.9-2.2c-0.5-0.5-1.3-0.9-2.2-0.9l0,0L273,84.5L273,84.5z M263.9,108.9V84.5h-16.2v24.4H263.9L263.9,108.9z
		 M238.5,108.9V84.5h-14.3v24.4H238.5L238.5,108.9z M215,108.9V84.5h-10.6c-0.8,0-1.6,0.3-2.2,0.9c-0.5,0.5-0.9,1.3-0.9,2.2v18.2
		c0,0.8,0.3,1.6,0.9,2.2c0.5,0.5,1.3,0.9,2.2,0.9L215,108.9L215,108.9z M206,248.8v25.2c0,3.8-0.1,6.2-0.1,7.3
		c-0.1,1.1-0.4,2.1-1.1,2.9c-0.6,0.9-1.5,1.5-2.6,1.8c-1.1,0.3-2.7,0.5-4.9,0.5h-4.9V280c0.6,0.1,1,0.1,1.3,0.1
		c0.7,0,1.2-0.2,1.6-0.5c0.4-0.3,0.6-0.8,0.7-1.3c0.1-0.5,0.1-1.5,0.1-2.9v-26.5H206L206,248.8z M232.5,248.8v25.2
		c0,2.9-0.1,4.9-0.3,6c-0.2,1.2-0.7,2.3-1.6,3.6s-2.1,2.1-3.6,2.8c-1.5,0.6-3.3,0.9-5.3,0.9c-2.2,0-4.3-0.4-5.9-1.1
		c-1.7-0.8-3-1.7-3.9-2.9c-0.9-1.2-1.4-2.5-1.5-3.8c-0.2-1.3-0.2-4.1-0.2-8.4v-22.3h9.8v28.3c0,1.6,0.1,2.7,0.3,3.2
		c0.2,0.5,0.5,0.7,1.1,0.7c0.6,0,1-0.3,1.2-0.8c0.2-0.5,0.3-1.7,0.3-3.6v-27.9H232.5L232.5,248.8z M246.6,248.8v37.7h-9.8v-37.7
		H246.6L246.6,248.8z M273.8,265.3H264v-6.5c0-1.9-0.1-3.1-0.3-3.6s-0.7-0.7-1.4-0.7c-0.8,0-1.3,0.3-1.5,0.9
		c-0.2,0.6-0.3,1.8-0.3,3.7v17.5c0,1.8,0.1,3,0.3,3.6c0.2,0.5,0.7,0.8,1.5,0.8c0.7,0,1.2-0.3,1.4-0.8s0.3-1.9,0.3-4v-4.7h9.8v1.5
		c0,3.9-0.3,6.7-0.8,8.3c-0.5,1.6-1.8,3.1-3.7,4.3c-1.9,1.2-4.2,1.9-7,1.9c-2.9,0-5.2-0.5-7.1-1.6c-1.9-1-3.1-2.5-3.7-4.3
		c-0.6-1.9-0.9-4.6-0.9-8.3v-11c0-2.7,0.1-4.7,0.3-6.1c0.2-1.4,0.7-2.7,1.7-3.9c0.9-1.3,2.2-2.2,3.8-3c1.6-0.7,3.5-1.1,5.7-1.1
		c2.9,0,5.3,0.5,7.1,1.7c1.9,1.1,3.1,2.5,3.7,4.2c0.6,1.7,0.9,4.3,0.9,7.8V265.3L273.8,265.3z M277.8,248.8h16.4v7.5h-6.5v7.2h6.1
		v7.1h-6.1v8.3h7.2v7.5h-17V248.8L277.8,248.8z M180.9,232.8h125.6v-18.9l0,0c-1-20.3-4.5-21.7-10.5-40.8
		c-5.8-18.4-13.8-36.3-24.3-53.6l0,0l-58.3,0.4c-8.7,15.3-16,32.4-21.6,51.3c-5.5,18.8-9.4,21-11.1,43.1L180.9,232.8L180.9,232.8z
		 M306.5,302.7H180.9v61.8c1.2,6.9,3.4,12.4,6.9,16.2c3.4,3.6,8.2,5.7,14.8,6c0.1,0,0.1,0,0.2,0h82.3c7.2-1.1,12.4-4,15.8-8.3
		c3.5-4.5,5.2-10.7,5.6-18.4v-0.2L306.5,302.7L306.5,302.7z"/>
</g>
</svg>
