<?xml version="1.0" encoding="utf-8"?>
<!-- Generator: Adobe Illustrator 25.2.1, SVG Export Plug-In . SVG Version: 6.00 Build 0)  -->
<svg version="1.1" id="Layer_1" xmlns="http://www.w3.org/2000/svg" xmlns:xlink="http://www.w3.org/1999/xlink" x="0px" y="0px"
	 viewBox="0 0 800 200" style="enable-background:new 0 0 800 200;" xml:space="preserve">
<style type="text/css">
	.st0{fill:#58AD32;}
	.st1{font-family:'FranklinGothic-Heavy';}
	.st2{font-size:32.7041px;}
	.st3{fill:#FFFFFF;}
</style>
<image style="overflow:visible;enable-background:new    ;" width="828" height="625" xlink:href="../../../Kuttiattoor Mangos ASSETS/images/pngwing.com (15).png"  transform="matrix(-0.1738 -0.1406 -0.1406 0.1738 221.1721 87.14)">
</image>
<text transform="matrix(1 0 0 1 178.6299 149.9717)" class="st0 st1 st2">MANGO PRODUCER COMPANY LIMITED</text>
<g>
	<path class="st3" d="M187.4,47.1h12.4v25.8c3.8-4.5,15.7-17.5,23.1-25.8h15l-23.3,24.1l24.1,33.8h-15l-17.8-25.7l-6.1,5.8V105
		h-12.4V47.1z"/>
	<path class="st3" d="M254.6,47.1v34.5c0,11.1,5.7,14.4,12,14.4c7.2,0,11.7-3.9,11.7-14.4V47.1h12.5V81c0,19.8-11.6,24.8-24.4,24.8
		c-13.1,0-24.3-5.3-24.3-24.6V47.1H254.6z"/>
	<path class="st3" d="M316.7,57.4h-17.6V47.1h47.7v10.3h-17.5V105h-12.5V57.4z"/>
	<path class="st3" d="M370.3,57.4h-17.6V47.1h47.7v10.3h-17.5V105h-12.5V57.4z"/>
	<path class="st3" d="M420.6,47.1V105h-12.5V47.1H420.6z"/>
	<path class="st3" d="M445.2,91.6l-4.5,13.4h-12.3l19.7-57.9h15.7l20.5,57.9h-13.2l-4.8-13.4H445.2z M463.7,81.4
		c-4.1-12.2-6.7-20-8.1-25.2h-0.1c-1.4,5.7-4.3,14.8-7.6,25.2H463.7z"/>
	<path class="st3" d="M497.3,57.4h-17.6V47.1h47.7v10.3h-17.5V105h-12.5V57.4z"/>
	<path class="st3" d="M550.9,57.4h-17.6V47.1h47.7v10.3h-17.5V105h-12.5V57.4z"/>
	<path class="st3" d="M640.2,75.8c0,16.1-9.7,30-28.5,30c-18.2,0-27.7-13.2-27.7-29.8c0-16.9,10.5-29.8,28.5-29.8
		C629.4,46.2,640.2,58.1,640.2,75.8z M596.9,75.8c0,11.3,5,19.9,15.2,19.9c11.1,0,15.1-9.3,15.1-19.6c0-11-4.5-19.6-15.3-19.6
		C601.5,56.4,596.9,64.5,596.9,75.8z"/>
	<path class="st3" d="M704.4,75.8c0,16.1-9.7,30-28.5,30c-18.2,0-27.7-13.2-27.7-29.8c0-16.9,10.5-29.8,28.5-29.8
		C693.7,46.2,704.4,58.1,704.4,75.8z M661.2,75.8c0,11.3,5,19.9,15.2,19.9c11.1,0,15.1-9.3,15.1-19.6c0-11-4.5-19.6-15.3-19.6
		C665.7,56.4,661.2,64.5,661.2,75.8z"/>
	<path class="st3" d="M727.6,81.8V105h-12.2V47.1h25.4c12.6,0,19.4,7,19.4,15.9c0,7.8-4.2,12-8.4,13.7c2.9,1.1,7.2,4,7.2,14.4V94
		c0,3.9,0,8.3,0.8,11H748c-1-2.5-1.2-6.9-1.2-13v-0.8c0-6.3-1.6-9.3-10.9-9.3H727.6z M727.6,71.9h10.5c6.9,0,9.5-2.6,9.5-7.5
		c0-4.7-3.1-7.3-9.2-7.3h-10.8V71.9z"/>
</g>
</svg>
