<?xml version="1.0" encoding="utf-8"?>
<!-- Generator: Adobe Illustrator 25.2.1, SVG Export Plug-In . SVG Version: 6.00 Build 0)  -->
<svg version="1.1" id="Layer_1" xmlns="http://www.w3.org/2000/svg" xmlns:xlink="http://www.w3.org/1999/xlink" x="0px" y="0px"
	 viewBox="0 0 800 200" style="enable-background:new 0 0 800 200;" xml:space="preserve">
<style type="text/css">
	.st0{fill:#004215;}
	.st1{fill:#F5BB18;}
</style>
<g>
	
		<image style="overflow:visible;" width="828" height="625" xlink:href="../../../Kuttiattoor Mangos ASSETS/images/pngwing.com (15).png"  transform="matrix(-0.1907 -7.488839e-02 -7.488839e-02 0.1907 213.2465 60.9625)">
	</image>
	<g>
		<path class="st0" d="M236.4,47c-1.5,2.8-4.5,8.5-9.1,17.4c-2.5,4.9-6,11.4-10.4,19.5c0.4,0.6,2.6,3.1,6.6,7.5
			c2.3,2.5,5.7,5.7,10,9.6c-1.8,0.8-4.8,2.1-8.9,3.8c-2.3,1-5.5,2.5-9.7,4.5c-1-1.2-3.1-4.1-6.3-8.7c-1.8-2.7-3.5-5.6-5.1-8.6h-0.2
			l-0.4,13.9h-22.4l-1.1-32.3c-0.3-7.1-0.9-17-1.9-29.8h28.2L204.1,71h0.3c1.1-3.2,3-8.4,5.5-15.7c1-3.2,2.3-7.6,4-13.1l11.4,2.5
			C229,45.5,232.7,46.3,236.4,47z"/>
		<path class="st0" d="M292.8,43.7l-0.9,26.2c-0.3,7.5-0.4,18.8-0.4,33.9c-6.9,2.5-13.9,3.7-21.1,3.7c-8.8,0-15.6-1.8-20.2-5.3
			c-3.9-3-6.7-7.7-8.3-14c-0.9-3.6-1.8-10.3-2.7-20c-0.8-9-1.3-17.1-1.5-24.5h26.1c-0.1,3.6-0.3,9.4-0.5,17.4
			c-0.1,4.5-0.1,10.8,0.1,19.1c0,6.3,0.6,10.5,1.6,12.7c1.1,2.3,3.3,3.5,6.6,3.5c0.9,0,2-0.3,3.2-0.8c0-5.6-0.2-14.4-0.5-26.5
			c-0.3-6.1-0.8-14.5-1.5-25.3H292.8z"/>
		<path class="st0" d="M345.5,43.7l-1.2,25.4c-1.1-0.2-2.7-0.4-5.1-0.6c-1.4-0.1-3.7-0.2-7-0.2c-0.2,1.6-0.4,5.4-0.8,11.5
			c-0.3,5.9-0.8,14.6-1.5,26h-19.6c-0.2-5.4-0.6-14-1.2-25.7c-0.3-4-0.6-8-0.8-11.9l-6.4,0.2l-5.8,0.6l-1-25.4H345.5z"/>
		<path class="st0" d="M397.3,43.7l-1.2,25.4c-1.1-0.2-2.7-0.4-5.1-0.6c-1.4-0.1-3.7-0.2-7-0.2c-0.2,1.6-0.4,5.4-0.8,11.5
			c-0.3,5.9-0.8,14.6-1.5,26h-19.6c-0.2-5.4-0.6-14-1.2-25.7c-0.3-4-0.6-8-0.8-11.9l-6.4,0.2l-5.8,0.6l-1-25.4H397.3z"/>
		<path class="st0" d="M427.8,43.7l-1.6,33c-0.3,7.1-0.6,16.8-1.1,29.1h-22.7l-2.8-62.1H427.8z"/>
		<path class="st0" d="M480.6,105.9h-22.1l-1.5-5.4c-0.6,0.2-2.2,1.1-4.7,2.5c-1.6,1-3.4,2.4-5.3,4.1l-2.3-4.9c-0.5-1-1.1-2.3-2-4.1
			l-2.2,7.8h-11.7c1.7-6.7,4.4-17.7,8-33c2.2-10.2,4.1-20,5.5-29.2h24.3c0.8,4.2,2.8,14.1,6.2,29.6
			C474.7,81.4,477.3,92.3,480.6,105.9z M455,92.6c-0.5-1.4-1.3-3.7-2.4-7c-0.7-1.8-1.8-4.2-3.2-7.4c-0.6,1.6-1.6,4.1-2.9,7.7
			c-0.7,2-1.6,4.8-2.6,8.4c0.8,0,2.6-0.2,5.5-0.5C451.1,93.6,453,93.2,455,92.6z"/>
		<path class="st0" d="M531.4,43.7l-1.2,25.4c-1.1-0.2-2.7-0.4-5.1-0.6c-1.4-0.1-3.7-0.2-7-0.2c-0.2,1.6-0.4,5.4-0.9,11.5
			c-0.3,5.9-0.8,14.6-1.5,26h-19.6c-0.2-5.4-0.6-14-1.2-25.7c-0.3-4-0.6-8-0.8-11.9l-6.4,0.2l-5.8,0.6l-1-25.4H531.4z"/>
		<path class="st0" d="M583.2,43.7L582,69.2c-1.1-0.2-2.7-0.4-5.1-0.6c-1.4-0.1-3.7-0.2-7-0.2c-0.2,1.6-0.4,5.4-0.9,11.5
			c-0.3,5.9-0.8,14.6-1.5,26h-19.6c-0.2-5.4-0.6-14-1.2-25.7c-0.3-4-0.6-8-0.8-11.9l-6.4,0.2l-5.8,0.6l-1-25.4H583.2z"/>
		<path class="st0" d="M639.9,73.5c0,9.5-2.5,17.6-7.4,24.1c-5.2,6.9-11.7,10.3-19.8,10.3c-8.3,0-15-3.5-20.1-10.4
			c-4.8-6.5-7.2-14.5-7.2-24.1c0-10.2,2.6-18.1,7.9-23.9c5-5.4,11.4-8.2,19.5-8.2c7.9,0,14.3,2.7,19.3,8.2
			C637.2,55.4,639.9,63.4,639.9,73.5z M620.4,80.6c0-7.5-2.5-11.2-7.6-11.2c-4.9,0-7.4,3.8-7.4,11.3c0,3,0.6,5.8,1.9,8.5
			c1.5,2.9,3.2,4.4,5.4,4.4c2.1,0,3.9-1.5,5.5-4.5C619.7,86.3,620.4,83.5,620.4,80.6z"/>
		<path class="st0" d="M697.2,73.5c0,9.5-2.5,17.6-7.4,24.1c-5.2,6.9-11.7,10.3-19.8,10.3c-8.3,0-15-3.5-20.1-10.4
			c-4.8-6.5-7.2-14.5-7.2-24.1c0-10.2,2.6-18.1,7.9-23.9c5-5.4,11.4-8.2,19.5-8.2c7.9,0,14.3,2.7,19.3,8.2
			C694.5,55.4,697.2,63.4,697.2,73.5z M677.7,80.6c0-7.5-2.5-11.2-7.6-11.2c-4.9,0-7.4,3.8-7.4,11.3c0,3,0.6,5.8,1.9,8.5
			c1.5,2.9,3.2,4.4,5.4,4.4c2.1,0,3.9-1.5,5.5-4.5C677,86.3,677.7,83.5,677.7,80.6z"/>
		<path class="st0" d="M754.6,67c0,5-1.4,9.4-4.2,13.2c-2.5,3.3-5.5,5.7-9.2,7.2c0.8,1.2,2.7,3.8,5.8,7.6c1.5,1.8,3.9,4.1,7,7
			c-1.3,0.5-4.1,1.6-8.4,3.5c-3,1.4-5.9,2.7-8.5,4c-0.8-1-2.5-3.5-5.2-7.5c-1.2-2-3.1-5.5-5.5-10.4h-0.1l-0.4,14.2h-22.8
			c-0.3-5.9-0.7-15.6-1.3-29.1c-0.2-8-0.8-19-1.7-33c7.4-0.8,14.2-1.2,20.3-1.2C743.2,42.6,754.6,50.7,754.6,67z M736.2,75.7
			c0-2.6-1.1-4.4-3.2-5.5c-1.6-0.8-3.6-1.2-6-1.1L726.7,83c2.2,0,4.2-0.5,6-1.5C735,80.2,736.2,78.3,736.2,75.7z"/>
	</g>
	<g>
		<path class="st1" d="M616.6,115c-0.2,3.1-0.5,8.6-0.9,16.7c-0.2,5-0.4,10.6-0.5,16.8h-7.9l-0.2-10.3l-7.7,11.1l-8.3-11l-0.2,10.2
			H583c-0.1-3.3-0.3-9-0.6-16.9c-0.2-4.6-0.6-10.1-1.1-16.6h12.5c0.4,1.1,1.2,2.8,2.2,5.1c0.8,1.7,1.9,3.7,3.3,6
			c0.6-1,1.8-3,3.4-6.1c0.6-1.1,1.4-2.8,2.3-5H616.6z"/>
		<path class="st1" d="M645,148.5h-11.9l-0.8-2.9c-0.3,0.1-1.2,0.6-2.5,1.3c-0.9,0.6-1.8,1.3-2.9,2.2l-1.2-2.6
			c-0.2-0.5-0.6-1.3-1.1-2.2l-1.2,4.2h-6.3c0.9-3.6,2.4-9.5,4.3-17.8c1.2-5.5,2.2-10.8,3-15.7h13.1c0.4,2.3,1.5,7.6,3.3,15.9
			C641.9,135.3,643.2,141.2,645,148.5z M631.3,141.4c-0.2-0.8-0.7-2-1.3-3.8c-0.4-1-1-2.3-1.7-4c-0.3,0.8-0.9,2.2-1.6,4.1
			c-0.4,1.1-0.9,2.6-1.4,4.5c0.4,0,1.4-0.1,3-0.3C629.2,141.9,630.2,141.7,631.3,141.4z"/>
		<path class="st1" d="M672.6,115c-0.2,2.9-0.5,8.1-0.8,15.4c-0.2,5.4-0.4,11.6-0.5,18.6c-1.9-1.5-4.8-3.7-8.7-6.7
			c-1.7-1.2-4.2-2.9-7.5-5.3l-0.2,11.6h-7c-0.1-3-0.4-8.5-0.8-16.7c-0.4-6.6-0.7-12.2-1.1-16.8h10.9l8.1,7.7c0-1.8,0-3.1-0.1-4.1
			c0-0.9-0.1-2.1-0.3-3.5H672.6z"/>
		<path class="st1" d="M703.6,134.2c-0.1,1.2-0.4,3.6-0.7,7c-0.1,2-0.3,4.5-0.4,7.3c-1.9,0.6-4.8,0.9-8.5,0.9
			c-5.6,0-10.1-1.2-13.5-3.8c-4.1-3-6.1-7.4-6.1-13.3c0-5.6,1.8-10,5.4-13.2c3.4-3,7.8-4.5,13.3-4.5c2.1,0,4.3,0.2,6.7,0.5l1.2,13.8
			c-1-0.4-2.3-0.5-4.1-0.5c-2.3,0-4.3,0.7-6.1,2.1c-2,1.6-3.1,3.5-3.1,5.9c0,2.3,0.9,4,2.6,5.3c1.5,1,3.1,1.5,5,1.5l-0.3-4.4
			c-0.1-0.9-0.3-2.4-0.6-4.4H703.6z"/>
		<path class="st1" d="M733.9,131c0,5.1-1.3,9.5-4,13c-2.8,3.7-6.3,5.6-10.7,5.6c-4.5,0-8.1-1.9-10.8-5.6c-2.6-3.5-3.9-7.8-3.9-13
			c0-5.5,1.4-9.8,4.3-12.9c2.7-2.9,6.2-4.4,10.5-4.4c4.2,0,7.7,1.5,10.4,4.4C732.5,121.3,733.9,125.6,733.9,131z M723.5,134.9
			c0-4-1.4-6.1-4.1-6.1c-2.7,0-4,2-4,6.1c0,1.6,0.3,3.1,1,4.6c0.8,1.6,1.8,2.4,2.9,2.4c1.1,0,2.1-0.8,3-2.4
			C723.1,138,723.5,136.5,723.5,134.9z"/>
		<path class="st1" d="M756.4,128.7c-1.1-0.2-1.9-0.4-2.4-0.4c-0.7,0-1.3,0.2-1.9,0.7c-0.7,0.6-1,1.3-1,2.2c0,0.7,0.6,2,1.9,4
			c1.3,2,1.9,3.8,1.9,5.5c0,2.4-0.9,4.4-2.8,6c-1.8,1.5-3.9,2.2-6.5,2.2c-2.4,0-4.1-0.2-5.3-0.5c-0.1-0.7-0.4-1.8-0.7-3.3
			c-0.2-0.8-0.5-1.9-0.9-3.2c1.6,0.4,2.7,0.6,3.2,0.6c2.2,0,3.2-0.8,3.2-2.5c0-1.2-0.4-2.3-1.3-3.2c-1.4-1.3-2.8-2.5-4.3-3.8
			c-2.8-2.4-4.1-5.3-4.1-8.7c0-3.5,1.3-6.2,3.9-8c2.3-1.6,5.3-2.4,9.1-2.4c2.2,0,4.6,0.3,7.2,0.9L756.4,128.7z"/>
	</g>
</g>
</svg>
