<?xml version="1.0" encoding="utf-8"?>
<!-- Generator: Adobe Illustrator 25.2.1, SVG Export Plug-In . SVG Version: 6.00 Build 0)  -->
<svg version="1.1" id="Layer_1" xmlns="http://www.w3.org/2000/svg" xmlns:xlink="http://www.w3.org/1999/xlink" x="0px" y="0px"
	 viewBox="0 0 1900 174" style="enable-background:new 0 0 1900 174;" xml:space="preserve">
<style type="text/css">
	.st0{fill:#FFFFFF;}
</style>
<path class="st0" d="M0,48.5c40.3,12.2,102.9,27.2,180,28.8c175.6,3.6,227.4-66.6,342.5-33.8c108,30.8,111.6,106.7,201.2,110
	c97.8,3.6,110.4-85.9,218.8-108.8c163.4-34.4,247.9,145.5,396.2,103.8c101.2-28.5,107.3-125,202.5-126.2
	c76.3-1,103.6,60.7,193.8,66.2c69.8,4.3,128.4-28,165-53.8c10.8,52.1,21.7,104.2,32.5,156.2c-650,4.2-1300,8.3-1950,12.5
	c1.7-52.9,3.3-105.8,5-158.8C-8.3,46-4.2,47.2,0,48.5z"/>
</svg>
