<?xml version="1.0" encoding="utf-8"?>
<!-- Generator: Adobe Illustrator 25.2.1, SVG Export Plug-In . SVG Version: 6.00 Build 0)  -->
<svg version="1.1" id="Layer_1" xmlns="http://www.w3.org/2000/svg" xmlns:xlink="http://www.w3.org/1999/xlink" x="0px" y="0px"
	 viewBox="0 0 1900 174" style="enable-background:new 0 0 1900 174;" xml:space="preserve">
<style type="text/css">
	.st0{fill:#FFFFFF;}
</style>
<path class="st0" d="M1901.2,131c-40.3-12.2-102.9-27.2-180-28.8c-175.6-3.6-227.4,66.6-342.5,33.8c-108-30.8-111.6-106.7-201.2-110
	c-97.8-3.6-110.4,85.9-218.8,108.8C795.4,169.1,710.8-10.8,562.5,31C461.3,59.5,455.2,156,360,157.2c-76.3,1-103.6-60.7-193.8-66.3
	c-69.8-4.3-128.4,28-165,53.8C-9.6,92.7-20.4,40.6-31.2-11.5c650-4.2,1300-8.3,1950-12.5c-1.7,52.9-3.3,105.8-5,158.8
	C1909.6,133.5,1905.4,132.2,1901.2,131z"/>
</svg>
