<?xml version="1.0" encoding="utf-8"?>
<!-- Generator: Adobe Illustrator 25.2.1, SVG Export Plug-In . SVG Version: 6.00 Build 0)  -->
<svg version="1.1" id="Layer_1" xmlns="http://www.w3.org/2000/svg" xmlns:xlink="http://www.w3.org/1999/xlink" x="0px" y="0px"
	 viewBox="0 0 1900 174" style="enable-background:new 0 0 1900 174;" xml:space="preserve">
<style type="text/css">
	.st0{fill:#FFFFFF;}
</style>
<path class="st0" d="M0,6c19.1-6.2,35,38.2,87.5,56.2c59.1,20.4,88.1-19,157.5-17.5c92.1,2,100,72.6,191.2,86.2
	c89.7,13.5,120.8-49,227.5-66.2c125-20.3,142.1,67.1,265,60c135.4-7.8,149.6-104.4,270-97.5c108,6.2,134.6,86,232.5,70
	c76-12.4,82.3-64.1,150-63.8c81.2,0.5,106.7,75,182.5,75c34.5,0,81-15.5,136.2-80c4.2,8.3,8.3,16.7,12.5,25
	c-0.4,42.9-0.8,85.8-1.2,128.8C1270.8,186,630.4,189.8-10,193.5C-27.4,52.2-16.6,11.4,0,6z"/>
</svg>
