<svg xmlns="http://www.w3.org/2000/svg" version="1.1" xmlns:xlink="http://www.w3.org/1999/xlink" xmlns:svgjs="http://svgjs.com/svgjs" width="115" height="122.9"><svg version="1.1" id="SvgjsSvg1000" xmlns="http://www.w3.org/2000/svg" xmlns:xlink="http://www.w3.org/1999/xlink" x="0px" y="0px" viewBox="0 0 115 122.9" style="enable-background:new 0 0 115 122.9;" xml:space="preserve">
<style type="text/css">
	.st0{fill:#1B5109;}
</style>
<path class="st0" d="M70.9,114.8c-1.5,2.6-3.6,4.6-5.9,5.9c-2.1,1.2-4.5,1.9-6.8,2.1c-2.4,0.1-4.8-0.3-7-1.4
	c-1.5-0.7-2.9-1.8-4.1-3.1L70.9,114.8L70.9,114.8L70.9,114.8z M74.2,89.6l-0.8,3.6l-0.2,2.6l-31.2,4.6c-0.1-1.9-0.4-3.9-0.9-5.9
	L74.2,89.6L74.2,89.6L74.2,89.6z M73.2,101.5l0,1.6l0,0.5c0.1,1,0.1,2.1,0,3.1l-0.5,2.3l-28.9,4.3l-0.5-1.2l-1.1-4.6l0-1.3
	L73.2,101.5L73.2,101.5L73.2,101.5z"></path>
<path class="st0" d="M31.1,73.1c-3.5-4-7.2-8.3-10.1-14.4c-2.8-6.1-4.4-12.4-4.4-18.9c0.1-6.5,1.7-13.3,5.3-20.3c0,0,0-0.1,0.1-0.1
	l0,0C26.8,11.3,33.4,6,40.8,3C47,0.4,53.7-0.4,60.3,0.2c6.6,0.6,13,2.7,18.6,6c7.1,4.2,13,10.5,16.3,18.4c1.7,4.3,2.9,9.1,3.1,14.3
	c0.1,5.2-0.8,10.9-3.2,16.8c-3.7,9.1-12.3,18.9-18,27.9c-0.3-0.1-0.6-0.1-0.9,0l-7.6,1.1l11.6-40.3c0.3-1.1-0.3-2.3-1.5-2.7
	c-1.1-0.3-2.3,0.3-2.7,1.5L63.8,85.5l-11.5,1.7L40.2,48.5c0.9,0.2,1.8-0.2,2.3-1l8.6-14.7l4.4,10.1c0.5,1.1,1.7,1.6,2.8,1.1
	c0.5-0.2,0.9-0.7,1.1-1.2l0,0l3.9-9.8l4.6,12c0.4,1.1,1.7,1.7,2.8,1.3c1.1-0.4,1.7-1.7,1.3-2.8l-6.5-17.1c-0.2-0.6-0.6-1.1-1.3-1.4
	c-1.1-0.4-2.4,0.1-2.8,1.2l-4,10.2l-4-9.2c-0.2-0.4-0.5-0.8-0.9-1c-1-0.6-2.4-0.3-2.9,0.8L39,44.8l-0.8-2.4
	c-0.4-1.1-1.6-1.8-2.7-1.4c-1.1,0.4-1.8,1.6-1.4,2.7L48,87.8l-8.3,1.2C37.7,83.1,34.6,77.2,31.1,73.1L31.1,73.1L31.1,73.1z"></path>
</svg><style>@media (prefers-color-scheme: light) { :root { filter: none; } }
</style></svg>