<?xml version="1.0" encoding="utf-8"?>
<!-- Generator: Adobe Illustrator 25.2.1, SVG Export Plug-In . SVG Version: 6.00 Build 0)  -->
<svg version="1.1" id="Layer_1" xmlns="http://www.w3.org/2000/svg" xmlns:xlink="http://www.w3.org/1999/xlink" x="0px" y="0px"
	 viewBox="0 0 1000 1000" style="enable-background:new 0 0 1000 1000;" xml:space="preserve">
<style type="text/css">
	.st0{fill:#6D9A3F;}
	.st1{fill:#384D22;}
	.st2{fill:#FFFFFF;}
</style>
<g>
	<path class="st0" d="M845.3,316.5c-3.5-25.1-4.3-25.9-31-34.3c-4.3-1.3-38.2-11.9-85.9-26.6c-18.4-78-77-231.4-199.7-231.4
		c-16.1,0-34.6,8.6-49.6,28.4c-1.5-0.1-3-0.1-4.4-0.1c-52.7,0-82.7,44.9-99.6,93.7c-17.3-5.3-27.8-8.6-28.4-8.8
		c-2.7-0.8-7.9-1.7-12.8-1l41,839.4h0l542.8-101.7C917.6,874.1,847.9,335.5,845.3,316.5z M451,169.6c-16.8-5.2-32.3-10-45.9-14.2
		c11.6-35.6,29.7-66.4,56.8-69.9c-6.7,19.4-10.9,43.8-10.9,74.2C450.9,163.2,450.9,166.4,451,169.6z M483.2,179.6c0-1.7,0-3.4,0-5.3
		c0-36.6,4.9-63.8,12.4-82.7c29.9,12.8,64.2,46.9,82.5,117.4C545.5,198.9,513,188.9,483.2,179.6z M615.6,220.6
		c-17.8-93.1-60-139.7-99.3-158.2c5.1-3.5,10.5-5.3,15.8-5.3c88.2,0,137.7,115.8,158.5,186.8C667.1,236.6,641.6,228.7,615.6,220.6z"
		/>
	<path class="st1" d="M374.8,975.8L80.7,912.2c0,0,103.2-698,103.9-702.8c0.7-4.8,4.8-7.4,8.3-7.7c3.4-0.3,76.6-5.7,76.6-5.7
		s50.8-50.5,56.4-56c0.4-0.4,0.7-0.7,1.1-0.9c0.5-0.4,1-0.7,1.5-1c0.4-0.2,0.8-0.4,1.3-0.6c0.4-0.2,0.7-0.3,1-0.4
		c0.2-0.1,0.5-0.2,0.8-0.2c0.3-0.1,0.7-0.2,1-0.3c0.4-0.1,0.7-0.1,1-0.2c0,0,0,0,0.1,0L374.8,975.8z"/>
</g>
<g>
	<path class="st2" d="M478.8,531.2c-7,20.9-32.5,105,9.7,183.5c16,29.8,38.7,51.2,48.7,60.1c18.6,16.5,44.7,39.7,83.6,47.1
		c30.1,5.7,28.4-5.5,73.8-0.2c17.6,2.1,31.6,4.4,42.2-4.4c9.8-8.1,7.6-18.4,18.6-24.2c9.7-5.1,16.7,1.6,28.6-4.1
		c7.7-3.7,11.9-9.7,13.9-12.5c9.1-12.9,5.5-23.6,8.4-41.6c3.6-23.1,11.6-23.7,18-46.7c5.1-18.1,3.1-32.8,0.8-49.8
		C815,563.1,761.3,510,761.3,510c-52.2-51.5-116.9-63.3-151.9-64.9c-0.3,0-0.6,0-0.7,0c0.4,5.2-0.1,11.7-3.2,17.9
		c-1.5,2.8-5.3,9.2-30.9,22.7c-13.7,7.3-15,6.7-21.1,11.4c-8.1,6.1-7.2,8-17.9,17.9c-9.6,8.9-16.9,13.3-24.4,17.9
		c-9.7,5.9-13.1,6.6-16.2,6.5C487.1,539.1,481.3,533.8,478.8,531.2z"/>
	<path class="st2" d="M499.5,495.7c-2.7,3.6-16.5,22.3-11.4,28.4c3,3.6,11.1,1.3,13,0.8c20.6-5.3,20.8-24.1,43-38.2
		c12.1-7.6,15.1-4,30.9-13.8c9.7-6,25.9-14.6,24.4-20.3c-1.3-4.8-14.4-6.6-25.2-4.9c-20.4,3.3-31.5,19.3-34.1,17
		c-2.3-1.9,4.5-14.8,13.8-27.6c10.8-14.8,21.3-24.1,35.7-36.5c38.1-33,35.1-28.9,40.6-34.9c20.4-22.2,30.3-43.7,34.1-52.8
		c4.1-9.8,6.6-18.3,8.1-24.4c-15.2,41.5-36,63-52.4,75.1c-12.3,9.1-23.2,13.5-46.7,32.1c-18.6,14.7-28.1,22.3-36.9,35.3
		c-13.3,19.6-22.3,46.3-22.3,46.3c-23.3-10.7-46.6-21.4-70-32.1c1.9,19.4,8.5,27.7,14.4,31.7c4.2,2.8,7.4,3.1,16.2,6.5
		C485.8,487.7,494.2,492.4,499.5,495.7z"/>
</g>
</svg>
