<?xml version="1.0" encoding="utf-8"?>
<!-- Generator: Adobe Illustrator 25.2.1, SVG Export Plug-In . SVG Version: 6.00 Build 0)  -->
<svg version="1.1" id="Layer_1" xmlns="http://www.w3.org/2000/svg" xmlns:xlink="http://www.w3.org/1999/xlink" x="0px" y="0px"
	 viewBox="0 0 1000 1000" style="enable-background:new 0 0 1000 1000;" xml:space="preserve">
<style type="text/css">
	.st0{fill:#467A48;}
	.st1{fill:#051E1C;}
	.st2{fill:#FFFFFF;}
	.st3{fill:#9BCB41;}
	.st4{fill:#253F25;}
</style>
<g>
	<path class="st0" d="M801.3,313.4c-3.3-23.8-4.1-24.6-29.4-32.5c-4.1-1.3-36.2-11.2-81.5-25.3C673,181.6,617.3,36,500.9,36
		c-15.2,0-32.8,8.2-47.1,27c-1.4-0.1-2.8-0.1-4.2-0.1c-50,0-78.4,42.6-94.5,88.9c-16.5-5.1-26.4-8.1-27-8.3
		c-2.5-0.8-7.5-1.7-12.2-0.9l38.9,796.6h0l515.1-96.5C869.9,842.6,803.8,331.4,801.3,313.4z M427.1,174.1
		c-16-4.9-30.7-9.5-43.6-13.5c11-33.8,28.2-63,53.9-66.3c-6.4,18.4-10.4,41.6-10.4,70.4C427.1,168,427.1,171,427.1,174.1z
		 M457.7,183.5c0-1.7,0-3.3,0-5c0-34.8,4.7-60.5,11.8-78.5c28.4,12.2,60.9,44.5,78.3,111.4C516.8,201.8,486,192.3,457.7,183.5z
		 M583.3,222.4c-16.9-88.3-56.9-132.6-94.2-150.1c4.8-3.4,9.9-5.1,15-5.1c83.7,0,130.6,109.9,150.4,177.2
		C632.2,237.6,608.1,230.1,583.3,222.4z"/>
	<path class="st1" d="M354.8,939.1L75.8,878.8c0,0,98-662.4,98.6-666.9c0.6-4.5,4.6-7,7.9-7.3c3.3-0.3,72.7-5.4,72.7-5.4
		s48.2-47.9,53.5-53.2c0.3-0.3,0.7-0.7,1.1-0.9c0.5-0.4,0.9-0.7,1.4-0.9c0.4-0.2,0.8-0.4,1.2-0.6c0.3-0.2,0.7-0.3,1-0.4
		c0.2-0.1,0.5-0.2,0.7-0.2c0.3-0.1,0.6-0.2,1-0.2c0.3-0.1,0.6-0.1,1-0.2c0,0,0,0,0.1,0L354.8,939.1z"/>
</g>
<g>
	<path class="st2" d="M470.9,473.7c-6.7,20-31.2,100.7,9.3,176c15.4,28.6,37.1,49.1,46.7,57.6c17.8,15.8,42.8,38.1,80.2,45.2
		c28.9,5.5,27.2-5.3,70.8-0.2c16.9,2,30.4,4.2,40.5-4.2c9.4-7.8,7.2-17.7,17.8-23.2c9.3-4.9,16,1.6,27.5-3.9
		c7.4-3.5,11.4-9.3,13.3-12c8.7-12.4,5.3-22.7,8-39.9c3.5-22.1,11.1-22.7,17.3-44.8c4.9-17.4,3-31.5,0.8-47.8
		c-9.8-72.1-61.3-123-61.3-123c-50.1-49.4-112.1-60.7-145.7-62.3c-0.3,0-0.6,0-0.7,0c0.4,5-0.1,11.2-3.1,17.1
		c-1.4,2.7-5.1,8.8-29.6,21.8c-13.1,7-14.3,6.4-20.2,10.9c-7.7,5.8-6.9,7.7-17.1,17.1c-9.3,8.5-16.2,12.8-23.4,17.1
		c-9.3,5.6-12.6,6.3-15.6,6.2C478.9,481.3,473.3,476.2,470.9,473.7z"/>
	<path class="st2" d="M490.8,439.7c-2.6,3.4-15.8,21.4-10.9,27.3c2.9,3.4,10.7,1.2,12.5,0.8c19.7-5.1,20-23.1,41.3-36.6
		c11.6-7.3,14.5-3.9,29.6-13.2c9.3-5.8,24.8-14,23.4-19.5c-1.2-4.6-13.8-6.3-24.1-4.7c-19.6,3.2-30.2,18.5-32.7,16.4
		c-2.2-1.8,4.3-14.2,13.2-26.5c10.4-14.2,20.4-23.1,34.3-35c36.6-31.7,33.7-27.8,38.9-33.5c19.6-21.3,29.1-41.9,32.7-50.6
		c3.9-9.4,6.3-17.5,7.8-23.4c-14.6,39.8-34.5,60.5-50.2,72c-11.8,8.7-22.3,13-44.8,30.8c-17.9,14.1-27,21.4-35.4,33.9
		c-12.7,18.8-21.4,44.4-21.4,44.4c-22.4-10.3-44.7-20.5-67.1-30.8c1.8,18.6,8.2,26.6,13.8,30.4c4,2.7,7.1,3,15.6,6.2
		C477.6,432.1,485.7,436.6,490.8,439.7z"/>
</g>
<g>
	<path class="st3" d="M909.3,562.9c-2.1-14.9-2.6-15.4-18.4-20.3c-2.6-0.8-22.6-7-50.9-15.8c-10.9-46.2-45.7-137.2-118.4-137.2
		c-9.5,0-20.5,5.1-29.4,16.8c-0.9,0-1.8-0.1-2.6-0.1c-31.2,0-49,26.6-59.1,55.5c-10.3-3.2-16.5-5.1-16.8-5.2c-1.6-0.5-4.7-1-7.6-0.6
		l24.3,497.6h0l321.7-60.3C952.2,893.4,910.9,574.1,909.3,562.9z M675.6,475.8c-10-3.1-19.2-5.9-27.2-8.4
		C655.2,446.3,666,428,682,426c-4,11.5-6.5,26-6.5,44C675.6,472,675.6,473.9,675.6,475.8z M694.7,481.7c0-1,0-2,0-3.1
		c0-21.7,2.9-37.8,7.4-49c17.8,7.6,38,27.8,48.9,69.6C731.6,493.1,712.3,487.2,694.7,481.7z M773.2,506
		c-10.5-55.2-35.5-82.8-58.8-93.8c3-2.1,6.2-3.2,9.3-3.2c52.3,0,81.6,68.6,94,110.7C803.7,515.5,788.6,510.8,773.2,506z"/>
	<path class="st4" d="M630.4,953.7L456.1,916c0,0,61.2-413.7,61.6-416.6c0.4-2.8,2.9-4.4,4.9-4.6c2-0.2,45.4-3.4,45.4-3.4
		s30.1-29.9,33.4-33.2c0.2-0.2,0.4-0.4,0.7-0.6c0.3-0.2,0.6-0.4,0.9-0.6c0.2-0.1,0.5-0.2,0.8-0.3c0.2-0.1,0.4-0.2,0.6-0.2
		c0.2-0.1,0.3-0.1,0.5-0.1c0.2-0.1,0.4-0.1,0.6-0.2c0.2,0,0.4-0.1,0.6-0.1c0,0,0,0,0,0L630.4,953.7z"/>
</g>
<g>
	<path class="st2" d="M678.4,687.8c-4.8,14.3-22.3,72,6.7,125.9c11,20.4,26.6,35.1,33.4,41.2c12.8,11.3,30.6,27.2,57.4,32.3
		c20.7,3.9,19.5-3.8,50.7-0.1c12.1,1.4,21.7,3,29-3c6.7-5.6,5.2-12.6,12.7-16.6c6.7-3.5,11.4,1.1,19.6-2.8c5.3-2.5,8.2-6.6,9.5-8.6
		c6.2-8.9,3.8-16.2,5.7-28.5c2.5-15.8,8-16.2,12.4-32c3.5-12.4,2.1-22.5,0.5-34.2c-7-51.6-43.8-88-43.8-88
		c-35.8-35.3-80.2-43.4-104.2-44.5c-0.2,0-0.4,0-0.5,0c0.3,3.6,0,8-2.2,12.3c-1,1.9-3.6,6.3-21.2,15.6c-9.4,5-10.3,4.6-14.5,7.8
		c-5.5,4.2-4.9,5.5-12.3,12.3c-6.6,6.1-11.6,9.2-16.7,12.3c-6.7,4-9,4.5-11.1,4.5C684.1,693.2,680.1,689.6,678.4,687.8z"/>
	<path class="st2" d="M692.6,663.5c-1.8,2.5-11.3,15.3-7.8,19.5c2,2.5,7.6,0.9,8.9,0.6c14.1-3.6,14.3-16.5,29.5-26.2
		c8.3-5.2,10.3-2.8,21.2-9.5c6.7-4.1,17.7-10,16.7-13.9c-0.9-3.3-9.9-4.5-17.3-3.3c-14,2.3-21.6,13.2-23.4,11.7
		c-1.5-1.3,3.1-10.2,9.5-18.9c7.4-10.1,14.6-16.5,24.5-25.1c26.2-22.6,24.1-19.8,27.9-24c14-15.3,20.8-29.9,23.4-36.2
		c2.8-6.7,4.5-12.5,5.6-16.7c-10.5,28.5-24.7,43.3-35.9,51.5c-8.4,6.2-15.9,9.3-32,22c-12.8,10.1-19.3,15.3-25.3,24.2
		c-9.1,13.4-15.3,31.7-15.3,31.7c-16-7.3-32-14.7-48-22c1.3,13.3,5.9,19,9.8,21.7c2.9,1.9,5.1,2.2,11.1,4.5
		C683.2,658,689,661.2,692.6,663.5z"/>
</g>
</svg>
