<?xml version="1.0" encoding="utf-8"?>
<!-- Generator: Adobe Illustrator 25.2.1, SVG Export Plug-In . SVG Version: 6.00 Build 0)  -->
<svg version="1.1" xmlns="http://www.w3.org/2000/svg" xmlns:xlink="http://www.w3.org/1999/xlink" x="0px" y="0px"
	 viewBox="0 0 1000 1000" style="enable-background:new 0 0 1000 1000;" xml:space="preserve">
<style type="text/css">
	.st0{fill:#F0FF42;}
	.st1{fill:#82CD47;}
	.st2{fill:#54B435;}
	.st3{fill:#379237;}
	.st4{fill:#0A300A;}
	.st5{fill:#FFFFFF;}
</style>
<g id="Layer_1">
	<rect x="-206" y="149.7" class="st0" width="53.4" height="53.4"/>
	<rect x="-206" y="214.3" class="st1" width="53.4" height="53.4"/>
	<rect x="-206" y="278.9" class="st2" width="53.4" height="53.4"/>
	<rect x="-206" y="343.4" class="st3" width="53.4" height="53.4"/>
	<rect x="-206" y="407.9" class="st4" width="53.4" height="53.4"/>
</g>
<g id="Layer_2">
	<path class="st5" d="M879.1,317.8c18,48.4,17.7,93.8,2.1,132.6c-0.1,0.4-0.2,0.8-0.3,1.2l-2.6,8l-28.1,87.1l-94.8,293.5
		c-3.7,11.5-25.1,11.5-37.3,0l-90-84.3L303.1,451.6c-0.4-0.4-0.8-0.8-1.2-1.2c-44.5-38.8-78.7-84.2-96.7-132.6
		C172.6,230.4,200,153,268.7,106c43.8-30,104.4-47.6,176.9-47.6c67.9,0,136.9,15.5,199.7,42.1c0.2,0.1,0.3,0.1,0.5,0.2l-54.5,53.6
		l-7.2,7.1c-34.5-11.5-70.9-17.9-106.9-17.9c-26.3,0-50.3,3.5-71.4,9.8c-30.2,9.1-54.6,24.1-71.6,43.4
		c-27.8,31.3-36.1,74.1-18.5,121.2c17.5,47.1,57.7,89.8,108.8,121.2c12.3,7.6,25.2,14.5,38.7,20.6c44.8,20.5,94.8,32.6,144,32.6
		c1.7,0,3.4,0,5,0c47-0.8,86.2-12.7,114.7-32.5c1.5-1,2.9-2.1,4.3-3.1c42.3-31.9,58.6-82.1,37.5-138.7
		c-6.9-18.4-17.2-36.2-30.3-52.8c-7.9-10-16.8-19.7-26.5-28.9l-1.6,1.6l-5.5,5.5l-41.2,40.5l-13.9,13.6L638,308.7
		c1.5,2.8,2.7,5.6,3.8,8.4c0.1,0.2,0.1,0.3,0.2,0.5c4,10.7,5,20.9,3.3,30.2c-0.5,2.6-1.2,5.2-2.1,7.7c-8.4,23.4-35.2,39.2-72.6,39.2
		c-53.5,0-109.3-32.3-127.2-73c-0.6-1.4-1.2-2.7-1.7-4.1c-3-8.2-4.3-16.1-4-23.5c0.1-2.9,0.5-5.7,1-8.4
		c5.8-26.7,33.8-45.2,74.4-45.2c9.6,0,19.3,1,28.8,3l71.9-70.7l60.1-59.1c30.9,15.2,59.8,33.1,86,53.2c0,0,0.1,0.1,0.1,0.1
		c1.4,1.1,2.8,2.2,4.2,3.3c2.7,2.1,5.4,4.3,8.1,6.5c6.7,5.5,13.1,11.1,19.3,16.8C831.6,230.4,862.3,272.8,879.1,317.8z"/>
	<path class="st5" d="M640,803.7l98,90.1l-12.7,38.5c-4.1,12.4-27.5,12.4-41,0l-98.9-90.9L228.7,513.6c-0.4-0.4-0.9-0.8-1.3-1.2
		c-48.9-41.8-86.4-90.7-106.2-142.9c-35.8-94.2-5.7-177.5,69.7-228.2c8.3-5.6,17.1-10.7,26.4-15.5c-54.2,51.1-72.5,124.4-41.6,205.9
		c19.8,52.2,57.3,101.1,106.2,142.9c0.4,0.4,0.8,0.8,1.3,1.2L640,803.7z"/>
</g>
<g id="Layer_3">
</g>
</svg>
