<?xml version="1.0" encoding="utf-8"?>
<!-- Generator: Adobe Illustrator 25.2.1, SVG Export Plug-In . SVG Version: 6.00 Build 0)  -->
<svg version="1.1" xmlns="http://www.w3.org/2000/svg" xmlns:xlink="http://www.w3.org/1999/xlink" x="0px" y="0px"
	 viewBox="0 0 1000 1000" style="enable-background:new 0 0 1000 1000;" xml:space="preserve">
<style type="text/css">
	.st0{fill:#F0FF42;}
	.st1{fill:#82CD47;}
	.st2{fill:#54B435;}
	.st3{fill:#379237;}
</style>
<g id="Layer_1">
	<rect x="-206" y="149.7" class="st0" width="53.4" height="53.4"/>
	<rect x="-206" y="214.3" class="st1" width="53.4" height="53.4"/>
	<rect x="-206" y="278.9" class="st2" width="53.4" height="53.4"/>
	<rect x="-206" y="343.4" class="st3" width="53.4" height="53.4"/>
</g>
<g id="Layer_2">
	<path class="st2" d="M810.3,318.9c0,55.6-15.3,107.6-41.8,152.2c-0.2,0.4-0.4,0.9-0.6,1.3l-4.9,9.2L529.1,918.3
		c-7.1,13.2-25.9,13.2-33,0L257.5,472.4c-0.2-0.4-0.4-0.9-0.6-1.3c-26.6-44.5-41.8-96.6-41.8-152.2c0-164.3,133.2-297.6,297.6-297.6
		c60,0,115.8,17.8,162.6,48.3c0.1,0.1,0.3,0.2,0.4,0.3l-65.7,61.5l-8.7,8.1c-26.7-13.2-56.7-20.6-88.5-20.6
		c-56.5,0-107.5,23.4-143.8,61c-34.8,36-56.2,85-56.2,139S334,422,368.8,458c8.4,8.7,17.5,16.6,27.4,23.6
		c32.8,23.5,73,37.4,116.5,37.4c43.5,0,83.7-13.8,116.5-37.4c50.6-36.3,83.6-95.7,83.6-162.7c0-33.9-8.4-65.8-23.3-93.7l-89.1,83.3
		c0.4,3.3,0.6,6.7,0.6,10.2c0,48.9-39.6,88.5-88.4,88.5c-48.9,0-88.5-39.6-88.5-88.5c0-48.8,39.6-88.4,88.5-88.4
		c8.5,0,16.7,1.2,24.4,3.4l86.8-81.1l72.5-67.8c22.2,17.4,41.9,38,58.4,61c0,0,0.1,0.1,0.1,0.1c0.9,1.2,1.8,2.5,2.6,3.7
		c1.7,2.4,3.4,4.9,5,7.4C792.7,203.6,810.3,259.2,810.3,318.9z"/>
	<ellipse class="st1" cx="512.7" cy="968.4" rx="137.5" ry="23.7"/>
</g>
<g id="Layer_3">
</g>
</svg>
