<?xml version="1.0" encoding="utf-8"?>
<!-- Generator: Adobe Illustrator 25.2.1, SVG Export Plug-In . SVG Version: 6.00 Build 0)  -->
<svg version="1.1" xmlns="http://www.w3.org/2000/svg" xmlns:xlink="http://www.w3.org/1999/xlink" x="0px" y="0px"
	 viewBox="0 0 1000 1000" style="enable-background:new 0 0 1000 1000;" xml:space="preserve">
<style type="text/css">
	.st0{fill:#F0FF42;}
	.st1{fill:#82CD47;}
	.st2{fill:#54B435;}
	.st3{fill:#379237;}
	.st4{fill:#FFFFFF;}
</style>
<g id="Layer_1">
	<rect x="-206" y="149.7" class="st0" width="53.4" height="53.4"/>
	<rect x="-206" y="214.3" class="st1" width="53.4" height="53.4"/>
	<rect x="-206" y="278.9" class="st2" width="53.4" height="53.4"/>
	<rect x="-206" y="343.4" class="st3" width="53.4" height="53.4"/>
</g>
<g id="Layer_2">
	<path class="st4" d="M759.1,303.4c15.1,52.5,14.7,101.7,1.7,143.7c-0.1,0.4-0.1,0.8-0.2,1.2l-2.2,8.7L735,551.4l-79,318
		c-3.1,12.4-20.9,12.4-31.1,0L549.7,778l-271-329.7c-0.3-0.4-0.7-0.8-1-1.2c-37.1-42-65.6-91.2-80.7-143.7
		c-27.2-94.7-4.3-178.6,52.9-229.5c36.5-32.5,87.1-51.6,147.5-51.6c56.7,0,114.2,16.8,166.6,45.6c0.1,0.1,0.3,0.2,0.4,0.2l-45.4,58
		l-6,7.7c-28.8-12.5-59.1-19.4-89.1-19.4c-21.9,0-41.9,3.7-59.5,10.6c-25.2,9.8-45.5,26.1-59.8,47c-23.2,34-30.1,80.3-15.5,131.3
		s48.1,97.3,90.8,131.3c10.3,8.2,21.1,15.7,32.3,22.3c37.4,22.2,79.1,35.3,120.1,35.3c1.4,0,2.8,0,4.2,0
		c39.2-0.9,71.9-13.8,95.7-35.3c1.2-1.1,2.4-2.2,3.6-3.4c35.3-34.5,48.9-89,31.3-150.3c-5.7-19.9-14.3-39.2-25.3-57.2
		c-6.6-10.9-14-21.4-22.1-31.3l-1.4,1.7l-4.6,5.9l-34.4,43.9l-11.6,14.8l-9.6,12.3c1.2,3,2.3,6,3.2,9.1c0.1,0.2,0.1,0.3,0.2,0.5
		c3.3,11.6,4.1,22.6,2.7,32.7c-0.4,2.9-1,5.7-1.7,8.3c-7,25.4-29.4,42.5-60.6,42.5c-44.6,0-91.1-35-106.1-79.1
		c-0.5-1.5-1-2.9-1.4-4.4c-2.5-8.9-3.6-17.4-3.3-25.4c0.1-3.1,0.4-6.1,0.9-9.1c4.8-28.9,28.2-49,62-49c8,0,16.1,1.1,24,3.2l60-76.6
		L588,82.1c25.7,16.5,49.9,35.9,71.7,57.6c0,0,0.1,0.1,0.1,0.1c1.2,1.2,2.4,2.4,3.5,3.5c2.3,2.3,4.5,4.6,6.7,7
		c5.6,5.9,10.9,12,16.1,18.2C719.6,208.7,745.2,254.6,759.1,303.4z"/>
	<path class="st4" d="M559.7,829.9l81.8,97.6l-10.6,41.8c-3.4,13.4-23,13.4-34.2,0l-82.5-98.4L216.7,515.5c-0.4-0.4-0.7-0.9-1.1-1.3
		c-40.8-45.3-72.1-98.3-88.6-154.8c-29.8-102.1-4.7-192.4,58.1-247.2c6.9-6,14.2-11.6,22-16.7c-45.2,55.4-60.5,134.8-34.7,223.1
		C189,375,220.3,428,261,473.3c0.3,0.5,0.7,0.9,1.1,1.3L559.7,829.9z"/>
</g>
<g id="Layer_3">
</g>
</svg>
