<?xml version="1.0" encoding="utf-8"?>
<!-- Generator: Adobe Illustrator 25.2.1, SVG Export Plug-In . SVG Version: 6.00 Build 0)  -->
<svg version="1.1" xmlns="http://www.w3.org/2000/svg" xmlns:xlink="http://www.w3.org/1999/xlink" x="0px" y="0px"
	 viewBox="0 0 1000 1000" style="enable-background:new 0 0 1000 1000;" xml:space="preserve">
<style type="text/css">
	.st0{fill:#F0FF42;}
	.st1{fill:#82CD47;}
	.st2{fill:#54B435;}
	.st3{fill:#379237;}
	.st4{fill:#FFFFFF;}
</style>
<g id="Layer_1">
	<rect x="-206" y="149.7" class="st0" width="53.4" height="53.4"/>
	<rect x="-206" y="214.3" class="st1" width="53.4" height="53.4"/>
	<rect x="-206" y="278.9" class="st2" width="53.4" height="53.4"/>
	<rect x="-206" y="343.4" class="st3" width="53.4" height="53.4"/>
</g>
<g id="Layer_2">
	<path class="st4" d="M773.9,215.3c-35.7,20.8-50.2,57.4-70.5,82c-3.7-11.5-8.3-22.6-14-33.1l-2,1.8l-6.7,6.3L631,318.8l-16.7,15.6
		l-14,13c0.4,3.2,0.6,6.4,0.6,9.6c-53.7-1.6-120.3-32.3-169-36c13.9-30.6,44.8-51.9,80.6-51.9c8.5,0,16.7,1.2,24.4,3.4l86.8-81.1
		l72.5-67.8c22.2,17.5,41.9,38,58.4,61c0,0,0.1,0.1,0.1,0.1c0.9,1.2,1.8,2.5,2.6,3.7c1.7,2.5,3.4,4.9,5,7.4
		C766.5,202.2,770.3,208.7,773.9,215.3z"/>
	<path class="st4" d="M600.9,357.6c0,12.3-2.5,24-7,34.6c-1.3,3-2.8,6-4.4,8.8c-15.2,26.9-44,45-77,45c-47.3,0-85.9-37.1-88.3-83.8
		c-0.1-1.5-0.1-3.1-0.1-4.7c0-9.4,1.5-18.4,4.2-26.9c1-3.3,2.3-6.5,3.7-9.6c48.7,3.7,115.3,34.4,169,36
		C600.9,357.3,600.9,357.4,600.9,357.6z"/>
	<path class="st4" d="M810.3,357.9c0,55.6-15.3,107.6-41.8,152.2c-0.2,0.5-0.4,0.9-0.6,1.3l-4.9,9.2l-53.5,99.9L529.1,957.3
		c-7.1,13.2-25.9,13.2-33,0l-51.8-96.8L257.5,511.4c-0.2-0.4-0.5-0.9-0.6-1.3c-26.6-44.5-41.8-96.6-41.8-152.2
		c0-100.3,49.7-189.1,125.7-243c48.6-34.4,107.9-54.6,171.9-54.6c60,0,115.8,17.8,162.6,48.3c0.1,0.1,0.3,0.2,0.4,0.3l-65.7,61.5
		l-8.7,8.1c-26.7-13.2-56.7-20.6-88.5-20.6c-23.2,0-45.5,4-66.3,11.2c-29.7,10.4-56.2,27.6-77.5,49.8c-34.8,36-56.2,85-56.2,139
		c0,54,21.4,103.1,56.2,139.1c8.4,8.7,17.5,16.6,27.4,23.6c32.8,23.5,73,37.4,116.4,37.4c1.5,0,3,0,4.5,0
		c41.8-0.9,80.3-14.6,112-37.3c1.6-1.2,3.2-2.4,4.8-3.6c47.9-36.6,78.8-94.2,78.8-159.1c0-21.1-3.3-41.5-9.4-60.6
		c20.3-24.7,34.9-61.2,70.5-82C797.1,257.6,810.3,306.2,810.3,357.9z"/>
	<path class="st4" d="M444.4,860.5L257.5,511.4c-0.2-0.4-0.5-0.9-0.6-1.3c-26.6-44.5-41.8-96.6-41.8-152.2
		c0-100.3,49.7-189.1,125.7-243c44.5,7.8,86,28.7,105.6,54.2c-29.7,10.4-56.2,27.6-77.5,49.8c-34.8,36-56.2,85-56.2,139
		c0,54,21.4,103.1,56.2,139.1c8.4,8.7,17.5,16.6,27.4,23.6c32.8,23.5,73,37.4,116.4,37.4c1.5,0,3,0,4.5,0
		C526,658.1,451.2,754.5,444.4,860.5z"/>
	<path class="st4" d="M810.3,357.9c0,55.6-15.3,107.6-41.8,152.2c-0.2,0.5-0.4,0.9-0.6,1.3l-4.9,9.2l-53.5,99.9
		c-37.2-21.9-68.2-64.5-75.5-103.5c47.9-36.6,78.8-94.2,78.8-159.1c0-21.1-3.3-41.5-9.4-60.6c20.3-24.7,34.9-61.2,70.5-82
		C797.1,257.6,810.3,306.2,810.3,357.9z"/>
	<path class="st4" d="M589.5,401.1c-15.2,26.9-44,45-77,45c-47.3,0-85.9-37.1-88.3-83.8c-0.1-1.5-0.1-3.1-0.1-4.7
		c0-9.4,1.5-18.4,4.2-26.9C480.7,340.3,529.7,396,589.5,401.1z"/>
</g>
<g id="Layer_3">
</g>
</svg>
