<?xml version="1.0" encoding="utf-8"?>
<!-- Generator: Adobe Illustrator 25.2.1, SVG Export Plug-In . SVG Version: 6.00 Build 0)  -->
<svg version="1.1" id="Layer_1" xmlns="http://www.w3.org/2000/svg" xmlns:xlink="http://www.w3.org/1999/xlink" x="0px" y="0px"
	 viewBox="0 0 115 122.9" style="enable-background:new 0 0 115 122.9;" xml:space="preserve">
<style type="text/css">
	.st0{fill:#143A06;}
	.st1{fill:#FEBD2C;}
</style>
<path class="st0" d="M69.3,113.8c-1.3,2.3-3.2,4-5.2,5.2c-1.8,1.1-4,1.7-6,1.8c-2.1,0.1-4.2-0.3-6.1-1.2c-1.3-0.6-2.5-1.6-3.6-2.7
	L69.3,113.8L69.3,113.8L69.3,113.8z M72.2,91.7l-0.7,3.2l-0.2,2.3l-27.4,4c-0.1-1.7-0.4-3.4-0.8-5.2L72.2,91.7L72.2,91.7L72.2,91.7z
	 M71.3,102.1v1.4v0.4c0.1,0.9,0.1,1.8,0,2.7l-0.4,2l-25.4,3.8l-0.4-1.1l-1-4v-1.1L71.3,102.1L71.3,102.1L71.3,102.1z"/>
<circle class="st0" cx="56.9" cy="45.7" r="44.7"/>
<path class="st1" d="M93.4,47.1c0.1,4.6-0.7,9.6-2.8,14.8c-2.9,7.1-9.2,14.7-14.1,21.9c-2.9,1.4-5.9,2.4-9.1,3.2l10-34.9
	c0.3-1-0.3-2-1.3-2.4c-1-0.3-2,0.3-2.4,1.3L63.2,87.7c-1.9,0.2-3.8,0.4-5.7,0.4c-1.7,0-3.4-0.1-5.1-0.3L42.3,55.6
	c0.8,0.2,1.6-0.2,2-0.9l7.5-12.9l3.9,8.9c0.4,1,1.5,1.4,2.5,1c0.4-0.2,0.8-0.6,1-1.1l3.4-8.6l4,10.5c0.4,1,1.5,1.5,2.5,1.1
	c1-0.4,1.5-1.5,1.1-2.5l-5.7-15c-0.2-0.5-0.5-1-1.1-1.2c-1-0.3-2.1,0.1-2.5,1.1l-3.5,8.9l-3.5-8.1c-0.2-0.3-0.4-0.7-0.8-0.9
	c-0.9-0.5-2.1-0.3-2.6,0.7l-9.3,15.6l-0.7-2.1c-0.4-1-1.4-1.6-2.4-1.2c-1,0.3-1.6,1.4-1.2,2.4l11.2,35.7c-3.3-0.7-6.5-1.8-9.4-3.2
	c-1.3-2.5-2.8-4.8-4.5-6.7c-3.1-3.5-6.3-7.3-8.9-12.7c-2.5-5.3-3.9-10.9-3.9-16.6c0.1-5.7,1.5-11.7,4.7-17.8c0,0,0-0.1,0.1-0.1
	c2.1-3.6,4.6-6.5,7.4-8.9c2.8-2.4,5.9-4.2,9.1-5.5c5.4-2.3,11.3-3,17.1-2.5c5.8,0.5,11.4,2.4,16.3,5.3c6.2,3.7,11.4,9.2,14.3,16.2
	C92.1,38.4,93.2,42.6,93.4,47.1z"/>
<g>
	<path class="st1" d="M17.5,43.4c0.1-5.1,1.3-10.2,3.4-14.9c2.1-4.7,5.1-9,8.8-12.6C37.1,8.7,47.4,4.6,57.7,4.7
		c10.4,0.1,20.5,4.6,27.7,12c3.6,3.7,6.5,8.1,8.5,12.8c1.9,4.8,3,9.9,3,15c-0.4-10.2-4.7-20.1-12-27.3c-3.6-3.5-7.8-6.5-12.5-8.4
		c-4.6-2-9.7-3.1-14.7-3.1c-5-0.1-10.1,0.8-14.8,2.7c-4.7,1.8-9,4.6-12.7,8.1C22.8,23.3,18.1,33.2,17.5,43.4z"/>
</g>
</svg>
