<?xml version="1.0" encoding="utf-8"?>
<!-- Generator: Adobe Illustrator 25.2.1, SVG Export Plug-In . SVG Version: 6.00 Build 0)  -->
<svg version="1.1" id="Layer_1" xmlns="http://www.w3.org/2000/svg" xmlns:xlink="http://www.w3.org/1999/xlink" x="0px" y="0px"
	 viewBox="0 0 1000 800" style="enable-background:new 0 0 1000 800;" xml:space="preserve">
<style type="text/css">
	.st0{fill:#256E37;}
	.st1{fill:#FFFFFF;}
	.st2{opacity:0.44;fill:#FFFFFF;}
	.st3{fill:#C5C9C3;}
	.st4{fill:#1B5128;}
</style>
<image style="overflow:visible;" width="3000" height="1800" xlink:href="../../GreenZoneMedia/assets/images/responsive-mockup.png"  transform="matrix(0.2789 0 0 0.2789 79.7608 279.986)">
</image>
<g>
	<polygon class="st0" points="238.7,56.6 285,56.6 332.3,56.6 760.7,56.6 915.3,259.9 235,259.9 157.7,259.9 83.1,259.9 	"/>
	<polygon class="st1" points="285,56.6 157.7,259.9 235,259.9 332.3,56.6 	"/>
	<polygon class="st1" points="381.4,56.6 308.7,259.9 385.1,259.9 426.9,56.6 	"/>
	<polygon class="st1" points="475.1,56.6 461.5,259.9 536,259.9 522.4,56.6 	"/>
	<polygon class="st1" points="571.5,56.6 613.4,259.9 690.7,259.9 617.9,56.6 	"/>
	<polygon class="st1" points="665.2,56.6 765.2,259.9 838.9,259.9 712.5,56.6 	"/>
	<polygon class="st2" points="234.3,62.3 765,62.3 760.7,56.6 238.7,56.6 	"/>
	<path class="st3" d="M739.6,31H260.7c-12.2,0-22,9.9-22,22v3.6h522.9V53C761.6,40.9,751.7,31,739.6,31z"/>
	<path class="st4" d="M127.7,331.4h-14.6c-16.6,0-30-13.4-30-30v-41.5h74.6v41.5C157.7,318,144.3,331.4,127.7,331.4z"/>
	<path class="st3" d="M203.5,331.4h-14.6c-16.6,0-30-13.4-30-30v-41.5h74.6v41.5C233.5,318,220,331.4,203.5,331.4z"/>
	<path class="st4" d="M280.4,331.4h-14.6c-16.6,0-30-13.4-30-30v-41.5h74.6v41.5C310.4,318,296.9,331.4,280.4,331.4z"/>
	<path class="st3" d="M354.4,331.4h-14.6c-16.6,0-30-13.4-30-30v-41.5h74.6v41.5C384.4,318,370.9,331.4,354.4,331.4z"/>
	<path class="st4" d="M430.3,331.4h-14.6c-16.6,0-30-13.4-30-30v-41.5h74.6v41.5C460.3,318,446.9,331.4,430.3,331.4z"/>
	<path class="st3" d="M506.3,331.4h-14.6c-16.6,0-30-13.4-30-30v-41.5h74.6v41.5C536.3,318,522.8,331.4,506.3,331.4z"/>
	<path class="st4" d="M582,331.4h-14.6c-16.6,0-30-13.4-30-30v-41.5H612v41.5C612,318,598.6,331.4,582,331.4z"/>
	<path class="st3" d="M658.3,331.4h-14.6c-16.6,0-30-13.4-30-30v-41.5h74.6v41.5C688.3,318,674.9,331.4,658.3,331.4z"/>
	<path class="st4" d="M735.2,331.4h-14.6c-16.6,0-30-13.4-30-30v-41.5h74.6v41.5C765.2,318,751.8,331.4,735.2,331.4z"/>
	<path class="st3" d="M809.3,331.4h-14.6c-16.6,0-30-13.4-30-30v-41.5h74.6v41.5C839.3,318,825.9,331.4,809.3,331.4z"/>
	<path class="st4" d="M885,331.4h-16.1c-16.6,0-30-13.4-30-30v-41.5H915v41.5C915,318,901.6,331.4,885,331.4z"/>
</g>
</svg>
