<?xml version="1.0" encoding="utf-8"?>
<!-- Generator: Adobe Illustrator 25.2.1, SVG Export Plug-In . SVG Version: 6.00 Build 0)  -->
<svg version="1.1" id="Layer_1" xmlns="http://www.w3.org/2000/svg" xmlns:xlink="http://www.w3.org/1999/xlink" x="0px" y="0px"
	 viewBox="0 0 300 100" style="enable-background:new 0 0 300 100;" xml:space="preserve">
<style type="text/css">
	.st0{fill:#E35126;}
	.st1{fill:#EF672B;}
	.st2{fill:#FFFFFF;}
	.st3{opacity:0.99;fill:#1E74BB;}
	.st4{opacity:0.99;fill:#1E88C7;}
	.st5{opacity:0.99;fill:#FFFFFF;}
	.st6{opacity:0.99;fill:#E8C92F;}
	.st7{opacity:0.99;fill:#FEDE21;}
	.st8{opacity:0.99;}
</style>
<path class="st0" d="M39.7,83.9l-5.9-72.6l70.9,0.1l-6.3,72.4l-28.9,8.4L39.7,83.9z"/>
<path class="st1" d="M69.4,85.2v-67l29.2,0.1l-5.2,59.9L69.4,85.2z"/>
<path class="st2" d="M90.6,35l0.8-8.9H46.5L49,53.3h31l-1.2,11.6l-9.9,2.7l-10.1-2.9l-0.5-6.9h-8.9l1.2,14.1l18.3,5.1l18.4-5.1
	l2.5-27.5H57.2L56.3,35H90.6z"/>
<path class="st3" d="M120,83.8l-5.9-72.4l70.8,0.1l-6.3,72.3l-28.8,8.4L120,83.8z"/>
<path class="st4" d="M149.8,85.2V18.3l29.1,0.1l-5.2,59.8L149.8,85.2z"/>
<path class="st5" d="M171.7,26.9h-44.8l1.2,8.7h21.3l-20.9,9l1.2,8.4h30.8l-1.1,11.8l-10.4,2l-9.5-2.4l-0.7-6.7H130l1.2,13.9
	l18.6,5.2l17.9-5.7l2.3-27.2h-18.9l20.6-8.5L171.7,26.9z"/>
<path class="st6" d="M200.6,83.9l-5.9-72.4l70.8,0.1l-6.3,72.3l-28.8,8.4L200.6,83.9z"/>
<path class="st7" d="M230.3,85.2V18.4l29.1,0.1l-5.2,59.8L230.3,85.2z"/>
<g class="st8">
	<path class="st2" d="M227.2,26.3h-7.7v44.5l-6-1.1v-6l-7.1-1.1V76l20.8,5.4V26.3z M232.9,26.3h21.3l-1.4,8.5h-11.8v14h11.8
		l-1.4,28.3l-18.5,4.3v-8.8l12.5-4.3l0.7-11.7l-13.2,1.9V26.3z"/>
</g>
</svg>
