<?xml version="1.0" encoding="utf-8"?>
<!-- Generator: Adobe Illustrator 25.2.1, SVG Export Plug-In . SVG Version: 6.00 Build 0)  -->
<svg version="1.1" id="Layer_1" xmlns="http://www.w3.org/2000/svg" xmlns:xlink="http://www.w3.org/1999/xlink" x="0px" y="0px"
	 viewBox="0 0 500 100" style="enable-background:new 0 0 500 100;" xml:space="preserve">
<style type="text/css">
	.st0{fill-rule:evenodd;clip-rule:evenodd;fill:#8993BE;}
	.st1{fill-rule:evenodd;clip-rule:evenodd;fill:#232532;}
	.st2{fill-rule:evenodd;clip-rule:evenodd;fill:#FFFFFF;}
	.st3{fill-rule:evenodd;clip-rule:evenodd;fill:#F6D432;}
	.st4{fill-rule:evenodd;clip-rule:evenodd;fill:#010101;}
	.st5{fill:#DCDDDE;}
	.st6{fill:#231F20;}
	.st7{fill:url(#SVGID_1_);}
	.st8{fill:url(#SVGID_2_);}
	.st9{fill:url(#SVGID_3_);}
	.st10{fill:url(#SVGID_4_);}
	.st11{fill:url(#SVGID_5_);}
	.st12{fill:url(#SVGID_6_);}
	.st13{fill:url(#SVGID_7_);}
	.st14{fill:url(#SVGID_8_);}
	.st15{fill:url(#SVGID_9_);}
	.st16{fill:url(#SVGID_10_);}
	.st17{fill:url(#SVGID_11_);}
	.st18{fill:url(#SVGID_12_);}
	.st19{fill:url(#SVGID_13_);}
	.st20{fill:url(#SVGID_14_);}
	.st21{fill:url(#SVGID_15_);}
	.st22{fill:url(#SVGID_16_);}
	.st23{fill:url(#SVGID_17_);}
	.st24{fill:url(#SVGID_18_);}
	.st25{fill:url(#SVGID_19_);}
	.st26{fill:url(#SVGID_20_);}
	.st27{fill:url(#SVGID_21_);}
	.st28{fill:url(#SVGID_22_);}
	.st29{fill:url(#SVGID_23_);}
	.st30{fill:url(#SVGID_24_);}
	.st31{fill:url(#SVGID_25_);}
	.st32{fill:url(#SVGID_26_);}
	.st33{fill:url(#SVGID_27_);}
	.st34{fill:url(#SVGID_28_);}
	.st35{fill:url(#SVGID_29_);}
	.st36{fill:url(#SVGID_30_);}
	.st37{fill:url(#SVGID_31_);}
	.st38{fill:url(#SVGID_32_);}
	.st39{fill:url(#SVGID_33_);}
	.st40{fill:url(#SVGID_34_);}
	.st41{fill:url(#SVGID_35_);}
	.st42{fill:url(#SVGID_36_);}
	.st43{fill:url(#SVGID_37_);}
	.st44{fill:url(#SVGID_38_);}
	.st45{fill:url(#SVGID_39_);}
	.st46{fill:url(#SVGID_40_);}
	.st47{fill:url(#SVGID_41_);}
	.st48{fill:url(#SVGID_42_);}
	.st49{fill:url(#SVGID_43_);}
	.st50{fill:url(#SVGID_44_);}
	.st51{fill:url(#SVGID_45_);}
	.st52{fill:url(#SVGID_46_);}
	.st53{fill:url(#SVGID_47_);}
	.st54{fill:url(#SVGID_48_);}
	.st55{fill:url(#SVGID_49_);}
	.st56{fill:url(#SVGID_50_);}
	.st57{fill:url(#SVGID_51_);}
	.st58{fill:url(#SVGID_52_);}
	.st59{fill:url(#SVGID_53_);}
	.st60{fill:url(#SVGID_54_);}
	.st61{fill:url(#SVGID_55_);}
	.st62{fill:url(#SVGID_56_);}
	.st63{fill:url(#SVGID_57_);}
	.st64{fill:url(#SVGID_58_);}
	.st65{fill:url(#SVGID_59_);}
	.st66{fill:url(#SVGID_60_);}
	.st67{fill:url(#SVGID_61_);}
	.st68{fill:url(#SVGID_62_);}
	.st69{fill:url(#SVGID_63_);}
	.st70{fill:url(#SVGID_64_);}
	.st71{fill:url(#SVGID_65_);}
	.st72{fill:url(#SVGID_66_);}
	.st73{fill:url(#SVGID_67_);}
	.st74{fill:url(#SVGID_68_);}
	.st75{fill:url(#SVGID_69_);}
	.st76{fill:url(#SVGID_70_);}
	.st77{fill:url(#SVGID_71_);}
	.st78{fill:url(#SVGID_72_);}
	.st79{fill:url(#SVGID_73_);}
	.st80{fill:url(#SVGID_74_);}
	.st81{fill:url(#SVGID_75_);}
	.st82{fill:url(#SVGID_76_);}
	.st83{fill:url(#SVGID_77_);}
	.st84{fill:url(#SVGID_78_);}
	.st85{fill:url(#SVGID_79_);}
	.st86{fill-rule:evenodd;clip-rule:evenodd;fill:#06688D;}
	.st87{fill-rule:evenodd;clip-rule:evenodd;fill:#CD8B2C;}
</style>
<g>
	<ellipse class="st0" cx="424.4" cy="51.8" rx="49.9" ry="26"/>
	<path class="st1" d="M388.5,67.2l5.5-27.7h12.7c5.5,0.3,8.2,3.1,8.2,7.9c0,8.2-6.5,13-12.3,12.7h-6.2l-1.4,7.2H388.5z M397.7,54.9
		l1.7-10.3h4.4c2.4,0,4.1,1,4.1,3.1c-0.3,5.8-3.1,6.8-6.2,7.2L397.7,54.9L397.7,54.9z M413.6,60l5.5-27.7h6.5l-1.4,7.2h6.2
		c5.5,0.3,7.5,3.1,6.8,6.5l-2.4,14h-6.8l2.4-12.7c0.3-1.7,0.3-2.7-2.1-2.7h-5.1L420.1,60H413.6z M434.3,67.2l5.5-27.7h12.7
		c5.5,0.3,8.2,3.1,8.2,7.9c0,8.2-6.5,13-12.3,12.7h-6.2l-1.4,7.2H434.3z M443.6,54.9l1.7-10.3h4.4c2.4,0,4.1,1,4.1,3.1
		c-0.3,5.8-3.1,6.8-6.2,7.2H443.6L443.6,54.9z"/>
</g>
<g>
	<path class="st2" d="M19.6,14.2h71.5v71.5H19.6V14.2z"/>
	<path class="st2" d="M46.7,33.8l-0.1-7.3l4.3-2.5l6.5-4.3l2.7-0.1l2.8,3l1.5,9.9l-2,3.6l-8.4-0.2L46.7,33.8L46.7,33.8z"/>
	<path class="st2" d="M38.1,54.7l2.2-6.3l4.3-5.2l2.2-4.5l1-1.5l15.9-2.4l3.2,5l8.9,21.3L72.7,65l-8.1,13.5l-1.9,0.4L48,79.3
		L37.7,67.8l-1.7-9.5L38.1,54.7L38.1,54.7z"/>
	<path class="st3" d="M58.4,38.5c0,0-0.5-0.1,1-0.4c1.5-0.3,1.5-0.6,1.9-1.1c0.4-0.4,0.6-1.4,0.6-2.4c0-1.1,0.5-4.1,0.4-5
		c-0.1-0.9-1.9-4-2.6-4.5c-0.7-0.4-9-1.2-9-1.2l-2.5,2l-1.9,1.8l0.4,5.7c0,0-0.5,1.8-0.4,2.5c0.1,0.7,1.2,1.6,1.6,2
		c0.4,0.4,2,2.1,2.5,2.7c0.5,0.5,0.6,1.1,1.9,0.6c1.3-0.4,2-0.4,3-1.2C56.2,39.4,58.4,38.5,58.4,38.5z"/>
	<path class="st2" d="M53.5,29.5c0.3-0.9,0.7-2.4,1.5-3c0.7-0.5,2.3-1,3.3-0.9c1,0.1,2.8,1.1,3.2,1.8c0.4,0.7,0.4,3.7,0.4,3.7
		l-0.2,2.4l-1.5-0.1L57,32.2h-0.5c0,0-0.5,0.2-2.1-0.6C52.8,30.7,53.2,30.3,53.5,29.5L53.5,29.5z M50.2,31.8c0,0,0.1-0.1,0.3-0.2
		c0.6-0.4,2-0.9,2-0.9s1.4-3.5,0.2-4.9c-1.2-1.4-3.7-1.2-3.7-1.2s-2.8,1.6-2.7,2.2c0.1,0.6,0.2,2.9,0.3,3.2c0.1,0.3,0.5,3.7,0.5,3.7
		l1-0.4l1.4-1.1C49.5,32.3,49.8,32.1,50.2,31.8L50.2,31.8z"/>
	<path class="st3" d="M70.4,63.8l1.5,0.1c0.2,0,0.4,0,0.7,0c1.1,0,2.1,0.2,3.2,0.3c0.7,0.1,1.9,0.5,2,1.4c0.1,1.3-0.3,2.7,0.8,3.3
		c1.1,0.8,3.7,2.5,3.7,2.5l0.7,1.4l-2.2,2l-10.9,6.6l-5-1.7v-4l0.2-5.4l-0.5-4.9l0.8-1.9l2.1-0.6L70.4,63.8L70.4,63.8z M38.8,61.4
		c-0.1-0.1-2,0.5-2.2,0.5c-0.9,0.1-2,0.8-2,1.7c0,0.5,0,1-0.3,1.5c-0.2,0.4-0.6,0.9-0.6,1c-0.1,0.4-0.4,0.9-0.8,1.2
		c-0.4,0-2.2,0.2-2.2,0.2h-1.6l-1,1.2l0.7,3.1l-0.2,2.4L28,77l1.8,1l13.6,3.6l3.1-1l1.6-3.9l-0.3-1.5l-1.5-3
		C46.2,72.2,39.8,62.8,38.8,61.4L38.8,61.4z"/>
	<path class="st4" d="M45.7,28.2c-0.2-7.4,2.7-10.7,8.7-10.8c6-0.1,9.7,3,10.5,7.2c0.8,4.1,0.3,9.6,1.9,12.4c1.5,2.8,2.5,5,5.1,8.3
		c2.6,3.3,4.2,6.6,5,10.6c0.8,4,1.2,5.9-0.8,8c-2,2.1-5.4,5.4-8.1,1.6c-1.3-1.9-1.5-4.3,0.8-4.8c1.4-0.3,2.4-0.2,3.5,0.3
		c1.1,0.5,1.3,0.3,0-0.7c-1.3-0.9-1.5-0.1-1.1-1.6c0.4-1.5,1-4.3-0.2-7.3c-0.6-1.4-2.4-5.2-4.2-6.1c-0.2-0.1-0.6-0.3-0.3,0.1
		c0.5,0.6,3,4.3,3.7,6.5c0.8,2.4,0.9,4.7,0.5,6.1c-0.4,1.5-1.1,2-1.9,2c-0.8,0-1.6,0.4-1.6-1.5c0-1.9,0.2-4.8-0.8-7.3
		c-1-2.4-2.3-4.1-2.6-5.2c-0.3-1-0.9-3.8-2.1-5.4c-1.3-1.6-1.8-2.6-1.1-4.4c0.7-1.8,0.2-2.3-1.1-2.7c-1.3-0.4-3.1-0.9-3.5-1.8
		c-0.4-0.9-0.2-2.6,0.8-3c1-0.4,2.6,0.2,2.7,1.4c0.1,1.2-0.5,1.9-0.4,2.2c0.2,0.3,1,0.7,1.5,0.2c0.4-0.5,0.5-2,0.1-3.4
		c-0.4-1.4-0.7-2.4-2.2-2.7c-1.6-0.3-2.3-0.2-3,0.8c-0.8,1-1.1,2.6-0.9,3.7c0.2,1.1-0.2,0.5-1,0.4c-0.8,0-0.5-0.1-1.3,0
		c-0.8,0-0.5-0.4-0.5-1.3c0-0.8-0.2-2.5-1.3-3.2c-1.1-0.7-3.1,0.1-3.1,2.8c0.1,2.7,1,4,1.5,3c0.5-1,0.3-0.5-0.3-0.9
		c-0.5-0.4-0.9-2.2-0.3-2.8c0.6-0.5,1.3-0.5,1.7-0.2c0.4,0.3,1,1.4,0.9,2.1c-0.1,0.7-0.2,0.8-0.9,1.3c-0.7,0.5-1,0.9-1.8,1.5
		c-0.8,0.5-1.1,1.8-0.5,2.1c0.7,0.3,0.7,0.3,1.2,1.1c0.5,0.8,1.5,1.2,3.8,0.8c2.3-0.4,3.2-0.9,5-1.5c1.3-0.4,0.8-0.4,1.3-0.9
		c0.4-0.5,1.1,0.2,0.5,0.7c-0.7,0.4-2.1,0.9-3.2,1.2c-1.1,0.4-2.3,1.5-4.6,1.4c-2.3-0.1-0.7-0.1-1.4-0.1c-0.7-0.1-1,0-0.3,0.6
		c0.8,0.5,0.7,0.7,1.4,0.9c0.7,0.2,1.5,0.2,2.6-0.2c1-0.4,3.6-1.5,4.5-2.1c0.8-0.5,1.5,0.2,0.7,0.7c-0.8,0.5-1,0.4-1.8,0.9
		c-0.8,0.5-2.2,1.3-3.1,2.2c-0.9,0.9-1.1,0.9-2.3,1c-1.1,0.1-1.9-1.1-2.3-1.7c-0.5-0.5-0.4-0.9-1-1.5c-0.6-0.7-0.7-0.5-0.8,0.2
		c-0.1,0.7-0.9,2.5-1.6,3.7c-0.7,1.2-0.8,2.7-0.7,3.7c0.1,1-0.2,1.1-1,2.3c-0.8,1.2-2.2,4.7-2.4,5.9c-0.2,1.1-0.5,3.5-0.4,4.8
		c0.1,1.4-0.3,1.6-1.3,0.7c-1-0.9-1.3-2-1.2-3.3c0-1.2,0.2-2,0.4-2.4s0-0.7-0.3-0.2c-0.7,1.2-0.7,3.2-0.5,3.9c0.2,0.7,0.2,2,2,3.6
		c1.8,1.7,4.4,4,6.6,5.6c2.2,1.6,2.9,3.5-0.3,5c2,2.7,3.1,4.1,2.2,5.9c1.8-1,1.1-3.5,0.2-4.1c-0.9-0.7-0.3-1.2,0.4-0.7
		c0.8,0.5,1,1.5,4,1.4c3-0.1,6.2-0.4,8-3c1.8-2.6,2.1-0.4,1.7,1.1c-0.4,1.5-1.5,5,0.2,4.6c0.2-2,0.7-3.8,0.7-5.9
		c0-2.2,0.2-3.2,0.1-6.4c-0.2-3,1.1-3.2,2.5-3.2c1.4,0,0.9,0.9,0.1,0.8c-0.9-0.1-1.8,0.3-1.9,2.5c-0.1,2.2,0,2,0.4,4
		c0.4,2,0.4,2.6,0.1,4.8c-0.3,2.2-0.6,3.4,0.9,4.8c1.5,1.4,3.7,1,4.8,0.1c1.1-0.9,3.3-2.9,5.3-3.5c2-0.7,4-1.1,5.1-2.2
		c1.1-1.1,0.8-1.9-0.3-2.4c-1.1-0.6-2.2-0.3-3.1-1.3c-0.9-1-1.3-3.2-1-4.3c0.3-1.1,0.7-0.7,0.7,0.2c0,0.8,0.1,1.6,0.9,2.6
		c0.8,1,1.6,1.5,2.9,2.3c1.3,0.8,2.1,2.1,0.5,3.3c-1.6,1.1-2.6,1.8-3.9,2.3c-1.4,0.5-3.6,1.9-5,3.2c-1.4,1.4-2.1,2.6-4.8,2.6
		c-2.7,0-3.9-0.6-4.7-2.2c-0.5-1.1-0.8-0.9-2.1-1c-1.3,0-5.4-0.1-8.7,0c-3.3,0-4.4,0.6-5.8,1.8c-1.5,1.2-2,2.1-4.8,1.2
		c-2.8-0.9-4.2-2-8.4-2.8c-4.1-0.8-1.9-0.4-4.4-1c-2.5-0.5-2.3-1.7-2-2.7c0.3-1,1.1-2.5,0.4-4.5c-0.7-2-0.4-4.1,1.5-4.1
		c1.9,0,3.7,0.4,4.5-2.1c0.8-2.5,1-0.5,0.8,0.1c-0.2,0.7-0.3,2.4-2,2.7c-1.7,0.3-2.1-0.1-3.1-0.1c-1,0-1.5,0.7-0.9,1.9
		c0.5,1.2,1.1,2.4,1,3.5c-0.1,1-0.2,1.4-1,2.4c-0.8,1-0.7,1.5,0.7,1.8c1.4,0.3,3.8,1,6.1,1.5c2.3,0.5,2.5,0.5,6.4,1.6
		c4,1,5.1-0.8,5.4-3.1c0.3-2.2-1.2-4.4-2.6-6.5c-1.4-2.1-2.9-4.6-4.8-6.8c-1.9-2.2-2.9-2.4-3.9-1.9c-0.9,0.5-1.1,0.4-1.1-0.9
		c-0.1-1.2-0.2-2.1,0.9-3.9c1-1.9,2-3.9,3.1-7c1.1-3.1,2.1-3.7,3.9-6.4c1.9-2.7,1-1.6,2.3-3.4c1.3-1.8,0.9-1.5,0.8-4.3
		C45.9,33.5,45.8,31.9,45.7,28.2L45.7,28.2z M40.5,50.3c0.3,0.3,0.7-0.5,1.1-0.8c0.4-0.3,0.5-0.8,0.4-1.3c0-0.3-0.5-0.2-0.5-0.1
		c-0.3,0.3-0.2,0.7-0.4,1C40.9,49.6,40.3,50,40.5,50.3L40.5,50.3z M63.9,38.9c0.6,0.5,1,0.9,1.3,0.2c0.3-0.7,0.3-1-0.5-1.3
		c-0.8-0.3-1.1-0.6-1.5-1c-0.4-0.4-0.5,0.3-0.2,1C63.4,38.6,63.6,38.7,63.9,38.9L63.9,38.9z M51.7,32.2c-0.4-0.1-0.9,0-1.2,0.3
		c-0.1,0.1-0.1,0.4,0.1,0.5c0.2,0.1,0.4-0.1,0.5-0.3c0-0.1,0.1-0.2,0.1-0.2c0.1-0.1,0.3,0,0.4-0.1C51.7,32.3,51.7,32.2,51.7,32.2
		L51.7,32.2z M53.6,32.3c0.2,0.2,0.5,0.2,0.7,0.4c0.1,0.1,0.4,0.1,0.5,0c0.2-0.6-0.6-0.4-1-0.4C53.7,32.1,53.5,32.1,53.6,32.3
		L53.6,32.3z M57.6,29.6c0.4,0,0.9,0.7,0.9,1.4c0,0.1,0.3,0.1,0.4,0c0.2-0.3,0.1-0.6,0-1c-0.1-0.3-0.4-0.6-0.7-0.7
		c-0.2-0.1-0.4-0.1-0.7-0.1C57.4,29.2,57.2,29.6,57.6,29.6L57.6,29.6z M49.5,29.4c-0.3,0-0.2,0.3-0.2,0.5c0.5,0.3,0.5,0.9,0.6,1.3
		c0,0.2,0.3,0.1,0.3,0c0.2-0.4,0-0.8-0.1-1.3c-0.1-0.2-0.2-0.5-0.5-0.7C49.5,29.4,49.5,29.4,49.5,29.4L49.5,29.4z M59.8,21.1
		c-0.3-0.3-0.9-0.4-1,0.1c-0.2,0.4-0.1,0.8-0.2,1.2c0,0.1-0.2,0.2-0.3,0.3c-0.1,0.2-0.1,0.4,0,0.4c0.3,0.3,0.9-0.3,1.3-0.5
		c0.3-0.2,0.8,0.1,1.1-0.2c0.1-0.1,0.1-0.2,0-0.3C60.6,21.6,60.2,21.4,59.8,21.1z"/>
	<path class="st4" d="M69.7,64.4c0.1-0.2,0.2-0.7,0.4-0.7c0.1,0,0.1,0,0.2,0.1c0,0.1-0.1,0.9,0,1.1c0.1,0.2,0.3,0.2,0.4,0.1
		c0.4-0.1,0.6-0.6,0.6-0.6c0,0,0,0,0,0c-0.1,0-0.1,0.2-0.3,0.3c-0.1,0-0.2,0-0.2-0.1c0-0.1,0.1-0.9,0-1.1c-0.1-0.2-0.2-0.2-0.4-0.2
		C69.9,63.3,69.7,64,69.7,64.4L69.7,64.4l0-0.9l-0.5,0.2l0,1.8l0.5-0.2C69.6,64.9,69.6,64.6,69.7,64.4L69.7,64.4z M71.8,64.6
		c0.4-0.1,0.6-0.6,0.6-0.7c0,0,0,0,0,0c0,0-0.1,0.3-0.3,0.4c-0.1,0-0.2,0-0.2-0.1c0-0.1,0-0.3,0-0.4l0-0.8l0.6-0.2l0-0.2l-0.6,0.2
		l0-0.8l-0.5,0.3l0,1.7c0,0.2,0,0.3,0,0.4C71.4,64.6,71.6,64.6,71.8,64.6L71.8,64.6z"/>
</g>
<path class="st5" d="M235.9,68.4l-0.1-0.1V68l-0.2-0.4l-0.3-0.4l-0.4-0.3l-0.1-0.1l-0.3-0.3l-0.5-0.3l-0.4-0.2h-0.1l-0.4-0.4
	l-0.6-0.3l-0.7-0.3l-0.7-0.2h-0.1l-0.5-0.6l-0.7-0.5l-0.7-0.3l-0.7-0.2h-0.1l-0.6-0.4l-1-0.4l-0.4-0.1l-0.6-0.4l-0.7-0.3l-0.6-0.1
	l-0.7-0.1l-0.7,0.1l-0.5,0.1l-0.3-0.5l-0.8-0.5l-1-0.2h-0.9l-1.1,0.2l-0.3,0.1l-0.8-0.3l-0.9-0.3l-1-0.1h-0.9l-1,0.1h-0.1l-1-0.4
	l-1-0.3l-1-0.2l-0.5-0.1l-0.9-0.8l-1-0.7l-1-0.5l-0.9-0.3l-1.1-0.1l-0.5,0.1l-0.4-0.4l-0.8-0.3l-0.9-0.1l-0.5,0.1l-0.8-0.3l-0.8-0.2
	l-0.8-0.1H199l-1.1-0.4l-1.4-0.4l-1.3-0.1H195l-1.2-0.7l-1.4-0.3h-0.9l-2-0.5l-1.3-0.1h-0.4l-0.7-0.7l-0.9-0.5l-1-0.3l-1,0.1
	l-0.7,0.2l-0.9-0.2l-0.9-0.1l-1.1,0.1h-0.1v-0.2l-1.6-0.4l-1.5-0.2l-1.4-0.1l-0.5,0.1V51l-1.1-0.2l-1.1-0.1H173l-1.2-0.5l-1.3-0.3
	l-1.1-0.2h-0.8l-1.2-0.4l-1-0.2l-1-0.1h-0.2l-1.1-0.8l-1.1-0.4l-0.8-0.1l-0.9-0.4L160,47l-1.1,0.1l-1.1-0.5l-1.2-0.3h-0.6l-1.2-0.7
	l-1.2-0.3l-1.2-0.1l-0.2,0.1l-1.6-0.8l-1.2-0.4l-1.3-0.1h-0.1l-0.7-0.4l-0.7-0.3l-0.8-0.2l-0.8-0.1l-0.7,0.1l-0.8-0.5l-0.9-0.4
	l-1-0.2l-0.9,0.1l-1,0.2l-0.1,0.1l-1-0.5l-1.1-0.3l-1-0.1l-0.8-0.5l-0.9-0.3l-0.9-0.1l-0.9,0.1l-0.8,0.2l-0.6-0.6l-0.8-0.5l-0.9-0.2
	l-0.8,0.2l-0.6,0.3l-0.4-0.3l-0.4-0.2l-0.4-0.2l-0.3-0.1l-0.5,0.1l-0.5,0.2l-0.5,0.3l-0.1,0.1l-0.9-0.2l-0.9,0.1l-0.8,0.3l-0.7,0.5
	l-0.5,0.7L121,42l-0.3,0.9l-0.2,0.9l-0.1,0.9l0.1,4.1c-0.5-0.2-1.1-0.4-1.6-0.6l0.1-0.6L119,47l0.1-0.7l0.1-0.7l0.1-0.7l0.1-0.7
	l-0.1-0.7l-0.1-0.7l-0.1-0.7l-0.1-0.5l-0.2-0.5l-0.1-0.2l0.1-0.2l0.2-0.5l0.2-0.5l0.2-0.5l0.3-0.5l-0.9,0.9l-0.4,0.4l-0.2-0.2
	l-0.4-0.4l-0.4-0.3l0.1,0.7l0.1,0.7l0.1,0.4l-0.3,0.4l-0.2,0.4l-0.1-0.2L117,41l-0.1-0.4l-0.1-0.4v-0.4l-0.1-0.4l-0.1-0.4l-0.1-0.4
	v-0.4l0.1-0.4l0.1-0.4l0.1-0.4l0.1-0.4l0.1-0.3l-0.5,0.7l-0.4,0.7l-0.3,0.7l-0.2,0.7l-0.1,0.8v0.8l0.1,0.8l0.2,0.8l0.2,0.6l-0.3-0.2
	l-0.3-0.4l-0.3-0.4l-0.3-0.4l-0.3-0.5l-0.3-0.5l-0.2-0.7l-0.2-0.8l-0.1-0.9l-0.6,0.5l-0.3,0.6l-0.2,0.7v0.7l0.1,0.7l0.3,0.7l0.3,0.7
	l0.3,0.5l-0.6-0.1l-0.7-0.1l0.4,0.3l0.4,0.3l0.4,0.3l0.4,0.3l0.4,0.3l0.3,0.3l0.5,0.6l0.5,0.5l0.5,0.5l0.4,0.5l0.4,0.4l0.2,0.3
	l0.2,0.3l0.1,0.2c-6.4-2.5-13.3-5.6-21.7-9.6c1.7,2.8,7.9,5.6,10.5,7.6c2.7,1.5,6.5,3,9.8,4.3l-0.7,0.2l-0.7,0.1l-0.3,0.1h-0.2
	l-0.5,0.1l-0.5,0.1h-0.5l-0.5,0.1h-1l-0.5-0.1l-0.5-0.1l-0.5-0.1l-0.5-0.1l-0.5-0.1l-0.5-0.1l0.5,0.4l0.5,0.3l0.5,0.2l0.5,0.2
	l0.3,0.1l-0.7,0.2l-0.7,0.3l-0.9,0.5l-0.7,0.4l-0.5,0.4l-0.5,0.5l-0.4,0.5l-0.3,0.7l-0.2,0.8l0.2-0.3l0.3-0.3l0.3-0.3l0.3-0.3
	l0.3-0.2l0.3-0.2l0.3-0.2l0.3-0.2l0.4-0.2l0.3-0.2l0.4-0.1l0.4-0.2l0.4-0.1l0.4-0.1l0.3-0.1l0.4-0.1l0.7-0.3l0.7-0.4l0.7-0.4
	l0.7-0.4l0.7-0.4l0.3-0.1h0.1l-0.5,0.3l-0.5,0.3l-0.5,0.3l-0.5,0.4l-0.5,0.3l-0.5,0.3l-0.5,0.3l-0.5,0.3l-0.5,0.3l-0.5,0.3l-0.5,0.3
	l-0.5,0.3l-0.7,0.4l-0.6,0.3l0.6,0.1l0.6-0.1l0.5-0.1l0.5-0.2l0.5-0.2l-0.2,0.2l-0.4,0.6l-0.3,0.7l-0.1,0.7l0.1,0.7l0.3,0.7l0.4-0.8
	L111,57l0.4-0.6l0.4-0.5l0.4-0.4l0.5-0.3l0.5-0.3l0.5-0.3l0.3-0.2l-0.1,0.1l-0.2,0.7l-0.1,0.9l0.1,0.9l0.2,1l0.3,1.2l0.1-0.6
	l0.1-0.5l0.2-0.5l0.2-0.5l0.2-0.5l0.2-0.5l0.2-0.5l0.3-0.5l0.3-0.5l0.3-0.5l0.3-0.5l0.3-0.5l0.3-0.5l0.3-0.5l0.3-0.5l0.3-0.4
	c0.4,0.2,0.8,0.3,1.2,0.4l-0.7,1.2l-0.7,1.3l-0.5,1.6l-0.2,0.9L117,57l0.1,0.8l0.2,0.7l0.4,0.8l0.6,0.7l0.9,0.5l0.9,0.3l0.2,0.5
	l0.5,0.7l0.5,0.4l0.4,0.3l0.5,0.3l0.5,0.2l0.4,0.1h0.5l0.5,0.7l0.7,0.5l0.8,0.3l1,0.1l0.8-0.2l0.1,0.2l0.7,0.7l0.7,0.5l0.7,0.3
	l1,0.2l0.6-0.1l0.6,0.4l0.9,0.4l0.8,0.2l0.6,0.4l1,0.4l1.3,0.3l1.1,0.1l0.1,0.1l0.9,0.7l0.9,0.5l0.8,0.3l1,0.1l0.9-0.2l0.4,0.2
	l0.7,0.3l0.8,0.2l0.7,0.1l0.7-0.1l0.2,0.2l1.1,0.4l1.3,0.2l1.4-0.1l0.3,0.2l1.1,0.4l1.1,0.2l1.5-0.1l1,0.3l1.2,0.2l1.1-0.1l0.4,0.2
	l1.1,0.4l1.3,0.2l1.3-0.2v-0.1l0.7,0.2h1.1l1.2-0.3l0.7,0.3l0.9,0.2l0.9,0.1h1.1l0.3,0.1l1.1,0.3l1.1,0.2l1.3,0.1l1.3-0.1v-0.1
	l0.7,0.2l1,0.2l1,0.1l0.1-0.1l0.7,0.2l1.4,0.2l1.5,0.1l1.6-0.1l0.2,0.1l1,0.2l0.9,0.1l0.9,0.1l0.1,0.1l0.9,0.4l1,0.3h0.9l1-0.2
	l0.8-0.5l0.9,0.3l1.3,0.1h1.3l0.3,0.1l1.3,0.2l1.3-0.1l1.3-0.4l1.1,0.1l1.4-0.1l1-0.2l0.6,0.1l0.8,0.1l1.7-0.2l0.5,0.2l0.8,0.1
	l0.7-0.2l0.5-0.3h0.1l0.9,0.3l0.9,0.2h0.9l1-0.2l1-0.5l1-0.6l0.8,0.1l1-0.1l0.9-0.1l0.5,0.2l0.9,0.2l0.9,0.1l0.9-0.1l0.9-0.2
	l0.2,0.1l1.1,0.4l1,0.2h0.9l0.9-0.3l0.4-0.4l0.2,0.1l0.6,0.2l0.6,0.1l0.7-0.1l0.6-0.1l0.4-0.2l0.8,0.1l0.8-0.1l0.8-0.3h0.1l0.8-0.1
	l0.7-0.1l0.8-0.3l0.5-0.4h0.7l0.7-0.1l0.6-0.2l0.7-0.3h0.3l0.4-0.1l0.4-0.2l0.1-0.1l0.4-0.1l0.5-0.2l0.2-0.4l0.1-0.3h0.2l0.5-0.5
	l0.1-0.2l0.1,0.1l0.1-1.4L235.9,68.4L235.9,68.4z M118.8,48.2l-0.8-0.3l-0.1-0.1v-0.1l0.1,0.1l-0.1-0.2v-0.2l0.1-0.7l0.1-0.7
	l0.1-0.7l0.1-0.6l0.1-0.4l0.1,0.5l0.1,0.5l0.1,0.5l0.1,0.5l0.1,0.5l0.1,0.5L118.8,48.2L118.8,48.2z M116.5,50.1L116.5,50.1l-0.2,0.2
	H116l0.2-0.1L116.5,50.1L116.5,50.1z M115.1,51.7l0.5-0.5l0.5-0.5l0.2-0.2l0.3-0.2l-0.2,0.1l0.1-0.1c0.3,0.1,0.6,0.2,0.9,0.3
	l-0.3,0.2l-0.5,0.3l-0.7,0.3l-0.7,0.3l-0.4,0.2L115.1,51.7L115.1,51.7z M117.9,50.9l-0.3,0.3l-0.4,0.2l-0.3,0.2l0.1-0.2l0.4-0.9
	c0.2,0.1,0.4,0.2,0.7,0.2L117.9,50.9z"/>
<g>
	<path class="st6" d="M236.4,68.2c-11.3-1.5-53.1-3.7-71.7-6.7c-15-2.5-29.6-6.9-43.6-11.6c-3.6-1.2-10-3.7-14.1-5.9
		c-2.6-2-8.8-4.9-10.5-7.7c27.1,12.8,38,16.3,69.7,22.8C179.2,61.8,226,65.6,236.4,68.2z"/>
	
		<linearGradient id="SVGID_1_" gradientUnits="userSpaceOnUse" x1="-3.7009" y1="103.5241" x2="-3.6992" y2="103.4552" gradientTransform="matrix(280.2029 0 0 -181.5948 1225.2998 18861.4707)">
		<stop  offset="0" style="stop-color:#6B3A94"/>
		<stop  offset="0.1058" style="stop-color:#8B3084"/>
		<stop  offset="0.2653" style="stop-color:#B5266C"/>
		<stop  offset="0.4092" style="stop-color:#D31C5E"/>
		<stop  offset="0.5309" style="stop-color:#E52156"/>
		<stop  offset="0.6158" style="stop-color:#EA2450"/>
		<stop  offset="1" style="stop-color:#F7E37F"/>
	</linearGradient>
	<path class="st7" d="M196.4,73.2l-1.2,0.4l-1.2,0.1l-1.2-0.2l-1.2-0.5l-1.2-0.6l-1.2-0.9l-1.1-0.9l-1-1l-1-1l-1-1l-0.9-1l-0.8-0.9
		l-0.8-0.8l-0.7-0.6l-0.7-0.4l-0.5-0.2h0.4l0.5,0.1l0.5,0.1l0.6,0.1l0.5,0.1l0.6,0.1l0.5,0.1l0.5,0.1l0.8,0.8l0.8,0.7l0.7,0.7
		l0.6,0.7l0.6,0.7l0.6,0.7l0.5,0.7l0.5,0.6l0.6,0.6l0.6,0.5L192,71l0.7,0.5l0.8,0.5l0.9,0.4l0.9,0.4L196.4,73.2L196.4,73.2z"/>
	
		<linearGradient id="SVGID_2_" gradientUnits="userSpaceOnUse" x1="-4.0848" y1="103.7667" x2="-4.0834" y2="103.7051" gradientTransform="matrix(273.3686 0 0 -166.95 1309.2631 17390.1582)">
		<stop  offset="0" style="stop-color:#6B3A94"/>
		<stop  offset="0.1058" style="stop-color:#8B3084"/>
		<stop  offset="0.2653" style="stop-color:#B5266C"/>
		<stop  offset="0.4092" style="stop-color:#D31C5E"/>
		<stop  offset="0.5309" style="stop-color:#E52156"/>
		<stop  offset="0.6158" style="stop-color:#EA2450"/>
		<stop  offset="1" style="stop-color:#F7E37F"/>
	</linearGradient>
	<path class="st8" d="M200.4,73.1l-1.4,0.2l-1.3,0.1l-1.2-0.1l-1.2-0.3l-1.1-0.4l-0.9-0.5l-1-0.6l-0.8-0.8l-0.9-0.8l-0.8-0.8
		l-0.8-0.9l-0.8-0.9l-0.8-0.9l-0.8-0.8l-0.8-0.8L185,64h0.7L186,64h0.3l0.4,0.1l0.3,0.1l0.4,0.1h0.3l0.3,0.1l0.4,0.1l0.4,0.1h0.4
		l0.4,0.1h0.8l0.4,0.1l0.3,0.4l0.3,0.5l0.5,0.7l0.4,0.7l0.6,0.7l0.6,0.8l0.7,0.8l0.7,0.7l0.7,0.7l0.7,0.7l0.8,0.6l0.7,0.5l0.7,0.4
		l0.7,0.3l0.7,0.2H200.4L200.4,73.1z"/>
	
		<linearGradient id="SVGID_3_" gradientUnits="userSpaceOnUse" x1="-5.8019" y1="104.0151" x2="-5.8" y2="103.9453" gradientTransform="matrix(218.6947 0 0 -157.1868 1465.4739 16412.8672)">
		<stop  offset="0" style="stop-color:#6B3A94"/>
		<stop  offset="0.1058" style="stop-color:#8B3084"/>
		<stop  offset="0.2653" style="stop-color:#B5266C"/>
		<stop  offset="0.4092" style="stop-color:#D31C5E"/>
		<stop  offset="0.5309" style="stop-color:#E52156"/>
		<stop  offset="0.6158" style="stop-color:#EA2450"/>
		<stop  offset="1" style="stop-color:#F7E37F"/>
	</linearGradient>
	<path class="st9" d="M203,73.1l-0.8,0.1l-0.8,0.1l-0.7-0.1l-0.7-0.1l-0.8-0.2l-0.7-0.3l-0.7-0.4l-0.8-0.5l-0.7-0.5l-0.8-0.7
		l-0.7-0.8l-0.8-0.8l-0.8-1l-0.8-1.1l-0.9-1.2l-0.9-1.3h0.5l0.5,0.1l0.5,0.1l0.5,0.1l0.5,0.1l0.5,0.1h1.2l0.5,0.5l0.4,0.5l0.5,0.5
		l0.5,0.5l0.4,0.5l0.5,0.6l0.4,0.5l0.5,0.6l0.4,0.5l0.5,0.5l0.5,0.5l0.5,0.5l0.5,0.5l0.5,0.4l0.5,0.5L203,73.1L203,73.1z"/>
	
		<linearGradient id="SVGID_4_" gradientUnits="userSpaceOnUse" x1="-7.2043" y1="104.1109" x2="-7.2022" y2="104.0438" gradientTransform="matrix(190.3819 0 0 -153.2816 1571.8915 16024.2949)">
		<stop  offset="0" style="stop-color:#6B3A94"/>
		<stop  offset="0.1058" style="stop-color:#8B3084"/>
		<stop  offset="0.2653" style="stop-color:#B5266C"/>
		<stop  offset="0.4092" style="stop-color:#D31C5E"/>
		<stop  offset="0.5309" style="stop-color:#E52156"/>
		<stop  offset="0.6158" style="stop-color:#EA2450"/>
		<stop  offset="1" style="stop-color:#F7E37F"/>
	</linearGradient>
	<path class="st10" d="M205.8,72.9l-0.6,0.3l-0.7,0.1l-0.7-0.1l-0.7-0.3l-0.7-0.4l-0.7-0.6l-0.7-0.6l-0.8-0.8l-0.7-0.8l-0.7-0.8
		l-0.7-0.8l-0.7-0.8l-0.6-0.8l-0.6-0.7l-0.6-0.6l-0.5-0.5l3.4,0.3l0.4,0.5l0.4,0.5l0.4,0.5l0.4,0.5l0.4,0.5l0.4,0.5l0.4,0.5l0.4,0.5
		l0.4,0.5l0.4,0.5l0.4,0.5l0.5,0.5l0.5,0.4l0.5,0.5l0.6,0.4L205.8,72.9L205.8,72.9z"/>
	
		<linearGradient id="SVGID_5_" gradientUnits="userSpaceOnUse" x1="-6.1253" y1="104.2471" x2="-6.1236" y2="104.1766" gradientTransform="matrix(227.4815 0 0 -149.3764 1598.2528 15635.7275)">
		<stop  offset="0" style="stop-color:#6B3A94"/>
		<stop  offset="0.1058" style="stop-color:#8B3084"/>
		<stop  offset="0.2653" style="stop-color:#B5266C"/>
		<stop  offset="0.4092" style="stop-color:#D31C5E"/>
		<stop  offset="0.5309" style="stop-color:#E52156"/>
		<stop  offset="0.6158" style="stop-color:#EA2450"/>
		<stop  offset="1" style="stop-color:#F7E37F"/>
	</linearGradient>
	<path class="st11" d="M211.4,72.2l-1,0.6l-0.9,0.4l-0.9,0.2h-0.9l-0.9-0.2L206,73l-0.8-0.4l-0.8-0.5l-0.8-0.7l-0.8-0.7l-0.7-0.9
		l-0.8-0.9l-0.7-0.9L200,67l-0.7-1l-0.7-0.9l0.6,0.1l0.4,0.1h0.3l0.3,0.1l0.3,0.1h0.7l0.5,0.1l0.6,0.8L203,67l0.6,0.8l0.7,0.7
		l0.7,0.6l0.7,0.6l0.7,0.5l0.7,0.4l0.6,0.4l0.7,0.4l0.6,0.2l0.5,0.2L210,72l0.5,0.1l0.5,0.1L211.4,72.2z"/>
	
		<linearGradient id="SVGID_6_" gradientUnits="userSpaceOnUse" x1="-6.5635" y1="104.9977" x2="-6.5617" y2="104.9134" gradientTransform="matrix(221.6239 0 0 -122.0396 1662.6893 12879.5889)">
		<stop  offset="0" style="stop-color:#6B3A94"/>
		<stop  offset="0.1058" style="stop-color:#8B3084"/>
		<stop  offset="0.2653" style="stop-color:#B5266C"/>
		<stop  offset="0.4092" style="stop-color:#D31C5E"/>
		<stop  offset="0.5309" style="stop-color:#E52156"/>
		<stop  offset="0.6158" style="stop-color:#EA2450"/>
		<stop  offset="1" style="stop-color:#F7E37F"/>
	</linearGradient>
	<path class="st12" d="M214.4,72l-1,0.2l-1,0.1l-0.9-0.1l-0.9-0.2l-0.9-0.2l-0.9-0.3l-0.8-0.4l-0.8-0.4l-0.8-0.5l-0.7-0.5l-0.7-0.6
		l-0.7-0.7l-0.7-0.7l-0.6-0.8l-0.6-0.8l-0.5-0.8h0.6l0.7,0.1l0.7,0.1h0.7l0.5,0.1l0.5,0.1h0.3l0.2,0.1l0.1,0.1l0.2,0.2l0.3,0.3
		l0.3,0.3l0.3,0.4l0.4,0.4l0.5,0.4l0.5,0.5l0.6,0.5l0.7,0.5l0.6,0.5l0.7,0.5l0.7,0.4l0.8,0.4l0.8,0.4L214.4,72L214.4,72z"/>
	
		<linearGradient id="SVGID_7_" gradientUnits="userSpaceOnUse" x1="-7.0579" y1="105.1231" x2="-7.0563" y2="105.0488" gradientTransform="matrix(216.7422 0 0 -120.0868 1741.7708 12688.2188)">
		<stop  offset="0" style="stop-color:#6B3A94"/>
		<stop  offset="0.1058" style="stop-color:#8B3084"/>
		<stop  offset="0.2653" style="stop-color:#B5266C"/>
		<stop  offset="0.4092" style="stop-color:#D31C5E"/>
		<stop  offset="0.5309" style="stop-color:#E52156"/>
		<stop  offset="0.6158" style="stop-color:#EA2450"/>
		<stop  offset="1" style="stop-color:#F7E37F"/>
	</linearGradient>
	<path class="st13" d="M218.3,72.2l-0.8,0.2l-0.8,0.1l-0.9-0.1l-0.9-0.2L214,72l-0.8-0.4l-0.8-0.4l-0.8-0.5l-0.8-0.5l-0.8-0.5
		l-0.7-0.6l-0.7-0.7l-0.7-0.7l-0.7-0.7l-0.6-0.6l-0.5-0.7h0.4l0.5,0.1h1l0.5,0.1l0.5,0.1l0.4,0.1l0.3,0.1V66l0.1,0.2l0.3,0.3
		l0.4,0.3l0.5,0.5l0.7,0.5l0.7,0.5l0.7,0.5l0.8,0.5l0.8,0.6l0.8,0.5l0.7,0.5l0.7,0.4l0.6,0.4l0.4,0.2L218.3,72.2L218.3,72.2z"/>
	
		<linearGradient id="SVGID_8_" gradientUnits="userSpaceOnUse" x1="-6.842" y1="105.0238" x2="-6.8403" y2="104.9409" gradientTransform="matrix(230.4107 0 0 -123.9921 1792.5393 13087.541)">
		<stop  offset="0" style="stop-color:#6B3A94"/>
		<stop  offset="0.1058" style="stop-color:#8B3084"/>
		<stop  offset="0.2653" style="stop-color:#B5266C"/>
		<stop  offset="0.4092" style="stop-color:#D31C5E"/>
		<stop  offset="0.5309" style="stop-color:#E52156"/>
		<stop  offset="0.6158" style="stop-color:#EA2450"/>
		<stop  offset="1" style="stop-color:#F7E37F"/>
	</linearGradient>
	<path class="st14" d="M222.7,72.2l-0.5,0.5l-0.7,0.2h-0.8l-0.9-0.2l-1-0.4l-1-0.5l-1.1-0.6l-1.1-0.7l-1.1-0.8l-1-0.8l-1-0.8
		l-0.8-0.7l-0.7-0.6l-0.5-0.5l-0.4-0.3l-0.2-0.2l0.4,0.1h0.4l0.5,0.1l0.4,0.1l0.5,0.1h0.5l0.5,0.1h0.5l0.6,0.4l0.5,0.3l0.6,0.4
		l0.5,0.4l0.5,0.4l0.5,0.4l0.6,0.4l0.5,0.4l0.5,0.4l0.5,0.4l0.5,0.4l0.5,0.4l0.6,0.3l0.5,0.3l0.5,0.4L222.7,72.2L222.7,72.2z"/>
	
		<linearGradient id="SVGID_9_" gradientUnits="userSpaceOnUse" x1="-7.6879" y1="105.5106" x2="-7.6874" y2="105.4679" gradientTransform="matrix(215.766 0 0 -112.2763 1878.4548 11910.0996)">
		<stop  offset="0" style="stop-color:#F7E37F"/>
		<stop  offset="0.1057" style="stop-color:#F7DB7C"/>
		<stop  offset="0.3493" style="stop-color:#F3C87C"/>
		<stop  offset="0.5198" style="stop-color:#F2C179"/>
		<stop  offset="0.7096" style="stop-color:#F5D17B"/>
		<stop  offset="1" style="stop-color:#F7E37F"/>
	</linearGradient>
	<path class="st15" d="M225.9,72.3l-0.5,0.2l-0.5,0.1l-0.5,0.1l-0.5-0.1l-0.5-0.2l-0.5-0.2l-0.6-0.3l-0.7-0.4l-0.7-0.4l-0.7-0.5
		l-0.8-0.6l-0.9-0.6l-1-0.7l-1-0.7l-1.2-0.8l-1.3-0.8l0.5,0.1h1.2l0.5,0.1h0.5l0.4,0.1l0.3,0.1h0.1l0.1,0.1l0.2,0.2l0.3,0.3l0.4,0.3
		l0.5,0.4l0.5,0.5l0.5,0.4l0.7,0.5l0.7,0.5l0.7,0.5l0.7,0.4l0.7,0.5l0.7,0.4l0.7,0.3l0.7,0.2L225.9,72.3L225.9,72.3z"/>
	
		<linearGradient id="SVGID_10_" gradientUnits="userSpaceOnUse" x1="-8.8394" y1="105.9583" x2="-8.8473" y2="105.8577" gradientTransform="matrix(196.2395 0 0 -103.4895 1958.5129 11026.5361)">
		<stop  offset="0" style="stop-color:#F7E37F"/>
		<stop  offset="0.1057" style="stop-color:#F7DB7C"/>
		<stop  offset="0.3493" style="stop-color:#F3C87C"/>
		<stop  offset="0.5198" style="stop-color:#F2C179"/>
		<stop  offset="0.7096" style="stop-color:#F5D17B"/>
		<stop  offset="1" style="stop-color:#F7E37F"/>
	</linearGradient>
	<path class="st16" d="M228.2,71.9l-0.7,0.3l-0.8,0.1l-0.9-0.1l-0.8-0.2l-0.9-0.3l-0.8-0.4l-0.9-0.5l-0.8-0.5l-0.8-0.6l-0.8-0.6
		l-0.7-0.5l-0.6-0.6l-0.5-0.5l-0.4-0.4l-0.3-0.3l-0.2-0.2l0.5,0.1h0.5l0.5,0.1l0.4,0.1l0.5,0.1h0.4l0.5,0.1l0.5,0.1l0.4,0.3l0.4,0.4
		l0.3,0.3l0.4,0.4l0.4,0.4l0.4,0.4l0.4,0.4l0.5,0.4l0.4,0.3l0.4,0.3l0.5,0.3l0.4,0.3l0.5,0.3l0.5,0.2l0.5,0.2L228.2,71.9L228.2,71.9
		z"/>
	
		<linearGradient id="SVGID_11_" gradientUnits="userSpaceOnUse" x1="-10.3128" y1="106.676" x2="-10.3122" y2="106.6231" gradientTransform="matrix(176.7135 0 0 -90.7973 2048.3335 9749.5088)">
		<stop  offset="0" style="stop-color:#F7E37F"/>
		<stop  offset="0.1057" style="stop-color:#F7DB7C"/>
		<stop  offset="0.3493" style="stop-color:#F3C87C"/>
		<stop  offset="0.5198" style="stop-color:#F2C179"/>
		<stop  offset="0.7096" style="stop-color:#F5D17B"/>
		<stop  offset="1" style="stop-color:#F7E37F"/>
	</linearGradient>
	<path class="st17" d="M231,71l-0.7,0.4l-0.7,0.3l-0.6,0.2h-0.7l-0.7-0.1l-0.6-0.2l-0.7-0.3l-0.6-0.4l-0.7-0.4l-0.6-0.5l-0.6-0.5
		l-0.6-0.5l-0.6-0.5l-0.6-0.5l-0.5-0.5l-0.6-0.5h0.4l0.3,0.1l0.4,0.1l0.4,0.1l0.5,0.1h0.5l0.5,0.1l0.5,0.1l0.1,0.4l0.2,0.4l0.3,0.3
		l0.3,0.4l0.3,0.3l0.3,0.3l0.3,0.3l0.4,0.3l0.4,0.3l0.4,0.2l0.5,0.2l0.4,0.2l0.5,0.1l0.5,0.1l0.5,0.1L231,71L231,71z"/>
	
		<linearGradient id="SVGID_12_" gradientUnits="userSpaceOnUse" x1="-12.2782" y1="108.5438" x2="-12.2883" y2="108.3936" gradientTransform="matrix(155.2341 0 0 -69.3184 2136.2026 7585.9961)">
		<stop  offset="0" style="stop-color:#F7E37F"/>
		<stop  offset="0.1057" style="stop-color:#F7DB7C"/>
		<stop  offset="0.3493" style="stop-color:#F3C87C"/>
		<stop  offset="0.5198" style="stop-color:#F2C179"/>
		<stop  offset="0.7096" style="stop-color:#F5D17B"/>
		<stop  offset="1" style="stop-color:#F7E37F"/>
	</linearGradient>
	<path class="st18" d="M233.5,70.5l-0.5,0.2l-0.6,0.2l-0.6,0.1h-0.7l-0.7-0.1l-0.7-0.1l-0.7-0.2l-0.7-0.2l-0.7-0.3l-0.6-0.3
		l-0.5-0.4l-0.5-0.4l-0.4-0.4l-0.4-0.5l-0.3-0.5l-0.2-0.5l0.4,0.1h0.4l0.4,0.1l0.4,0.1h0.4l0.4,0.1l0.5,0.1h0.5l0.2,0.3l0.3,0.3
		l0.2,0.3l0.3,0.3l0.2,0.2l0.3,0.2l0.3,0.2l0.3,0.2l0.3,0.2l0.3,0.2l0.4,0.2l0.4,0.2l0.4,0.1l0.4,0.1l0.5,0.1L233.5,70.5L233.5,70.5
		z"/>
	
		<linearGradient id="SVGID_13_" gradientUnits="userSpaceOnUse" x1="-17.2685" y1="110.6248" x2="-17.2676" y2="110.5371" gradientTransform="matrix(116.1815 0 0 -54.6737 2237.7397 6111.7627)">
		<stop  offset="0" style="stop-color:#F7E37F"/>
		<stop  offset="0.1057" style="stop-color:#F7DB7C"/>
		<stop  offset="0.3493" style="stop-color:#F3C87C"/>
		<stop  offset="0.5198" style="stop-color:#F2C179"/>
		<stop  offset="0.7096" style="stop-color:#F5D17B"/>
		<stop  offset="1" style="stop-color:#F7E37F"/>
	</linearGradient>
	<path class="st19" d="M234.8,70.1l-0.2,0.2l-0.3,0.1l-0.4,0.1h-0.4l-0.4-0.1l-0.4-0.1l-0.5-0.2l-0.5-0.2l-0.5-0.2l-0.5-0.3
		l-0.5-0.3l-0.4-0.3l-0.4-0.3l-0.4-0.4l-0.3-0.4l-0.2-0.4l0.3,0.1h0.3l0.3,0.1l0.3,0.1h0.3l0.3,0.1h0.4v0.1l0.3,0.3l0.5,0.3l0.6,0.4
		l0.8,0.4l0.8,0.4l0.8,0.3L234.8,70.1L234.8,70.1z"/>
	
		<linearGradient id="SVGID_14_" gradientUnits="userSpaceOnUse" x1="-21.7879" y1="112.8049" x2="-21.7868" y2="112.6981" gradientTransform="matrix(94.7026 0 0 -44.9105 2296.3188 5129.5815)">
		<stop  offset="0" style="stop-color:#F7E37F"/>
		<stop  offset="0.1057" style="stop-color:#F7DB7C"/>
		<stop  offset="0.3493" style="stop-color:#F3C87C"/>
		<stop  offset="0.5198" style="stop-color:#F2C179"/>
		<stop  offset="0.7096" style="stop-color:#F5D17B"/>
		<stop  offset="1" style="stop-color:#F7E37F"/>
	</linearGradient>
	<path class="st20" d="M235.7,69.2l-0.1,0.4l-0.2,0.3l-0.2,0.1l-0.4,0.1l-0.4-0.1l-0.5-0.1l-0.5-0.2l-0.5-0.3l-0.5-0.3l-0.5-0.3
		l-0.5-0.3l-0.4-0.3l-0.3-0.2l-0.3-0.2l-0.2-0.1v-0.1l2.5,0.3l0.2,0.1l0.3,0.2l0.4,0.2l0.4,0.2l0.4,0.2l0.4,0.2l0.4,0.2L235.7,69.2
		L235.7,69.2z"/>
	
		<linearGradient id="SVGID_15_" gradientUnits="userSpaceOnUse" x1="-33.6724" y1="124.6833" x2="-33.6713" y2="124.5459" gradientTransform="matrix(63.4608 0 0 -22.4552 2371.4941 2866.4822)">
		<stop  offset="0" style="stop-color:#F7E37F"/>
		<stop  offset="0.1057" style="stop-color:#F7DB7C"/>
		<stop  offset="0.3493" style="stop-color:#F3C87C"/>
		<stop  offset="0.5198" style="stop-color:#F2C179"/>
		<stop  offset="0.7096" style="stop-color:#F5D17B"/>
		<stop  offset="1" style="stop-color:#F7E37F"/>
	</linearGradient>
	<path class="st21" d="M232.9,67.9h0.5l0.5,0.1l0.4,0.1h0.4l0.4,0.1h0.4l0.4,0.1l0.4,0.1l-0.1,0.6l-0.3,0.3h-0.4l-0.5-0.2l-0.6-0.3
		l-0.6-0.3l-0.5-0.3L232.9,67.9L232.9,67.9z"/>
	
		<linearGradient id="SVGID_16_" gradientUnits="userSpaceOnUse" x1="-33.7025" y1="123.1276" x2="-33.7009" y2="122.9229" gradientTransform="matrix(63.4605 0 0 -23.4316 2373.4473 2948.4988)">
		<stop  offset="0" style="stop-color:#F7E37F"/>
		<stop  offset="0.1057" style="stop-color:#F7DB7C"/>
		<stop  offset="0.3493" style="stop-color:#F3C87C"/>
		<stop  offset="0.5198" style="stop-color:#F2C179"/>
		<stop  offset="0.7096" style="stop-color:#F5D17B"/>
		<stop  offset="1" style="stop-color:#F7E37F"/>
	</linearGradient>
	<path class="st22" d="M233,67.6l0.5,0.1l0.4,0.1l0.4,0.1l0.4,0.1l0.4,0.1l0.4,0.1l0.4,0.1l0.4,0.1l0.1-0.7l-0.3-0.5l-0.4-0.1
		l-0.6-0.1l-0.7,0.1l-0.7,0.2l-0.5,0.2L233,67.6z"/>
	
		<linearGradient id="SVGID_17_" gradientUnits="userSpaceOnUse" x1="-3.5615" y1="102.8157" x2="-3.5466" y2="102.9112" gradientTransform="matrix(297.7765 0 0 -153.2815 1249.7075 15825.1191)">
		<stop  offset="0" style="stop-color:#6B3A94"/>
		<stop  offset="0.1058" style="stop-color:#8B3084"/>
		<stop  offset="0.2653" style="stop-color:#B5266C"/>
		<stop  offset="0.4092" style="stop-color:#D31C5E"/>
		<stop  offset="0.5309" style="stop-color:#E52156"/>
		<stop  offset="0.6158" style="stop-color:#EA2450"/>
		<stop  offset="1" style="stop-color:#F7E37F"/>
	</linearGradient>
	<path class="st23" d="M199.8,54.6l-1.4-0.5l-1.3-0.4l-1.3-0.1l-1.2,0.1l-1.2,0.2l-1,0.4l-1,0.5l-1,0.6l-1,0.7l-0.9,0.8l-0.9,0.8
		l-0.9,0.8l-0.9,0.8l-0.9,0.8l-0.9,0.8l-0.9,0.7l0.3,0.1l0.4,0.1h0.3l0.3,0.1h0.3l0.4,0.1h0.4l0.3,0.1h0.3l0.4,0.1l0.4,0.1l0.4,0.1
		h0.4l0.4,0.1l0.4,0.1l0.4,0.1l0.3-0.4l0.4-0.5l0.4-0.6l0.6-0.7l0.6-0.7l0.7-0.7l0.8-0.7l0.7-0.7l0.8-0.7L195,56l0.8-0.5l0.8-0.4
		l0.8-0.3l0.8-0.2l0.8-0.1L199.8,54.6L199.8,54.6z"/>
	
		<linearGradient id="SVGID_18_" gradientUnits="userSpaceOnUse" x1="-5.1635" y1="103.0409" x2="-5.1298" y2="103.12" gradientTransform="matrix(236.2685 0 0 -147.4237 1415.6818 15249.1025)">
		<stop  offset="0" style="stop-color:#6B3A94"/>
		<stop  offset="0.1058" style="stop-color:#8B3084"/>
		<stop  offset="0.2653" style="stop-color:#B5266C"/>
		<stop  offset="0.4092" style="stop-color:#D31C5E"/>
		<stop  offset="0.5309" style="stop-color:#E52156"/>
		<stop  offset="0.6158" style="stop-color:#EA2450"/>
		<stop  offset="1" style="stop-color:#F7E37F"/>
	</linearGradient>
	<path class="st24" d="M202.2,55.1l-0.8-0.3l-0.8-0.2l-0.7-0.2l-0.8-0.1l-0.8,0.1l-0.8,0.2l-0.7,0.2l-0.8,0.4l-0.8,0.4l-0.8,0.5
		l-0.8,0.7l-0.9,0.8l-0.9,0.9l-0.9,1l-1,1.2l-1,1.3h0.5l0.5,0.1h0.4l0.5,0.1l0.4,0.1l0.4,0.1l0.5,0.1l0.7,0.1l0.6-0.5l0.5-0.5
		l0.6-0.5l0.5-0.5l0.5-0.5l0.5-0.5l0.5-0.5l0.5-0.5l0.5-0.5l0.6-0.4L199,57l0.6-0.5l0.6-0.4l0.7-0.3l0.6-0.3L202.2,55.1L202.2,55.1z
		"/>
	
		<linearGradient id="SVGID_19_" gradientUnits="userSpaceOnUse" x1="-6.2831" y1="103.0867" x2="-6.2619" y2="103.188" gradientTransform="matrix(209.9079 0 0 -144.4947 1515.2659 14963.0391)">
		<stop  offset="0" style="stop-color:#6B3A94"/>
		<stop  offset="0.1058" style="stop-color:#8B3084"/>
		<stop  offset="0.2653" style="stop-color:#B5266C"/>
		<stop  offset="0.4092" style="stop-color:#D31C5E"/>
		<stop  offset="0.5309" style="stop-color:#E52156"/>
		<stop  offset="0.6158" style="stop-color:#EA2450"/>
		<stop  offset="1" style="stop-color:#F7E37F"/>
	</linearGradient>
	<path class="st25" d="M204.8,55.8l-0.6-0.5l-0.7-0.3l-0.7-0.1l-0.8,0.2l-0.8,0.3l-0.8,0.4l-0.8,0.5l-0.8,0.7l-0.8,0.7l-0.8,0.8
		l-0.8,0.8l-0.8,0.8l-0.7,0.7l-0.7,0.7l-0.6,0.6l-0.6,0.5l3.5,0.4l0.4-0.5l0.4-0.5l0.4-0.5l0.5-0.5l0.4-0.5l0.4-0.5l0.5-0.5l0.4-0.5
		l0.5-0.4l0.5-0.5l0.5-0.4l0.6-0.4l0.6-0.4l0.6-0.4l0.7-0.3L204.8,55.8L204.8,55.8z"/>
	
		<linearGradient id="SVGID_20_" gradientUnits="userSpaceOnUse" x1="-5.6376" y1="103.2855" x2="-5.6043" y2="103.369" gradientTransform="matrix(239.1975 0 0 -139.6131 1550.4131 14482.6836)">
		<stop  offset="0" style="stop-color:#6B3A94"/>
		<stop  offset="0.1058" style="stop-color:#8B3084"/>
		<stop  offset="0.2653" style="stop-color:#B5266C"/>
		<stop  offset="0.4092" style="stop-color:#D31C5E"/>
		<stop  offset="0.5309" style="stop-color:#E52156"/>
		<stop  offset="0.6158" style="stop-color:#EA2450"/>
		<stop  offset="1" style="stop-color:#F7E37F"/>
	</linearGradient>
	<path class="st26" d="M210.1,58.1l-0.9-0.9l-0.9-0.7l-0.9-0.4l-0.9-0.3l-0.9-0.1l-0.9,0.2l-0.9,0.3l-0.8,0.4l-0.8,0.6l-0.8,0.7
		l-0.8,0.8l-0.8,0.8l-0.8,0.9l-0.8,0.9l-0.8,0.9l-0.8,0.9l0.6,0.1l0.5,0.1h0.4l0.4,0.1l0.4,0.1l0.4,0.1l0.5,0.1l0.6,0.1l0.7-0.9
		l0.6-0.8l0.7-0.7l0.6-0.6l0.7-0.5l0.6-0.5l0.6-0.4l0.7-0.3l0.6-0.3l0.5-0.2l0.7-0.1l0.5-0.2l0.5-0.1l0.5-0.1L210.1,58.1L210.1,58.1
		z"/>
	
		<linearGradient id="SVGID_21_" gradientUnits="userSpaceOnUse" x1="-5.937" y1="104.2849" x2="-5.9184" y2="104.4212" gradientTransform="matrix(238.2211 0 0 -107.3947 1618.7552 11269.6328)">
		<stop  offset="0" style="stop-color:#6B3A94"/>
		<stop  offset="0.1058" style="stop-color:#8B3084"/>
		<stop  offset="0.2653" style="stop-color:#B5266C"/>
		<stop  offset="0.4092" style="stop-color:#D31C5E"/>
		<stop  offset="0.5309" style="stop-color:#E52156"/>
		<stop  offset="0.6158" style="stop-color:#EA2450"/>
		<stop  offset="1" style="stop-color:#F7E37F"/>
	</linearGradient>
	<path class="st27" d="M213.8,58.9l-1-0.4l-1-0.3l-1-0.2l-0.9-0.1h-0.9l-0.9,0.2l-0.9,0.2l-0.8,0.3l-0.8,0.4l-0.8,0.4l-0.8,0.5
		l-0.7,0.6l-0.8,0.6l-0.7,0.7l-0.7,0.8l-0.7,0.8l0.7,0.1l0.8,0.1l0.8,0.1l0.8,0.1l0.7,0.1l0.5,0.1l0.4,0.1h0.2l0.1-0.1l0.2-0.2
		l0.2-0.2l0.3-0.3l0.3-0.3l0.4-0.4l0.5-0.4l0.5-0.5l0.6-0.4l0.6-0.4l0.7-0.4l0.8-0.4l0.8-0.4l0.8-0.3l0.9-0.3L213.8,58.9L213.8,58.9
		z"/>
	
		<linearGradient id="SVGID_22_" gradientUnits="userSpaceOnUse" x1="-6.3074" y1="104.6736" x2="-6.2739" y2="104.7895" gradientTransform="matrix(237.2449 0 0 -100.5604 1704.6708 10593.0342)">
		<stop  offset="0" style="stop-color:#6B3A94"/>
		<stop  offset="0.1058" style="stop-color:#8B3084"/>
		<stop  offset="0.2653" style="stop-color:#B5266C"/>
		<stop  offset="0.4092" style="stop-color:#D31C5E"/>
		<stop  offset="0.5309" style="stop-color:#E52156"/>
		<stop  offset="0.6158" style="stop-color:#EA2450"/>
		<stop  offset="1" style="stop-color:#F7E37F"/>
	</linearGradient>
	<path class="st28" d="M218.5,59.5l-0.8-0.3l-0.9-0.3l-0.9-0.1H215l-0.9,0.1l-0.9,0.2l-0.9,0.3l-0.9,0.3l-0.9,0.4l-0.9,0.4l-0.8,0.5
		l-0.8,0.5l-0.7,0.5l-0.8,0.6l-0.7,0.6l-0.6,0.6l0.4,0.1l0.5,0.1l0.5,0.1l0.6,0.1l0.7,0.1l0.5,0.1h0.9v-0.1l0.1-0.2l0.3-0.2l0.5-0.3
		l0.5-0.3l0.7-0.4l0.8-0.4L213,62l0.8-0.4l0.8-0.4l0.8-0.4l0.8-0.4L217,60l0.6-0.2l0.5-0.2L218.5,59.5L218.5,59.5z"/>
	
		<linearGradient id="SVGID_23_" gradientUnits="userSpaceOnUse" x1="-6.284" y1="104.5484" x2="-6.266" y2="104.6886" gradientTransform="matrix(247.0088 0 0 -104.4657 1765.2019 10994.3086)">
		<stop  offset="0" style="stop-color:#6B3A94"/>
		<stop  offset="0.1058" style="stop-color:#8B3084"/>
		<stop  offset="0.2653" style="stop-color:#B5266C"/>
		<stop  offset="0.4092" style="stop-color:#D31C5E"/>
		<stop  offset="0.5309" style="stop-color:#E52156"/>
		<stop  offset="0.6158" style="stop-color:#EA2450"/>
		<stop  offset="1" style="stop-color:#F7E37F"/>
	</linearGradient>
	<path class="st29" d="M223,60.4l-0.4-0.7l-0.7-0.4l-0.9-0.1h-0.9l-1,0.2l-1.2,0.3l-1.2,0.5l-1.2,0.5l-1.2,0.6l-1.1,0.6l-1.1,0.7
		l-0.9,0.6l-0.8,0.5l-0.6,0.4l-0.4,0.3l-0.2,0.1l0.4,0.1l0.5,0.1l0.5,0.1l0.5,0.1l0.6,0.1l0.6,0.1L213,65l0.5,0.1l0.6-0.3l0.6-0.3
		l0.6-0.3l0.5-0.3l0.6-0.3l0.5-0.3l0.6-0.3l0.6-0.3l0.5-0.3l0.6-0.3l0.6-0.3l0.5-0.3l0.6-0.3l0.6-0.2l0.6-0.3L223,60.4L223,60.4z"/>
	
		<linearGradient id="SVGID_24_" gradientUnits="userSpaceOnUse" x1="-8.2326" y1="105.8597" x2="-8.2321" y2="105.8032" gradientTransform="matrix(208.9314 0 0 -84.9394 1942.8925 9055.3418)">
		<stop  offset="0" style="stop-color:#F7E37F"/>
		<stop  offset="0.1057" style="stop-color:#F7DB7C"/>
		<stop  offset="0.3493" style="stop-color:#F3C87C"/>
		<stop  offset="0.5198" style="stop-color:#F2C179"/>
		<stop  offset="0.7096" style="stop-color:#F5D17B"/>
		<stop  offset="1" style="stop-color:#F7E37F"/>
	</linearGradient>
	<path class="st30" d="M228.7,62l-0.7-0.5l-0.8-0.3l-0.8-0.1h-0.9l-0.9,0.2l-0.9,0.3l-0.9,0.3l-0.9,0.4l-0.8,0.5l-0.9,0.4l-0.8,0.5
		l-0.7,0.4l-0.6,0.4l-0.5,0.4l-0.4,0.2l-0.2,0.2l0.5,0.1l0.5,0.1l0.4,0.1h0.4l0.4,0.1l0.4,0.1l0.5,0.1l0.5,0.1l0.4-0.3l0.4-0.3
		l0.5-0.4l0.5-0.3l0.5-0.3l0.5-0.3l0.5-0.4l0.5-0.3l0.5-0.3l0.5-0.3l0.5-0.3l0.5-0.2l0.5-0.2l0.5-0.1h0.5L228.7,62L228.7,62z"/>
	
		<linearGradient id="SVGID_25_" gradientUnits="userSpaceOnUse" x1="-7.0513" y1="105.3274" x2="-7.058" y2="105.2151" gradientTransform="matrix(232.3632 0 0 -92.7499 1858.9288 9829.5635)">
		<stop  offset="0" style="stop-color:#F7E37F"/>
		<stop  offset="0.1057" style="stop-color:#F7DB7C"/>
		<stop  offset="0.3493" style="stop-color:#F3C87C"/>
		<stop  offset="0.5198" style="stop-color:#F2C179"/>
		<stop  offset="0.7096" style="stop-color:#F5D17B"/>
		<stop  offset="1" style="stop-color:#F7E37F"/>
	</linearGradient>
	<path class="st31" d="M226.6,61l-0.5-0.4l-0.6-0.2l-0.5-0.2l-0.5-0.1l-0.5,0.1l-0.7,0.1l-0.7,0.2l-0.7,0.3l-0.8,0.3l-0.8,0.4
		l-0.9,0.5l-1,0.5l-1,0.5l-1.2,0.6l-1.3,0.6l-1.4,0.7l0.5,0.1l0.5,0.1l0.5,0.1l0.6,0.1l0.5,0.1l0.4,0.1l0.3,0.1l0.1-0.1l0.1-0.1
		l0.2-0.2l0.3-0.3l0.4-0.3l0.5-0.3l0.6-0.4l0.6-0.4l0.7-0.4l0.7-0.4l0.8-0.4l0.8-0.3l0.8-0.3l0.8-0.3l0.8-0.2l0.8-0.1H226.6
		L226.6,61z"/>
	
		<linearGradient id="SVGID_26_" gradientUnits="userSpaceOnUse" x1="-9.5702" y1="106.5148" x2="-9.5784" y2="106.3815" gradientTransform="matrix(188.4291 0 0 -78.1052 2029.7838 8380.7109)">
		<stop  offset="0" style="stop-color:#F7E37F"/>
		<stop  offset="0.1057" style="stop-color:#F7DB7C"/>
		<stop  offset="0.3493" style="stop-color:#F3C87C"/>
		<stop  offset="0.5198" style="stop-color:#F2C179"/>
		<stop  offset="0.7096" style="stop-color:#F5D17B"/>
		<stop  offset="1" style="stop-color:#F7E37F"/>
	</linearGradient>
	<path class="st32" d="M231.3,63.6l-0.6-0.6l-0.6-0.5l-0.6-0.3l-0.6-0.2l-0.7-0.1l-0.7,0.1l-0.7,0.2l-0.7,0.2l-0.7,0.4l-0.7,0.3
		l-0.7,0.4l-0.7,0.4l-0.7,0.5l-0.7,0.4l-0.7,0.5l-0.7,0.4l0.3,0.1h0.4L222,66l0.5,0.1l0.5,0.1l0.6,0.1l0.5,0.1l0.5,0.1l0.2-0.4
		l0.2-0.3l0.3-0.4l0.3-0.3l0.3-0.3l0.4-0.2l0.4-0.2l0.4-0.2l0.4-0.2l0.5-0.2l0.4-0.1l0.5-0.1l0.5-0.1h0.5l0.5,0.1L231.3,63.6
		L231.3,63.6z"/>
	
		<linearGradient id="SVGID_27_" gradientUnits="userSpaceOnUse" x1="-16.1027" y1="112.7211" x2="-16.1153" y2="112.4672" gradientTransform="matrix(123.9922 0 0 -41.0052 2228.9526 4684.3799)">
		<stop  offset="0" style="stop-color:#F7E37F"/>
		<stop  offset="0.1057" style="stop-color:#F7DB7C"/>
		<stop  offset="0.3493" style="stop-color:#F3C87C"/>
		<stop  offset="0.5198" style="stop-color:#F2C179"/>
		<stop  offset="0.7096" style="stop-color:#F5D17B"/>
		<stop  offset="1" style="stop-color:#F7E37F"/>
	</linearGradient>
	<path class="st33" d="M235.2,65.7l-0.2-0.3l-0.3-0.2l-0.3-0.2l-0.4-0.1l-0.5-0.1H232l-0.5,0.1l-0.5,0.2l-0.5,0.2l-0.5,0.2l-0.5,0.3
		l-0.4,0.3l-0.4,0.3l-0.3,0.4l0.3,0.1l0.3,0.1l0.4,0.1l0.3,0.1h0.3l0.3,0.1h0.2l0.2-0.1l0.3-0.2l0.5-0.3l0.7-0.3l0.7-0.2l0.8-0.3
		l0.8-0.1L235.2,65.7L235.2,65.7z"/>
	
		<linearGradient id="SVGID_28_" gradientUnits="userSpaceOnUse" x1="-20.4493" y1="115.4579" x2="-20.4482" y2="115.3175" gradientTransform="matrix(100.5604 0 0 -34.171 2289.4844 4008.7725)">
		<stop  offset="0" style="stop-color:#F7E37F"/>
		<stop  offset="0.1057" style="stop-color:#F7DB7C"/>
		<stop  offset="0.3493" style="stop-color:#F3C87C"/>
		<stop  offset="0.5198" style="stop-color:#F2C179"/>
		<stop  offset="0.7096" style="stop-color:#F5D17B"/>
		<stop  offset="1" style="stop-color:#F7E37F"/>
	</linearGradient>
	<path class="st34" d="M236,67v-0.5l-0.1-0.4l-0.2-0.2l-0.4-0.2l-0.4-0.1l-0.5,0.1l-0.5,0.1l-0.6,0.2l-0.5,0.2l-0.5,0.2l-0.5,0.2
		l-0.4,0.2l-0.4,0.2l-0.3,0.1l-0.2,0.2h-0.1l2.6,0.4l0.2-0.1l0.3-0.1l0.4-0.1l0.4-0.2l0.4-0.1l0.5-0.1h0.4L236,67L236,67z"/>
	
		<linearGradient id="SVGID_29_" gradientUnits="userSpaceOnUse" x1="-11.5551" y1="108.5151" x2="-11.5545" y2="108.4359" gradientTransform="matrix(164.0211 0 0 -60.5315 2124.4868 6632.1299)">
		<stop  offset="0" style="stop-color:#F7E37F"/>
		<stop  offset="0.1057" style="stop-color:#F7DB7C"/>
		<stop  offset="0.3493" style="stop-color:#F3C87C"/>
		<stop  offset="0.5198" style="stop-color:#F2C179"/>
		<stop  offset="0.7096" style="stop-color:#F5D17B"/>
		<stop  offset="1" style="stop-color:#F7E37F"/>
	</linearGradient>
	<path class="st35" d="M233.9,64.9l-0.5-0.4l-0.5-0.3l-0.6-0.3l-0.7-0.2l-0.7-0.1l-0.7-0.1h-0.7l-0.7,0.1l-0.7,0.1l-0.7,0.2
		l-0.6,0.3l-0.6,0.3l-0.5,0.4l-0.5,0.4l-0.3,0.5l-0.3,0.5l0.4,0.1l0.4,0.1l0.4,0.1l0.4,0.1l0.4,0.1l0.5,0.1l0.5,0.1l0.5,0.1l0.2-0.3
		l0.2-0.2l0.2-0.2l0.3-0.2l0.3-0.2l0.4-0.2l0.3-0.2l0.4-0.2L231,65l0.4-0.1l0.4-0.1l0.4-0.1h1.3L233.9,64.9L233.9,64.9z"/>
	
		<linearGradient id="SVGID_30_" gradientUnits="userSpaceOnUse" x1="-3.5758" y1="102.3702" x2="-3.6353" y2="102.3067" gradientTransform="matrix(58.5789 0 0 -162.0685 330.9948 16641.332)">
		<stop  offset="0" style="stop-color:#803B96"/>
		<stop  offset="7.099999e-02" style="stop-color:#9D2F82"/>
		<stop  offset="0.1599" style="stop-color:#B92971"/>
		<stop  offset="0.2542" style="stop-color:#D02362"/>
		<stop  offset="0.3554" style="stop-color:#DE2058"/>
		<stop  offset="0.4682" style="stop-color:#E82354"/>
		<stop  offset="0.6158" style="stop-color:#EA2450"/>
		<stop  offset="1" style="stop-color:#F7E37F"/>
	</linearGradient>
	<path class="st36" d="M120.2,49.6l-0.1,0.1l-0.2,0.2l-0.2,0.4l-0.3,0.5l-0.3,0.6l-0.3,0.7l-0.3,0.8l-0.3,0.8l-0.2,0.8l-0.1,0.8V56
		l0.2,0.7l0.4,0.7l0.5,0.5l0.8,0.4l1,0.3l-0.2-0.5l-0.1-0.5l-0.1-0.5l-0.1-0.6l-0.1-0.5v-0.6l0.1-0.6l0.1-0.6l0.1-0.6l0.1-0.6
		l0.1-0.6l0.1-0.5l0.1-0.5l0.1-0.5l0.2-0.5l0.1-0.4l-0.2-0.1H121l-0.2-0.1l-0.1-0.1l-0.2-0.1l-0.1-0.1l-0.2-0.1L120.2,49.6
		L120.2,49.6z"/>
	
		<linearGradient id="SVGID_31_" gradientUnits="userSpaceOnUse" x1="-3.4201" y1="102.1728" x2="-3.4704" y2="102.1201" gradientTransform="matrix(69.3184 0 0 -195.2632 361.2606 20001.8125)">
		<stop  offset="0" style="stop-color:#803B96"/>
		<stop  offset="7.099999e-02" style="stop-color:#9D2F82"/>
		<stop  offset="0.1599" style="stop-color:#B92971"/>
		<stop  offset="0.2542" style="stop-color:#D02362"/>
		<stop  offset="0.3554" style="stop-color:#DE2058"/>
		<stop  offset="0.4682" style="stop-color:#E82354"/>
		<stop  offset="0.6158" style="stop-color:#EA2450"/>
		<stop  offset="1" style="stop-color:#F7E37F"/>
	</linearGradient>
	<path class="st37" d="M121.2,50l-0.4,1.8l-0.3,1.6l-0.2,1.4V56l0.1,1.1l0.2,0.9l0.3,0.8l0.3,0.7l0.4,0.5l0.4,0.4l0.4,0.3l0.4,0.2
		l0.4,0.2l0.4,0.1h0.7l-0.2-0.5l-0.2-0.5l-0.2-0.6l-0.1-0.5l-0.1-0.7l-0.1-0.6l-0.1-0.7l-0.1-0.7l-0.1-0.7v-0.7l0.1-0.7l0.1-0.7
		l0.1-0.7l0.1-0.7l0.2-0.7l0.2-0.7l-0.4-0.2l-0.4-0.1l-0.4-0.1l-0.3-0.1l-0.3-0.1l-0.3-0.1l-0.3-0.1L121.2,50L121.2,50z"/>
	
		<linearGradient id="SVGID_32_" gradientUnits="userSpaceOnUse" x1="-3.228" y1="102.161" x2="-3.2695" y2="102.1117" gradientTransform="matrix(83.9632 0 0 -208.9317 398.3605 21396.9668)">
		<stop  offset="0" style="stop-color:#803B96"/>
		<stop  offset="7.099999e-02" style="stop-color:#9D2F82"/>
		<stop  offset="0.1599" style="stop-color:#B92971"/>
		<stop  offset="0.2542" style="stop-color:#D02362"/>
		<stop  offset="0.3554" style="stop-color:#DE2058"/>
		<stop  offset="0.4682" style="stop-color:#E82354"/>
		<stop  offset="0.6158" style="stop-color:#EA2450"/>
		<stop  offset="1" style="stop-color:#F7E37F"/>
	</linearGradient>
	<path class="st38" d="M123.8,50.9l-0.2,0.6l-0.2,0.8l-0.1,0.9l-0.1,1l-0.1,1.1v1.1l0.1,1.1l0.2,1l0.2,1l0.3,0.9l0.4,0.8l0.5,0.7
		l0.6,0.5l0.7,0.2l0.8,0.1l0.9-0.3l-0.3-0.5l-0.4-0.6l-0.3-0.7l-0.3-0.6l-0.2-0.7l-0.2-0.7l-0.1-0.7l-0.1-0.7l-0.1-0.7v-1.4l0.1-0.7
		l0.1-0.7l0.1-0.7l0.2-0.7l0.2-0.7l-0.3-0.1l-0.4-0.1l-0.4-0.1l-0.4-0.2l-0.4-0.1l-0.3-0.1l-0.3-0.1L123.8,50.9L123.8,50.9z"/>
	
		<linearGradient id="SVGID_33_" gradientUnits="userSpaceOnUse" x1="-2.8064" y1="102.1649" x2="-2.8395" y2="102.1183" gradientTransform="matrix(105.4421 0 0 -220.6474 426.6737 22595.875)">
		<stop  offset="0" style="stop-color:#803B96"/>
		<stop  offset="7.099999e-02" style="stop-color:#9D2F82"/>
		<stop  offset="0.1599" style="stop-color:#B92971"/>
		<stop  offset="0.2542" style="stop-color:#D02362"/>
		<stop  offset="0.3554" style="stop-color:#DE2058"/>
		<stop  offset="0.4682" style="stop-color:#E82354"/>
		<stop  offset="0.6158" style="stop-color:#EA2450"/>
		<stop  offset="1" style="stop-color:#F7E37F"/>
	</linearGradient>
	<path class="st39" d="M131.9,64.1l-0.8,0.1l-0.9-0.1l-0.7-0.3l-0.7-0.4l-0.7-0.6l-0.5-0.7l-0.4-0.8l-0.4-0.9l-0.3-1l-0.3-1.1
		l-0.2-1L126,56v-1.1l0.1-1.1l0.2-1l0.3-1l0.4,0.1l0.3,0.2l0.4,0.1l0.4,0.2l0.4,0.1l0.4,0.1l0.4,0.2l0.4,0.1v1.4l0.1,0.8v0.8
		l0.1,0.9l0.1,0.9l0.1,0.9l0.1,0.9l0.2,0.9l0.1,0.8l0.2,0.8l0.2,0.7l0.3,0.5l0.3,0.5l0.3,0.3L131.9,64.1L131.9,64.1z"/>
	
		<linearGradient id="SVGID_34_" gradientUnits="userSpaceOnUse" x1="-4.7306" y1="102.2506" x2="-4.7587" y2="102.1917" gradientTransform="matrix(81.0341 0 0 -220.6475 516.4948 22613.459)">
		<stop  offset="0" style="stop-color:#803B96"/>
		<stop  offset="9.590000e-02" style="stop-color:#883C93"/>
		<stop  offset="0.2469" style="stop-color:#9F3D91"/>
		<stop  offset="0.4329" style="stop-color:#C33C89"/>
		<stop  offset="0.6158" style="stop-color:#EC4081"/>
		<stop  offset="1" style="stop-color:#F7E37F"/>
	</linearGradient>
	<path class="st40" d="M129.7,52.7l0.3,0.2l0.3,0.1l0.3,0.1l0.3,0.1l0.3,0.1l0.3,0.1l0.3,0.1l0.3,0.1l0.1,0.7l0.1,0.7l0.1,0.8v2.5
		l0.1,0.9v0.8l0.1,0.8l0.1,0.8l0.2,0.8l0.2,0.7l0.3,0.7l0.3,0.7l0.4,0.5l0.4,0.4l-0.9-0.2l-0.8-0.3l-0.7-0.5l-0.5-0.5l-0.4-0.6
		l-0.3-0.7l-0.3-0.8l-0.2-0.8l-0.2-0.9l-0.1-0.9V58l-0.1-1v-1l-0.1-1v-1.1L129.7,52.7L129.7,52.7z"/>
	
		<linearGradient id="SVGID_35_" gradientUnits="userSpaceOnUse" x1="-3.8082" y1="102.246" x2="-3.8192" y2="102.2112" gradientTransform="matrix(105.4421 0 0 -228.4579 536.9974 23416.9551)">
		<stop  offset="0" style="stop-color:#803B96"/>
		<stop  offset="7.099999e-02" style="stop-color:#9D2F82"/>
		<stop  offset="0.1599" style="stop-color:#B92971"/>
		<stop  offset="0.2542" style="stop-color:#D02362"/>
		<stop  offset="0.3554" style="stop-color:#DE2058"/>
		<stop  offset="0.4682" style="stop-color:#E82354"/>
		<stop  offset="0.6158" style="stop-color:#EA2450"/>
		<stop  offset="1" style="stop-color:#F7E37F"/>
	</linearGradient>
	<path class="st41" d="M138.1,66.4l-1.3-0.1l-1.1-0.3l-0.9-0.4l-0.7-0.5l-0.6-0.7l-0.4-0.8l-0.3-0.9l-0.2-1l-0.1-1l-0.1-1l-0.1-1.1
		v-3.1l-0.1-1l-0.1-0.9l0.3,0.1l0.3,0.1l0.3,0.1l0.3,0.1l0.3,0.1l0.3,0.1l0.3,0.1l0.4,0.1l-0.1,0.1l-0.1,0.2l-0.1,0.4l-0.1,0.4
		l-0.1,0.5l-0.1,0.7l-0.1,0.7l0.1,0.8l0.1,0.9l0.2,1l0.3,1l0.3,1l0.5,1.1l0.7,1.1l0.8,1.1L138.1,66.4z"/>
	
		<linearGradient id="SVGID_36_" gradientUnits="userSpaceOnUse" x1="-2.7229" y1="102.221" x2="-2.7309" y2="102.1883" gradientTransform="matrix(145.4709 0 0 -243.1026 535.045 24908.7617)">
		<stop  offset="0" style="stop-color:#803B96"/>
		<stop  offset="7.099999e-02" style="stop-color:#9D2F82"/>
		<stop  offset="0.1599" style="stop-color:#B92971"/>
		<stop  offset="0.2542" style="stop-color:#D02362"/>
		<stop  offset="0.3554" style="stop-color:#DE2058"/>
		<stop  offset="0.4682" style="stop-color:#E82354"/>
		<stop  offset="0.6158" style="stop-color:#EA2450"/>
		<stop  offset="1" style="stop-color:#F7E37F"/>
	</linearGradient>
	<path class="st42" d="M142.5,67.7l-0.9,0.2l-0.9-0.1l-0.8-0.3l-0.8-0.5l-0.8-0.6l-0.8-0.7l-0.7-0.9l-0.7-1l-0.5-1.1l-0.5-1.2
		l-0.4-1.2l-0.3-1.2l-0.1-1.3l-0.1-1.3l0.1-1.2l0.3-1.3l3,1v0.5l-0.1,0.6l0.1,0.7l0.1,0.8l0.1,0.8l0.2,0.9l0.1,0.9l0.3,0.9l0.3,0.9
		l0.4,0.9l0.4,0.9l0.5,0.9l0.5,0.8l0.6,0.8l0.7,0.7L142.5,67.7z"/>
	
		<linearGradient id="SVGID_37_" gradientUnits="userSpaceOnUse" x1="-3.1665" y1="102.3283" x2="-3.1792" y2="102.2539" gradientTransform="matrix(143.5184 0 0 -236.2685 596.5526 24235.1191)">
		<stop  offset="0" style="stop-color:#803B96"/>
		<stop  offset="7.099999e-02" style="stop-color:#9D2F82"/>
		<stop  offset="0.1599" style="stop-color:#B92971"/>
		<stop  offset="0.2542" style="stop-color:#D02362"/>
		<stop  offset="0.3554" style="stop-color:#DE2058"/>
		<stop  offset="0.4682" style="stop-color:#E82354"/>
		<stop  offset="0.6158" style="stop-color:#EA2450"/>
		<stop  offset="1" style="stop-color:#F7E37F"/>
	</linearGradient>
	<path class="st43" d="M137.7,55.2l0.5,0.2l0.6,0.1l0.7,0.3l0.7,0.2l0.7,0.2l0.7,0.2l0.6,0.1l0.4,0.1l0.1,0.8l0.1,0.8l0.1,0.8
		l0.1,0.8l0.1,0.8l0.1,0.9l0.1,0.8l0.2,0.8l0.2,0.8l0.2,0.8l0.3,0.8l0.3,0.7l0.3,0.7l0.4,0.5l0.4,0.5l0.5,0.5l-0.7,0.1h-0.7
		l-0.7-0.2l-0.7-0.3l-0.7-0.4l-0.7-0.5l-0.6-0.7l-0.7-0.8l-0.6-0.9l-0.5-1l-0.5-1.1l-0.4-1.3l-0.3-1.4l-0.3-1.5l-0.2-1.6L137.7,55.2
		L137.7,55.2z"/>
	
		<linearGradient id="SVGID_38_" gradientUnits="userSpaceOnUse" x1="-4.1541" y1="102.5127" x2="-4.1628" y2="102.4769" gradientTransform="matrix(131.8025 0 0 -222.6 694.1845 22879.0078)">
		<stop  offset="0" style="stop-color:#803B96"/>
		<stop  offset="7.099999e-02" style="stop-color:#9D2F82"/>
		<stop  offset="0.1599" style="stop-color:#B92971"/>
		<stop  offset="0.2542" style="stop-color:#D02362"/>
		<stop  offset="0.3554" style="stop-color:#DE2058"/>
		<stop  offset="0.4682" style="stop-color:#E82354"/>
		<stop  offset="0.6158" style="stop-color:#EA2450"/>
		<stop  offset="1" style="stop-color:#F7E37F"/>
	</linearGradient>
	<path class="st44" d="M149.9,69l-1.4,0.1l-1.2-0.1l-1-0.3l-0.8-0.5l-0.7-0.7l-0.6-0.8l-0.4-0.9l-0.3-1l-0.3-1l-0.2-1.2l-0.1-1.1
		l-0.1-1l-0.1-1.1l-0.1-1l-0.1-0.9l-0.1-0.8l0.4,0.1l0.4,0.1l0.4,0.1l0.3,0.1l0.4,0.1l0.3,0.1l0.4,0.1l0.5,0.1l0.1,0.9l0.1,0.8
		l0.1,0.8l0.1,0.8l0.1,0.8l0.1,0.8l0.2,0.8l0.2,0.7l0.2,0.7l0.3,0.7l0.3,0.7l0.3,0.7l0.4,0.7l0.5,0.7l0.6,0.6L149.9,69L149.9,69z"/>
	
		<linearGradient id="SVGID_39_" gradientUnits="userSpaceOnUse" x1="-4.1097" y1="102.607" x2="-4.1224" y2="102.527" gradientTransform="matrix(143.5184 0 0 -219.6711 740.0711 22598.8125)">
		<stop  offset="0" style="stop-color:#803B96"/>
		<stop  offset="7.099999e-02" style="stop-color:#9D2F82"/>
		<stop  offset="0.1599" style="stop-color:#B92971"/>
		<stop  offset="0.2542" style="stop-color:#D02362"/>
		<stop  offset="0.3554" style="stop-color:#DE2058"/>
		<stop  offset="0.4682" style="stop-color:#E82354"/>
		<stop  offset="0.6158" style="stop-color:#EA2450"/>
		<stop  offset="1" style="stop-color:#F7E37F"/>
	</linearGradient>
	<path class="st45" d="M153.8,69.7l-1.3,0.1l-1.2-0.2l-1-0.3l-0.9-0.5l-0.7-0.7l-0.7-0.8l-0.5-0.9l-0.4-1l-0.4-1l-0.3-1.1l-0.3-1
		l-0.1-1.1l-0.2-1l-0.1-0.9l-0.1-0.9l-0.1-0.8l0.4,0.1l0.4,0.1l0.3,0.1l0.4,0.1l0.3,0.1l0.3,0.1l0.4,0.1l0.4,0.1l0.2,1.3l0.2,1.2
		l0.2,1.1l0.2,1l0.3,0.9l0.3,0.9l0.3,0.8l0.3,0.7l0.3,0.7l0.4,0.6l0.4,0.5l0.3,0.4l0.4,0.5l0.4,0.3l0.4,0.3L153.8,69.7L153.8,69.7z"
		/>
	
		<linearGradient id="SVGID_40_" gradientUnits="userSpaceOnUse" x1="-4.1199" y1="102.7066" x2="-4.124" y2="102.6641" gradientTransform="matrix(153.2815 0 0 -214.7895 784.9818 22119.4375)">
		<stop  offset="0" style="stop-color:#803B96"/>
		<stop  offset="7.099999e-02" style="stop-color:#9D2F82"/>
		<stop  offset="0.1599" style="stop-color:#B92971"/>
		<stop  offset="0.2542" style="stop-color:#D02362"/>
		<stop  offset="0.3554" style="stop-color:#DE2058"/>
		<stop  offset="0.4682" style="stop-color:#E82354"/>
		<stop  offset="0.6158" style="stop-color:#EA2450"/>
		<stop  offset="1" style="stop-color:#F7E37F"/>
	</linearGradient>
	<path class="st46" d="M157.4,70.2l-1.2,0.1l-1.1-0.2l-0.9-0.3l-0.9-0.5l-0.8-0.7l-0.7-0.8l-0.6-0.9l-0.5-1l-0.4-1l-0.4-1l-0.3-1
		l-0.2-1l-0.3-1l-0.1-1l-0.2-0.9l-0.1-0.8l0.4,0.1l0.4,0.1l0.4,0.1l0.4,0.1l0.4,0.1l0.4,0.1l0.4,0.1l0.4,0.1l0.1,0.6l0.1,0.7
		l0.1,0.7l0.2,0.8l0.2,0.8l0.3,0.8l0.3,0.8l0.3,0.8l0.4,0.9l0.4,0.8l0.4,0.8l0.5,0.7l0.5,0.7l0.5,0.5l0.5,0.5L157.4,70.2L157.4,70.2
		z"/>
	
		<linearGradient id="SVGID_41_" gradientUnits="userSpaceOnUse" x1="-3.9212" y1="102.754" x2="-3.9258" y2="102.6982" gradientTransform="matrix(169.8791 0 0 -215.7658 823.0578 22231.709)">
		<stop  offset="0" style="stop-color:#803B96"/>
		<stop  offset="7.099999e-02" style="stop-color:#9D2F82"/>
		<stop  offset="0.1599" style="stop-color:#B92971"/>
		<stop  offset="0.2542" style="stop-color:#D02362"/>
		<stop  offset="0.3554" style="stop-color:#DE2058"/>
		<stop  offset="0.4682" style="stop-color:#E82354"/>
		<stop  offset="0.6158" style="stop-color:#EA2450"/>
		<stop  offset="1" style="stop-color:#F7E37F"/>
	</linearGradient>
	<path class="st47" d="M161.4,70.9l-1.3,0.2l-1.2-0.2l-1-0.4l-0.9-0.7l-0.9-0.8l-0.8-0.9l-0.7-1.1l-0.7-1.1l-0.5-1.2l-0.5-1.2
		l-0.4-1.1l-0.3-1l-0.2-0.9l-0.2-0.8l-0.1-0.5V59l0.5,0.1l0.4,0.1l0.4,0.2l0.5,0.1l0.4,0.2l0.4,0.1l0.4,0.1l0.4,0.1l0.2,0.5l0.2,0.7
		l0.2,0.7l0.2,0.8l0.3,0.9l0.3,0.9l0.3,0.9l0.3,0.9l0.4,0.9l0.4,0.8l0.4,0.8l0.5,0.7l0.5,0.6l0.5,0.5l0.6,0.4L161.4,70.9L161.4,70.9
		z"/>
	
		<linearGradient id="SVGID_42_" gradientUnits="userSpaceOnUse" x1="-4.7077" y1="102.9631" x2="-4.7126" y2="102.9029" gradientTransform="matrix(157.1869 0 0 -200.1447 900.1868 20668.6289)">
		<stop  offset="0" style="stop-color:#803B96"/>
		<stop  offset="7.099999e-02" style="stop-color:#9D2F82"/>
		<stop  offset="0.1599" style="stop-color:#B92971"/>
		<stop  offset="0.2542" style="stop-color:#D02362"/>
		<stop  offset="0.3554" style="stop-color:#DE2058"/>
		<stop  offset="0.4682" style="stop-color:#E82354"/>
		<stop  offset="0.6158" style="stop-color:#EA2450"/>
		<stop  offset="1" style="stop-color:#F7E37F"/>
	</linearGradient>
	<path class="st48" d="M164.3,70.8l-1.2,0.3h-1l-0.9-0.2l-0.9-0.4l-0.8-0.6L159,69l-0.6-0.9l-0.5-1l-0.4-1l-0.4-1l-0.3-1.1l-0.3-1
		l-0.3-1l-0.2-0.9l-0.2-0.8l-0.2-0.6l0.4,0.1h0.3l0.3,0.1l0.3,0.1l0.3,0.1l0.3,0.1l0.3,0.1l0.3,0.1l0.1,0.7l0.2,0.8l0.2,0.8l0.2,0.7
		l0.2,0.8l0.3,0.8l0.3,0.7l0.4,0.7l0.4,0.7l0.5,0.7l0.5,0.7l0.5,0.5l0.6,0.6l0.6,0.5l0.7,0.5L164.3,70.8L164.3,70.8z"/>
	
		<linearGradient id="SVGID_43_" gradientUnits="userSpaceOnUse" x1="-4.2486" y1="103.0404" x2="-4.2588" y2="102.9513" gradientTransform="matrix(178.6658 0 0 -197.2158 922.642 20381.5898)">
		<stop  offset="0" style="stop-color:#803B96"/>
		<stop  offset="7.099999e-02" style="stop-color:#9D2F82"/>
		<stop  offset="0.1599" style="stop-color:#B92971"/>
		<stop  offset="0.2542" style="stop-color:#D02362"/>
		<stop  offset="0.3554" style="stop-color:#DE2058"/>
		<stop  offset="0.4682" style="stop-color:#E82354"/>
		<stop  offset="0.6158" style="stop-color:#EA2450"/>
		<stop  offset="1" style="stop-color:#F7E37F"/>
	</linearGradient>
	<path class="st49" d="M168,71.4h-1l-0.9-0.1l-0.9-0.2l-0.9-0.3l-0.8-0.4l-0.8-0.5l-0.7-0.7l-0.7-0.7l-0.6-0.8l-0.5-0.9l-0.5-0.9
		l-0.4-1l-0.4-1.1l-0.3-1.1l-0.3-1.2l-0.2-1.2l0.4,0.1l0.4,0.1l0.4,0.1l0.4,0.1l0.4,0.1l0.4,0.1l0.4,0.1l0.4,0.1l0.2,0.7l0.1,0.7
		l0.2,0.7l0.2,0.7l0.2,0.7l0.2,0.7l0.3,0.7l0.3,0.7l0.3,0.7l0.4,0.7l0.5,0.7l0.5,0.6l0.7,0.6l0.8,0.7l0.9,0.7L168,71.4L168,71.4z"/>
	
		<linearGradient id="SVGID_44_" gradientUnits="userSpaceOnUse" x1="-3.7353" y1="103.0976" x2="-3.744" y2="103.0085" gradientTransform="matrix(209.908 0 0 -197.2158 951.9313 20393.3047)">
		<stop  offset="0" style="stop-color:#803B96"/>
		<stop  offset="7.099999e-02" style="stop-color:#9D2F82"/>
		<stop  offset="0.1599" style="stop-color:#B92971"/>
		<stop  offset="0.2542" style="stop-color:#D02362"/>
		<stop  offset="0.3554" style="stop-color:#DE2058"/>
		<stop  offset="0.4682" style="stop-color:#E82354"/>
		<stop  offset="0.6158" style="stop-color:#EA2450"/>
		<stop  offset="1" style="stop-color:#F7E37F"/>
	</linearGradient>
	<path class="st50" d="M173.2,72l-1.3,0.1l-1.2-0.1l-1.1-0.2l-1.1-0.3l-1-0.4l-0.9-0.5l-0.8-0.6l-0.8-0.8l-0.7-0.8l-0.7-0.9l-0.5-1
		l-0.5-1l-0.4-1.1l-0.3-1.1l-0.3-1.2l-0.2-1.2l0.3,0.1l0.4,0.1l0.4,0.1l0.4,0.1l0.4,0.1l0.4,0.1l0.4,0.1l0.4,0.1l0.1,0.8l0.2,0.8
		l0.2,0.8l0.3,0.8l0.4,0.8l0.4,0.8l0.5,0.8l0.5,0.7l0.6,0.7l0.7,0.7l0.7,0.6l0.7,0.6l0.8,0.5l0.8,0.5l0.9,0.4L173.2,72L173.2,72z"/>
	
		<linearGradient id="SVGID_45_" gradientUnits="userSpaceOnUse" x1="-4.1052" y1="103.2169" x2="-4.1108" y2="103.175" gradientTransform="matrix(205.0264 0 0 -190.3816 1012.4631 19713.7949)">
		<stop  offset="0" style="stop-color:#803B96"/>
		<stop  offset="7.099999e-02" style="stop-color:#9D2F82"/>
		<stop  offset="0.1599" style="stop-color:#B92971"/>
		<stop  offset="0.2542" style="stop-color:#D02362"/>
		<stop  offset="0.3554" style="stop-color:#DE2058"/>
		<stop  offset="0.4682" style="stop-color:#E82354"/>
		<stop  offset="0.6158" style="stop-color:#EA2450"/>
		<stop  offset="1" style="stop-color:#F7E37F"/>
	</linearGradient>
	<path class="st51" d="M176,72.2l-1.1-0.1l-1-0.2l-1-0.2l-1-0.4l-0.9-0.5l-0.9-0.5l-0.8-0.6l-0.8-0.7l-0.7-0.8l-0.7-0.8l-0.6-0.9
		l-0.5-0.9l-0.4-1l-0.4-1l-0.3-1l-0.2-1.1l0.3,0.1h0.3l0.3,0.1l0.3,0.1h0.3l0.3,0.1l0.4,0.1l0.4,0.1l0.4,0.9l0.4,0.8l0.4,0.8
		l0.3,0.8l0.4,0.8l0.4,0.7l0.4,0.7l0.4,0.6l0.5,0.6l0.5,0.5l0.5,0.5l0.7,0.5l0.7,0.5l0.9,0.5l0.9,0.5L176,72.2L176,72.2z"/>
	
		<linearGradient id="SVGID_46_" gradientUnits="userSpaceOnUse" x1="-3.3768" y1="103.2448" x2="-3.3841" y2="103.153" gradientTransform="matrix(248.9605 0 0 -191.3578 1015.392 19818.252)">
		<stop  offset="0" style="stop-color:#803B96"/>
		<stop  offset="7.099999e-02" style="stop-color:#9D2F82"/>
		<stop  offset="0.1599" style="stop-color:#B92971"/>
		<stop  offset="0.2542" style="stop-color:#D02362"/>
		<stop  offset="0.3554" style="stop-color:#DE2058"/>
		<stop  offset="0.4682" style="stop-color:#E82354"/>
		<stop  offset="0.6158" style="stop-color:#EA2450"/>
		<stop  offset="1" style="stop-color:#F7E37F"/>
	</linearGradient>
	<path class="st52" d="M181.1,72.6l-1.6,0.1l-1.4-0.1l-1.3-0.2l-1.2-0.3l-1.2-0.5l-1-0.6l-0.9-0.7l-0.8-0.8l-0.8-0.8l-0.7-0.9
		l-0.6-0.9l-0.5-1l-0.5-1l-0.5-1l-0.4-1l-0.4-1l0.3,0.1l0.4,0.1l0.5,0.1l0.5,0.1l0.5,0.1l0.4,0.1l0.4,0.1l0.3,0.1l0.4,0.9l0.4,0.9
		l0.5,0.9l0.5,0.8l0.5,0.8l0.5,0.7l0.6,0.7l0.7,0.7l0.7,0.6l0.7,0.6l0.8,0.5l0.8,0.5l0.8,0.4l0.9,0.5l0.9,0.4L181.1,72.6L181.1,72.6
		z"/>
	
		<linearGradient id="SVGID_47_" gradientUnits="userSpaceOnUse" x1="-3.6917" y1="103.3002" x2="-3.6965" y2="103.2582" gradientTransform="matrix(244.0791 0 0 -189.4053 1078.8524 19629.8301)">
		<stop  offset="0" style="stop-color:#803B96"/>
		<stop  offset="7.099999e-02" style="stop-color:#9D2F82"/>
		<stop  offset="0.1599" style="stop-color:#B92971"/>
		<stop  offset="0.2542" style="stop-color:#D02362"/>
		<stop  offset="0.3554" style="stop-color:#DE2058"/>
		<stop  offset="0.4682" style="stop-color:#E82354"/>
		<stop  offset="0.6158" style="stop-color:#EA2450"/>
		<stop  offset="1" style="stop-color:#F7E37F"/>
	</linearGradient>
	<path class="st53" d="M184.1,73h-0.8l-0.9-0.2l-0.9-0.2l-1-0.3l-1-0.4l-1-0.5l-1-0.6l-1-0.7l-0.9-0.8l-0.9-0.8l-0.9-0.9l-0.8-1
		l-0.7-1l-0.7-1l-0.6-1.1l-0.5-1.2l0.5,0.1l0.5,0.1l0.5,0.1l0.5,0.1h0.4l0.4,0.1l0.3,0.1l0.2,0.1l0.6,0.4l0.5,0.4l0.6,0.6l0.6,0.5
		l0.6,0.7l0.7,0.7l0.7,0.7l0.6,0.7l0.7,0.7l0.7,0.7l0.7,0.7l0.7,0.7l0.7,0.7l0.7,0.7l0.7,0.7L184.1,73L184.1,73z"/>
	
		<linearGradient id="SVGID_48_" gradientUnits="userSpaceOnUse" x1="-3.4882" y1="103.2648" x2="-3.495" y2="103.1752" gradientTransform="matrix(267.5105 0 0 -196.2395 1114.9763 20326.9238)">
		<stop  offset="0" style="stop-color:#803B96"/>
		<stop  offset="7.099999e-02" style="stop-color:#9D2F82"/>
		<stop  offset="0.1599" style="stop-color:#B92971"/>
		<stop  offset="0.2542" style="stop-color:#D02362"/>
		<stop  offset="0.3554" style="stop-color:#DE2058"/>
		<stop  offset="0.4682" style="stop-color:#E82354"/>
		<stop  offset="0.6158" style="stop-color:#EA2450"/>
		<stop  offset="1" style="stop-color:#F7E37F"/>
	</linearGradient>
	<path class="st54" d="M188.8,73l-0.8,0.5l-0.9,0.2h-0.8l-0.9-0.2l-0.9-0.4l-0.9-0.6l-0.9-0.8l-0.9-0.9l-0.9-1l-0.9-1l-1-1.1l-1-1.1
		l-1-1l-1-1l-1-1l-1-0.9h0.4l0.4,0.1h0.5l0.5,0.1L176,63l0.5,0.1l0.4,0.1l0.4,0.1l0.8,0.7l0.8,0.7l0.8,0.8l0.8,0.8l0.7,0.8l0.8,0.8
		l0.7,0.8l0.7,0.7l0.7,0.7l0.7,0.7l0.7,0.5l0.7,0.5l0.7,0.4l0.7,0.4l0.7,0.3L188.8,73L188.8,73z"/>
	
		<linearGradient id="SVGID_49_" gradientUnits="userSpaceOnUse" x1="-3.7369" y1="103.4605" x2="-3.7412" y2="103.4169" gradientTransform="matrix(266.5344 0 0 -182.5711 1181.3656 18954.2266)">
		<stop  offset="0" style="stop-color:#803B96"/>
		<stop  offset="7.099999e-02" style="stop-color:#9D2F82"/>
		<stop  offset="0.1599" style="stop-color:#B92971"/>
		<stop  offset="0.2542" style="stop-color:#D02362"/>
		<stop  offset="0.3554" style="stop-color:#DE2058"/>
		<stop  offset="0.4682" style="stop-color:#E82354"/>
		<stop  offset="0.6158" style="stop-color:#EA2450"/>
		<stop  offset="1" style="stop-color:#F7E37F"/>
	</linearGradient>
	<path class="st55" d="M192.4,73.4h-1.3l-1.2-0.2l-1.2-0.3l-1.1-0.4l-1-0.5l-0.9-0.7l-0.9-0.7l-0.8-0.8l-0.8-0.8l-0.8-0.9l-0.8-0.8
		l-0.8-0.9l-0.8-0.9l-0.8-0.9l-0.9-0.8l-0.9-0.8h0.3l0.4,0.1l0.4,0.1l0.5,0.1l0.5,0.1h0.4l0.3,0.1h0.2l0.5,0.1l0.5,0.3l0.5,0.3
		l0.5,0.5l0.6,0.6l0.6,0.7l0.7,0.7l0.6,0.8l0.8,0.8l0.7,0.8l0.8,0.8l0.9,0.8l0.9,0.8l1,0.7l1,0.7L192.4,73.4L192.4,73.4z"/>
	
		<linearGradient id="SVGID_50_" gradientUnits="userSpaceOnUse" x1="-3.0492" y1="101.1464" x2="-2.9939" y2="101.2347" gradientTransform="matrix(80.0578 0 0 -165.9737 366.1422 16832.6855)">
		<stop  offset="0" style="stop-color:#6B3A94"/>
		<stop  offset="0.1058" style="stop-color:#8B3084"/>
		<stop  offset="0.2653" style="stop-color:#B5266C"/>
		<stop  offset="0.4092" style="stop-color:#D31C5E"/>
		<stop  offset="0.5309" style="stop-color:#E52156"/>
		<stop  offset="0.6158" style="stop-color:#EA2450"/>
		<stop  offset="1" style="stop-color:#F7E37F"/>
	</linearGradient>
	<path class="st56" d="M121.4,47.1V47l-0.1-0.4v-0.5l-0.1-0.7l-0.1-0.8l0.1-0.9l0.1-0.9l0.1-0.9l0.2-0.9l0.2-0.8l0.3-0.8l0.5-0.6
		l0.5-0.4l0.7-0.2l0.8-0.1l1,0.3l-0.3,0.3l-0.3,0.4l-0.3,0.5l-0.3,0.5l-0.2,0.6l-0.2,0.5l-0.2,0.7l-0.2,0.7l-0.2,0.7l-0.2,0.7
		l-0.2,0.7l-0.2,0.7l-0.1,0.7l-0.1,0.6l-0.1,0.5l-0.1,0.5h-0.2l-0.1-0.1l-0.2-0.1l-0.1-0.1l-0.1-0.1l-0.2-0.1l-0.2-0.1L121.4,47.1
		L121.4,47.1z"/>
	
		<linearGradient id="SVGID_51_" gradientUnits="userSpaceOnUse" x1="-2.0494" y1="101.091" x2="-2.0032" y2="101.1691" gradientTransform="matrix(113.2527 0 0 -181.5947 356.3788 18403.5742)">
		<stop  offset="0" style="stop-color:#6B3A94"/>
		<stop  offset="0.1058" style="stop-color:#8B3084"/>
		<stop  offset="0.2653" style="stop-color:#B5266C"/>
		<stop  offset="0.4092" style="stop-color:#D31C5E"/>
		<stop  offset="0.5309" style="stop-color:#E52156"/>
		<stop  offset="0.6158" style="stop-color:#EA2450"/>
		<stop  offset="1" style="stop-color:#F7E37F"/>
	</linearGradient>
	<path class="st57" d="M122.5,47.6l0.4-2.1l0.4-1.8l0.4-1.5l0.4-1.3l0.4-1l0.5-0.8l0.4-0.5l0.4-0.4l0.4-0.3l0.4-0.1l0.4-0.1l0.3,0.1
		L128,38l0.3,0.2l0.3,0.2l0.3,0.2l-0.5,0.4l-0.4,0.5l-0.4,0.4l-0.4,0.5l-0.4,0.5l-0.3,0.5l-0.3,0.5l-0.3,0.6l-0.3,0.6l-0.3,0.6
		l-0.3,0.7l-0.2,0.7l-0.2,0.7l-0.2,0.7l-0.2,0.7l-0.2,0.8l-0.4-0.1h-0.3l-0.2-0.1l-0.1-0.1h-0.2l-0.1-0.1l-0.1-0.1L122.5,47.6
		L122.5,47.6z"/>
	
		<linearGradient id="SVGID_52_" gradientUnits="userSpaceOnUse" x1="-1.4977" y1="101.1047" x2="-1.4678" y2="101.1786" gradientTransform="matrix(148.4001 0 0 -198.1921 349.5446 20084.791)">
		<stop  offset="0" style="stop-color:#6B3A94"/>
		<stop  offset="0.1058" style="stop-color:#8B3084"/>
		<stop  offset="0.2653" style="stop-color:#B5266C"/>
		<stop  offset="0.4092" style="stop-color:#D31C5E"/>
		<stop  offset="0.5309" style="stop-color:#E52156"/>
		<stop  offset="0.6158" style="stop-color:#EA2450"/>
		<stop  offset="1" style="stop-color:#F7E37F"/>
	</linearGradient>
	<path class="st58" d="M124.1,48.2l0.1-0.8l0.2-0.9l0.3-0.9l0.3-1l0.4-1l0.5-1l0.5-1l0.6-0.9l0.6-0.8l0.6-0.7l0.7-0.5l0.7-0.3
		l0.8-0.1l0.7,0.1l0.7,0.4l0.7,0.8l-0.5,0.4l-0.5,0.5l-0.5,0.5l-0.5,0.5l-0.5,0.5l-0.4,0.5l-0.4,0.6l-0.4,0.5l-0.3,0.7l-0.3,0.7
		l-0.3,0.7l-0.2,0.7l-0.2,0.7l-0.2,0.8l-0.2,0.8l-0.1,0.8l-0.3-0.1l-0.4-0.1l-0.4-0.2l-0.4-0.1l-0.4-0.2l-0.4-0.2l-0.3-0.1
		L124.1,48.2L124.1,48.2z"/>
	
		<linearGradient id="SVGID_53_" gradientUnits="userSpaceOnUse" x1="-1.4751" y1="101.1758" x2="-1.4443" y2="101.2473" gradientTransform="matrix(169.879 0 0 -198.1921 380.7867 20100.416)">
		<stop  offset="0" style="stop-color:#6B3A94"/>
		<stop  offset="0.1058" style="stop-color:#8B3084"/>
		<stop  offset="0.2653" style="stop-color:#B5266C"/>
		<stop  offset="0.4092" style="stop-color:#D31C5E"/>
		<stop  offset="0.5309" style="stop-color:#E52156"/>
		<stop  offset="0.6158" style="stop-color:#EA2450"/>
		<stop  offset="1" style="stop-color:#F7E37F"/>
	</linearGradient>
	<path class="st59" d="M136.6,39.8l-0.8-0.5l-0.8-0.3l-0.8-0.1l-0.8,0.1l-0.8,0.2l-0.8,0.4l-0.7,0.5l-0.7,0.7l-0.6,0.8l-0.7,0.9
		l-0.5,1l-0.5,1l-0.4,1l-0.3,1.2l-0.3,1.2l-0.1,1.2l0.4,0.1l0.4,0.1l0.4,0.2l0.4,0.1l0.4,0.2l0.4,0.1l0.4,0.1l0.4,0.1l0.3-0.7
		l0.3-0.8l0.3-0.8l0.3-0.8l0.3-0.8l0.4-0.8l0.3-0.8l0.4-0.8l0.4-0.7l0.4-0.7l0.4-0.7l0.5-0.5l0.5-0.5l0.5-0.4L136,40L136.6,39.8
		L136.6,39.8z"/>
	
		<linearGradient id="SVGID_54_" gradientUnits="userSpaceOnUse" x1="-1.6717" y1="101.2603" x2="-1.6466" y2="101.3339" gradientTransform="matrix(176.7133 0 0 -199.1684 429.6024 20216.5957)">
		<stop  offset="0" style="stop-color:#6B3A94"/>
		<stop  offset="0.1058" style="stop-color:#8B3084"/>
		<stop  offset="0.2653" style="stop-color:#B5266C"/>
		<stop  offset="0.4092" style="stop-color:#D31C5E"/>
		<stop  offset="0.5309" style="stop-color:#E52156"/>
		<stop  offset="0.6158" style="stop-color:#EA2450"/>
		<stop  offset="1" style="stop-color:#F7E37F"/>
	</linearGradient>
	<path class="st60" d="M140.1,40.8l-1.3-0.5l-1-0.3h-1l-0.9,0.2l-0.8,0.3l-0.7,0.5l-0.6,0.7l-0.5,0.8l-0.4,0.9l-0.4,1l-0.4,1l-0.4,1
		l-0.3,1l-0.4,1l-0.4,1l-0.4,0.9l0.3,0.1l0.3,0.1l0.3,0.1l0.3,0.1l0.3,0.1l0.3,0.1l0.4,0.1l0.3,0.1l0.1-0.1v-0.3l0.1-0.4l0.1-0.6
		l0.1-0.7l0.3-0.8l0.2-0.8l0.4-0.9l0.4-0.9l0.5-0.8l0.6-0.9l0.7-0.8l0.8-0.8l0.9-0.6l1-0.6L140.1,40.8L140.1,40.8z"/>
	
		<linearGradient id="SVGID_55_" gradientUnits="userSpaceOnUse" x1="-1.4921" y1="101.2838" x2="-1.4669" y2="101.3523" gradientTransform="matrix(207.9553 0 0 -206.979 447.1763 21014.248)">
		<stop  offset="0" style="stop-color:#6B3A94"/>
		<stop  offset="0.1058" style="stop-color:#8B3084"/>
		<stop  offset="0.2653" style="stop-color:#B5266C"/>
		<stop  offset="0.4092" style="stop-color:#D31C5E"/>
		<stop  offset="0.5309" style="stop-color:#E52156"/>
		<stop  offset="0.6158" style="stop-color:#EA2450"/>
		<stop  offset="1" style="stop-color:#F7E37F"/>
	</linearGradient>
	<path class="st61" d="M144.6,41.5l-0.7-0.5l-0.8-0.4l-0.9-0.1l-0.9,0.1l-0.9,0.2l-1,0.4l-0.9,0.5l-0.9,0.6l-0.9,0.8l-0.8,0.9
		l-0.7,1l-0.7,1.1l-0.5,1.2l-0.4,1.3l-0.3,1.3l-0.2,1.4l3.3,0.8l0.2-0.5l0.3-0.6l0.2-0.7l0.3-0.7l0.4-0.8l0.4-0.8l0.4-0.8l0.5-0.8
		l0.5-0.8l0.6-0.8l0.7-0.7l0.7-0.7l0.7-0.6l0.8-0.5l0.8-0.4L144.6,41.5L144.6,41.5z"/>
	
		<linearGradient id="SVGID_56_" gradientUnits="userSpaceOnUse" x1="-1.6735" y1="101.3606" x2="-1.6528" y2="101.4291" gradientTransform="matrix(213.8131 0 0 -213.8132 498.9211 21723.0508)">
		<stop  offset="0" style="stop-color:#6B3A94"/>
		<stop  offset="0.1058" style="stop-color:#8B3084"/>
		<stop  offset="0.2653" style="stop-color:#B5266C"/>
		<stop  offset="0.4092" style="stop-color:#D31C5E"/>
		<stop  offset="0.5309" style="stop-color:#E52156"/>
		<stop  offset="0.6158" style="stop-color:#EA2450"/>
		<stop  offset="1" style="stop-color:#F7E37F"/>
	</linearGradient>
	<path class="st62" d="M136.2,52.2l0.5,0.1l0.6,0.1l0.6,0.2l0.7,0.2l0.7,0.2l0.6,0.2l0.5,0.2l0.5,0.2l-0.1-0.1l0.4-0.8l0.4-0.8
		l0.3-0.8l0.3-0.9l0.4-0.9l0.3-0.8l0.3-0.9l0.4-0.9l0.4-0.8l0.4-0.7l0.5-0.7l0.5-0.6l0.5-0.5l0.7-0.4l0.7-0.3l0.7-0.3l-0.6-0.4
		l-0.6-0.3l-0.7-0.2l-0.8-0.1l-0.8,0.1l-0.8,0.2l-0.8,0.3l-0.8,0.5l-0.8,0.6l-0.8,0.8l-0.8,0.9l-0.8,1.1l-0.8,1.3l-0.8,1.4l-0.7,1.7
		L136.2,52.2L136.2,52.2z"/>
	
		<linearGradient id="SVGID_57_" gradientUnits="userSpaceOnUse" x1="-2.238" y1="101.4583" x2="-2.216" y2="101.5287" gradientTransform="matrix(201.1211 0 0 -207.9553 595.5762 21150.9277)">
		<stop  offset="0" style="stop-color:#6B3A94"/>
		<stop  offset="0.1058" style="stop-color:#8B3084"/>
		<stop  offset="0.2653" style="stop-color:#B5266C"/>
		<stop  offset="0.4092" style="stop-color:#D31C5E"/>
		<stop  offset="0.5309" style="stop-color:#E52156"/>
		<stop  offset="0.6158" style="stop-color:#EA2450"/>
		<stop  offset="1" style="stop-color:#F7E37F"/>
	</linearGradient>
	<path class="st63" d="M152.2,43.8l-1.3-0.7l-1.2-0.4l-1.1-0.1l-1,0.2l-0.9,0.4l-0.8,0.5l-0.7,0.8l-0.7,0.9l-0.5,1l-0.5,1l-0.5,1.2
		l-0.4,1.1l-0.4,1.1l-0.4,1l-0.4,1l-0.4,0.8l0.4,0.1l0.4,0.1l0.4,0.1l0.3,0.1l0.4,0.1l0.4,0.1l0.4,0.1l0.5,0.1l0.4-0.9l0.4-0.9
		l0.4-0.8l0.4-0.8l0.3-0.8l0.4-0.7l0.4-0.8l0.4-0.7l0.5-0.7l0.5-0.6l0.5-0.6l0.6-0.5L150,45l0.7-0.4l0.8-0.4L152.2,43.8L152.2,43.8z
		"/>
	
		<linearGradient id="SVGID_58_" gradientUnits="userSpaceOnUse" x1="-2.3068" y1="101.5856" x2="-2.2823" y2="101.6571" gradientTransform="matrix(213.8132 0 0 -198.1921 641.4632 20188.2812)">
		<stop  offset="0" style="stop-color:#6B3A94"/>
		<stop  offset="0.1058" style="stop-color:#8B3084"/>
		<stop  offset="0.2653" style="stop-color:#B5266C"/>
		<stop  offset="0.4092" style="stop-color:#D31C5E"/>
		<stop  offset="0.5309" style="stop-color:#E52156"/>
		<stop  offset="0.6158" style="stop-color:#EA2450"/>
		<stop  offset="1" style="stop-color:#F7E37F"/>
	</linearGradient>
	<path class="st64" d="M156.2,44.9l-1.2-0.7l-1.1-0.3l-1.1-0.1l-1,0.2l-0.9,0.4L150,45l-0.8,0.7l-0.8,0.8l-0.7,0.9l-0.7,1l-0.7,1
		l-0.5,1l-0.5,1.1l-0.4,0.9l-0.4,0.9l-0.3,0.8l0.4,0.1l0.4,0.1l0.4,0.1l0.3,0.1l0.4,0.1l0.4,0.1l0.5,0.1l0.5,0.1l0.5-1.3l0.6-1.2
		l0.5-1l0.5-1l0.5-0.9l0.5-0.8l0.5-0.7l0.5-0.7l0.5-0.5l0.5-0.5l0.5-0.4l0.5-0.3l0.5-0.3l0.6-0.2l0.6-0.1L156.2,44.9L156.2,44.9z"/>
	
		<linearGradient id="SVGID_59_" gradientUnits="userSpaceOnUse" x1="-2.6846" y1="101.7156" x2="-2.6632" y2="101.7925" gradientTransform="matrix(206.9789 0 0 -190.3815 707.8527 19418.9395)">
		<stop  offset="0" style="stop-color:#6B3A94"/>
		<stop  offset="0.1058" style="stop-color:#8B3084"/>
		<stop  offset="0.2653" style="stop-color:#B5266C"/>
		<stop  offset="0.4092" style="stop-color:#D31C5E"/>
		<stop  offset="0.5309" style="stop-color:#E52156"/>
		<stop  offset="0.6158" style="stop-color:#EA2450"/>
		<stop  offset="1" style="stop-color:#F7E37F"/>
	</linearGradient>
	<path class="st65" d="M159.1,45.8l-1.2-0.5l-1-0.3h-1l-1,0.2l-0.9,0.4l-0.9,0.5l-0.8,0.7l-0.8,0.8l-0.7,0.9l-0.6,1l-0.7,1l-0.5,1
		l-0.5,1l-0.4,0.9l-0.4,0.9l-0.3,0.8l0.4,0.1l0.3,0.1l0.4,0.1l0.3,0.1l0.3,0.1l0.3,0.1l0.4,0.1l0.4,0.1l0.2-0.6l0.3-0.7l0.3-0.7
		l0.4-0.8l0.4-0.8l0.5-0.8l0.5-0.8l0.6-0.8l0.6-0.7l0.7-0.7l0.7-0.6l0.7-0.5l0.7-0.5l0.7-0.4l0.7-0.3L159.1,45.8L159.1,45.8z"/>
	
		<linearGradient id="SVGID_60_" gradientUnits="userSpaceOnUse" x1="-2.6972" y1="101.7812" x2="-2.6734" y2="101.856" gradientTransform="matrix(219.6711 0 0 -189.4052 746.9053 19334.9766)">
		<stop  offset="0" style="stop-color:#6B3A94"/>
		<stop  offset="0.1058" style="stop-color:#8B3084"/>
		<stop  offset="0.2653" style="stop-color:#B5266C"/>
		<stop  offset="0.4092" style="stop-color:#D31C5E"/>
		<stop  offset="0.5309" style="stop-color:#E52156"/>
		<stop  offset="0.6158" style="stop-color:#EA2450"/>
		<stop  offset="1" style="stop-color:#F7E37F"/>
	</linearGradient>
	<path class="st66" d="M162.7,46.7l-1.2-0.7l-1.2-0.3h-1.2l-1.1,0.3l-1,0.5l-1,0.8l-0.9,0.9l-0.9,0.9l-0.8,1l-0.7,1l-0.7,1l-0.5,1
		l-0.4,0.8l-0.4,0.8l-0.2,0.5l-0.1,0.3l0.5,0.1l0.4,0.1l0.4,0.1l0.4,0.1l0.4,0.1l0.4,0.1l0.4,0.1l0.4,0.1l0.3-0.5l0.3-0.7l0.4-0.8
		l0.4-0.8l0.5-0.9l0.5-0.8l0.5-0.8l0.6-0.9l0.6-0.8l0.6-0.7l0.7-0.7l0.7-0.5l0.7-0.4l0.7-0.3l0.8-0.1L162.7,46.7L162.7,46.7z"/>
	
		<linearGradient id="SVGID_61_" gradientUnits="userSpaceOnUse" x1="-3.2667" y1="101.8677" x2="-3.245" y2="101.9458" gradientTransform="matrix(204.05 0 0 -187.4526 825.0104 19151.4355)">
		<stop  offset="0" style="stop-color:#6B3A94"/>
		<stop  offset="0.1058" style="stop-color:#8B3084"/>
		<stop  offset="0.2653" style="stop-color:#B5266C"/>
		<stop  offset="0.4092" style="stop-color:#D31C5E"/>
		<stop  offset="0.5309" style="stop-color:#E52156"/>
		<stop  offset="0.6158" style="stop-color:#EA2450"/>
		<stop  offset="1" style="stop-color:#F7E37F"/>
	</linearGradient>
	<path class="st67" d="M165.4,47.7l-1-0.7l-1-0.4l-0.9-0.1l-1,0.2l-0.9,0.4l-0.9,0.5l-0.8,0.7l-0.8,0.9l-0.7,0.9l-0.7,1l-0.6,1
		l-0.6,1l-0.5,0.9l-0.4,0.9l-0.3,0.8l-0.3,0.6l0.4,0.1l0.3,0.1l0.3,0.1l0.3,0.1l0.3,0.1l0.3,0.1L156,57l0.3,0.1l0.3-0.8l0.3-0.8
		l0.4-0.8l0.4-0.8l0.4-0.8l0.4-0.7l0.5-0.7l0.5-0.7l0.6-0.7l0.6-0.6l0.7-0.5l0.7-0.5l0.8-0.4l0.8-0.4l0.8-0.2L165.4,47.7L165.4,47.7
		z"/>
	
		<linearGradient id="SVGID_62_" gradientUnits="userSpaceOnUse" x1="-3.0657" y1="102.0185" x2="-3.0423" y2="102.0979" gradientTransform="matrix(223.5764 0 0 -178.6658 845.5132 18286.4219)">
		<stop  offset="0" style="stop-color:#6B3A94"/>
		<stop  offset="0.1058" style="stop-color:#8B3084"/>
		<stop  offset="0.2653" style="stop-color:#B5266C"/>
		<stop  offset="0.4092" style="stop-color:#D31C5E"/>
		<stop  offset="0.5309" style="stop-color:#E52156"/>
		<stop  offset="0.6158" style="stop-color:#EA2450"/>
		<stop  offset="1" style="stop-color:#F7E37F"/>
	</linearGradient>
	<path class="st68" d="M168.7,48.5l-0.9-0.3l-0.9-0.2l-1-0.1l-0.9,0.1l-0.9,0.2l-0.9,0.3l-0.8,0.5l-0.9,0.5l-0.8,0.7l-0.8,0.8
		l-0.7,0.8l-0.7,0.9l-0.7,1l-0.5,1.1l-0.6,1.2l-0.5,1.2l0.4,0.1l0.4,0.1l0.4,0.1l0.4,0.1l0.4,0.1l0.4,0.1l0.4,0.1l0.4,0.1l0.3-0.7
		l0.3-0.7l0.3-0.7l0.3-0.8l0.3-0.7l0.4-0.7l0.4-0.7l0.4-0.7l0.5-0.6l0.6-0.6l0.7-0.5l0.7-0.5l0.9-0.4l0.9-0.4l1.1-0.4L168.7,48.5
		L168.7,48.5z"/>
	
		<linearGradient id="SVGID_63_" gradientUnits="userSpaceOnUse" x1="-2.9045" y1="102.1321" x2="-2.8866" y2="102.2163" gradientTransform="matrix(247.008 0 0 -173.7841 882.613 17807.0352)">
		<stop  offset="0" style="stop-color:#6B3A94"/>
		<stop  offset="0.1058" style="stop-color:#8B3084"/>
		<stop  offset="0.2653" style="stop-color:#B5266C"/>
		<stop  offset="0.4092" style="stop-color:#D31C5E"/>
		<stop  offset="0.5309" style="stop-color:#E52156"/>
		<stop  offset="0.6158" style="stop-color:#EA2450"/>
		<stop  offset="1" style="stop-color:#F7E37F"/>
	</linearGradient>
	<path class="st69" d="M173.4,49.6l-1.2-0.5l-1.2-0.3l-1.2-0.2h-1.1l-1,0.2l-1,0.3l-1,0.4l-0.9,0.5l-0.9,0.7l-0.8,0.8l-0.7,0.8
		l-0.7,1l-0.7,1l-0.5,1.2l-0.5,1.2l-0.4,1.2l0.4,0.1l0.4,0.1l0.4,0.1l0.4,0.1l0.4,0.1l0.4,0.1l0.4,0.1l0.4,0.1l0.3-0.9l0.3-0.8
		l0.4-0.8l0.4-0.8l0.5-0.7l0.5-0.7l0.5-0.7l0.7-0.6l0.7-0.6l0.8-0.4l0.8-0.5l0.8-0.4l0.9-0.3l0.9-0.3l1-0.1L173.4,49.6L173.4,49.6z"
		/>
	
		<linearGradient id="SVGID_64_" gradientUnits="userSpaceOnUse" x1="-3.4762" y1="102.2629" x2="-3.4533" y2="102.3478" gradientTransform="matrix(228.458 0 0 -166.9499 960.7183 17134.3574)">
		<stop  offset="0" style="stop-color:#6B3A94"/>
		<stop  offset="0.1058" style="stop-color:#8B3084"/>
		<stop  offset="0.2653" style="stop-color:#B5266C"/>
		<stop  offset="0.4092" style="stop-color:#D31C5E"/>
		<stop  offset="0.5309" style="stop-color:#E52156"/>
		<stop  offset="0.6158" style="stop-color:#EA2450"/>
		<stop  offset="1" style="stop-color:#F7E37F"/>
	</linearGradient>
	<path class="st70" d="M175.7,49.9l-1-0.2l-1.1-0.1l-1,0.1l-1,0.1l-1,0.3l-1,0.3l-0.9,0.4l-0.9,0.5l-0.8,0.6l-0.8,0.7l-0.7,0.8
		l-0.7,0.8l-0.5,1l-0.5,1l-0.4,1.1l-0.3,1.2l0.4,0.1l0.3,0.1l0.3,0.1l0.3,0.1l0.3,0.1l0.3,0.1l0.4,0.1l0.4,0.1l0.5-0.9l0.5-0.9
		l0.4-0.8l0.4-0.8l0.4-0.7l0.4-0.7l0.4-0.7l0.5-0.5l0.5-0.5l0.6-0.5l0.6-0.4l0.7-0.4l0.8-0.3l0.9-0.3l1-0.3L175.7,49.9L175.7,49.9z"
		/>
	
		<linearGradient id="SVGID_65_" gradientUnits="userSpaceOnUse" x1="-2.9787" y1="102.257" x2="-2.9622" y2="102.3417" gradientTransform="matrix(268.487 0 0 -172.8079 971.4575 17730.8926)">
		<stop  offset="0" style="stop-color:#6B3A94"/>
		<stop  offset="0.1058" style="stop-color:#8B3084"/>
		<stop  offset="0.2653" style="stop-color:#B5266C"/>
		<stop  offset="0.4092" style="stop-color:#D31C5E"/>
		<stop  offset="0.5309" style="stop-color:#E52156"/>
		<stop  offset="0.6158" style="stop-color:#EA2450"/>
		<stop  offset="1" style="stop-color:#F7E37F"/>
	</linearGradient>
	<path class="st71" d="M180.8,50.5l-1.6-0.4l-1.5-0.2l-1.4-0.1l-1.3,0.1l-1.2,0.3l-1.1,0.4l-1,0.5l-0.9,0.6l-0.8,0.7l-0.8,0.8
		l-0.7,0.9l-0.7,0.9l-0.6,0.9l-0.6,1l-0.5,1l-0.5,1l0.2,0.1l0.4,0.1l0.4,0.1l0.4,0.1l0.4,0.1l0.4,0.1l0.3,0.1h0.3l0.5-0.9l0.5-0.9
		l0.6-0.8l0.6-0.8l0.7-0.8l0.7-0.7l0.7-0.6l0.8-0.5l0.8-0.5l0.8-0.4l0.9-0.4l0.9-0.4l0.9-0.3l0.9-0.3l1-0.3L180.8,50.5L180.8,50.5z"
		/>
	
		<linearGradient id="SVGID_66_" gradientUnits="userSpaceOnUse" x1="-3.1309" y1="102.3698" x2="-3.1145" y2="102.457" gradientTransform="matrix(270.4396 0 0 -167.9263 1021.25 17251.5215)">
		<stop  offset="0" style="stop-color:#6B3A94"/>
		<stop  offset="0.1058" style="stop-color:#8B3084"/>
		<stop  offset="0.2653" style="stop-color:#B5266C"/>
		<stop  offset="0.4092" style="stop-color:#D31C5E"/>
		<stop  offset="0.5309" style="stop-color:#E52156"/>
		<stop  offset="0.6158" style="stop-color:#EA2450"/>
		<stop  offset="1" style="stop-color:#F7E37F"/>
	</linearGradient>
	<path class="st72" d="M183.9,50.9l-0.9-0.2l-0.9-0.1l-1,0.1l-1,0.2l-1,0.2l-1.1,0.3l-1.1,0.4l-1,0.5l-1.1,0.6l-1,0.7l-1,0.8
		l-0.9,0.9l-0.9,0.9l-0.8,1l-0.7,1.1l-0.6,1.2l0.4,0.1l0.4,0.1l0.4,0.1l0.4,0.1l0.4,0.1l0.3,0.1h0.4l0.6-0.4l0.7-0.4l0.7-0.5
		l0.7-0.5l0.7-0.6l0.7-0.7l0.8-0.7l0.8-0.7l0.8-0.7l0.8-0.7l0.8-0.7l0.8-0.7l0.9-0.6l0.8-0.5l0.9-0.5L183.9,50.9L183.9,50.9z"/>
	
		<linearGradient id="SVGID_67_" gradientUnits="userSpaceOnUse" x1="-2.9362" y1="102.3119" x2="-2.9212" y2="102.3962" gradientTransform="matrix(295.824 0 0 -173.7841 1046.6335 17842.1836)">
		<stop  offset="0" style="stop-color:#6B3A94"/>
		<stop  offset="0.1058" style="stop-color:#8B3084"/>
		<stop  offset="0.2653" style="stop-color:#B5266C"/>
		<stop  offset="0.4092" style="stop-color:#D31C5E"/>
		<stop  offset="0.5309" style="stop-color:#E52156"/>
		<stop  offset="0.6158" style="stop-color:#EA2450"/>
		<stop  offset="1" style="stop-color:#F7E37F"/>
	</linearGradient>
	<path class="st73" d="M188.1,52.1l-0.8-0.8l-0.9-0.4l-0.9-0.2l-0.9,0.1l-0.9,0.3l-1,0.5l-1,0.7l-1.1,0.7l-1.1,0.9l-1.1,0.9l-1.2,1
		l-1.1,1l-1.2,1l-1.2,0.9l-1.2,0.9l-1.2,0.8l0.3,0.1l0.4,0.1h0.5l0.5,0.1l0.5,0.1h1l0.4-0.1l0.8-0.6L177,59l0.8-0.7l0.8-0.7l0.8-0.7
		l0.7-0.7l0.7-0.7l0.8-0.7l0.8-0.5l0.7-0.5l0.8-0.5l0.8-0.4l0.8-0.3l0.9-0.3l0.9-0.2L188.1,52.1z"/>
	
		<linearGradient id="SVGID_68_" gradientUnits="userSpaceOnUse" x1="-3.189" y1="102.5958" x2="-3.1512" y2="102.6733" gradientTransform="matrix(291.9182 0 0 -160.1158 1111.0714 16487.0703)">
		<stop  offset="0" style="stop-color:#6B3A94"/>
		<stop  offset="0.1058" style="stop-color:#8B3084"/>
		<stop  offset="0.2653" style="stop-color:#B5266C"/>
		<stop  offset="0.4092" style="stop-color:#D31C5E"/>
		<stop  offset="0.5309" style="stop-color:#E52156"/>
		<stop  offset="0.6158" style="stop-color:#EA2450"/>
		<stop  offset="1" style="stop-color:#F7E37F"/>
	</linearGradient>
	<path class="st74" d="M191.3,52.4l-1.3-0.3l-1.3-0.1l-1.2,0.1l-1.1,0.2l-1,0.4l-1,0.5l-1,0.6l-0.9,0.7l-0.9,0.8l-0.9,0.8l-0.9,0.8
		l-0.9,0.9l-0.9,0.8l-0.9,0.8l-1,0.7l-1,0.7h0.3l0.4,0.1l0.5,0.1h0.5l0.4,0.1l0.4,0.1h0.3L178,61h0.6l0.5-0.2l0.6-0.3l0.7-0.4
		l0.7-0.5l0.7-0.6l0.8-0.7l0.8-0.7l0.8-0.7l0.9-0.8l0.9-0.7l0.9-0.7l1.1-0.7l1-0.7l1.2-0.5L191.3,52.4L191.3,52.4z"/>
	
		<linearGradient id="SVGID_69_" gradientUnits="userSpaceOnUse" x1="-3.2492" y1="102.6594" x2="-3.2126" y2="102.7374" gradientTransform="matrix(301.6817 0 0 -159.1394 1162.8157 16399.1914)">
		<stop  offset="0" style="stop-color:#6B3A94"/>
		<stop  offset="0.1058" style="stop-color:#8B3084"/>
		<stop  offset="0.2653" style="stop-color:#B5266C"/>
		<stop  offset="0.4092" style="stop-color:#D31C5E"/>
		<stop  offset="0.5309" style="stop-color:#E52156"/>
		<stop  offset="0.6158" style="stop-color:#EA2450"/>
		<stop  offset="1" style="stop-color:#F7E37F"/>
	</linearGradient>
	<path class="st75" d="M195.3,53.5l-1.2-0.7l-1.3-0.3h-1.2l-1.3,0.3l-1.2,0.4L188,54l-1.2,0.8l-1.2,0.9l-1.1,0.9l-1.1,1l-1,0.9
		l-1,0.8l-0.8,0.7l-0.8,0.5l-0.7,0.3l-0.6,0.1l0.5,0.1l0.5,0.1l0.7,0.1l0.6,0.1l0.7,0.1l0.6,0.1l0.7,0.1h0.5l0.9-0.7l0.8-0.7
		l0.8-0.6l0.7-0.7l0.7-0.6l0.6-0.6l0.7-0.5l0.6-0.5l0.6-0.5l0.7-0.5l0.7-0.4l0.8-0.4l0.8-0.4l0.9-0.3l1-0.3L195.3,53.5L195.3,53.5z"
		/>
	<g>
		
			<linearGradient id="SVGID_70_" gradientUnits="userSpaceOnUse" x1="-4.3474" y1="100.8422" x2="-4.5101" y2="100.7312" gradientTransform="matrix(43.9342 0 0 -206.0026 310.4921 20808.2422)">
			<stop  offset="0" style="stop-color:#D4E5EE"/>
			<stop  offset="7.219999e-02" style="stop-color:#CEDFE8"/>
			<stop  offset="0.1858" style="stop-color:#B4CAD6"/>
			<stop  offset="0.3267" style="stop-color:#90ABBA"/>
			<stop  offset="0.4878" style="stop-color:#608096"/>
			<stop  offset="0.5537" style="stop-color:#4A6E87"/>
			<stop  offset="0.5941" style="stop-color:#5E7E95"/>
			<stop  offset="0.685" style="stop-color:#89A3B5"/>
			<stop  offset="0.7734" style="stop-color:#ABC1CE"/>
			<stop  offset="0.8572" style="stop-color:#C1D6E0"/>
			<stop  offset="0.9348" style="stop-color:#D1E1EA"/>
			<stop  offset="1" style="stop-color:#D4E5EE"/>
		</linearGradient>
		<path class="st76" d="M118,40.4l-0.1-0.3l-0.2-0.4l-0.1-0.3l-0.1-0.4l-0.1-0.4l-0.1-0.4l-0.1-0.4l-0.1-0.4l-0.1-0.4v-1.2l0.1-0.4
			l0.1-0.4l0.1-0.4l0.1-0.3l-0.5,0.7l-0.4,0.7l-0.3,0.7l-0.2,0.8L116,38v0.8l0.1,0.8l0.2,0.8l0.2,0.7l0.3,0.8l0.3,0.7l0.3,0.8
			l0.3,0.7l0.3,0.7l0.3,0.7l0.3,0.7l-0.1-0.2l-0.1-0.2v-0.5l-0.1-0.4v-1.1l-0.1-0.4v-0.9l-0.1-0.4v-0.4l-0.1-0.4l-0.1-0.4L118,40.4
			L118,40.4z"/>
		
			<linearGradient id="SVGID_71_" gradientUnits="userSpaceOnUse" x1="0.3738" y1="103.2673" x2="0.328" y2="103.0283" gradientTransform="matrix(156.2105 0 0 -95.6789 59.5789 9914.5059)">
			<stop  offset="0" style="stop-color:#D4E5EE"/>
			<stop  offset="7.219999e-02" style="stop-color:#CEDFE8"/>
			<stop  offset="0.1858" style="stop-color:#B4CAD6"/>
			<stop  offset="0.3267" style="stop-color:#90ABBA"/>
			<stop  offset="0.4878" style="stop-color:#608096"/>
			<stop  offset="0.5537" style="stop-color:#4A6E87"/>
			<stop  offset="0.5941" style="stop-color:#5E7E95"/>
			<stop  offset="0.685" style="stop-color:#89A3B5"/>
			<stop  offset="0.7734" style="stop-color:#ABC1CE"/>
			<stop  offset="0.8572" style="stop-color:#C1D6E0"/>
			<stop  offset="0.9348" style="stop-color:#D1E1EA"/>
			<stop  offset="1" style="stop-color:#D4E5EE"/>
		</linearGradient>
		<path class="st77" d="M108.3,53.7l0.6-0.3l0.6-0.4l0.6-0.4l0.5-0.3l0.5-0.3l0.5-0.3l0.5-0.3l0.5-0.3l0.5-0.3l0.5-0.3l0.5-0.4
			l0.5-0.3l0.5-0.3l0.5-0.3l0.6-0.3l0.5-0.3l-0.5,0.5l-0.5,0.5l-0.5,0.5l-0.5,0.5l-0.5,0.5l-0.5,0.4l-0.5,0.4l-0.5,0.4l-0.5,0.4
			l-0.6,0.3l-0.5,0.3l-0.5,0.2l-0.5,0.2l-0.6,0.1l-0.5,0.1L108.3,53.7L108.3,53.7z"/>
		
			<linearGradient id="SVGID_72_" gradientUnits="userSpaceOnUse" x1="-0.8645" y1="101.8862" x2="-0.9377" y2="101.6448" gradientTransform="matrix(97.6316 0 0 -94.7027 203.0973 9683.1299)">
			<stop  offset="0" style="stop-color:#D4E5EE"/>
			<stop  offset="7.219999e-02" style="stop-color:#CEDFE8"/>
			<stop  offset="0.1858" style="stop-color:#B4CAD6"/>
			<stop  offset="0.3267" style="stop-color:#90ABBA"/>
			<stop  offset="0.4878" style="stop-color:#608096"/>
			<stop  offset="0.5537" style="stop-color:#4A6E87"/>
			<stop  offset="0.5941" style="stop-color:#5E7E95"/>
			<stop  offset="0.685" style="stop-color:#89A3B5"/>
			<stop  offset="0.7734" style="stop-color:#ABC1CE"/>
			<stop  offset="0.8572" style="stop-color:#C1D6E0"/>
			<stop  offset="0.9348" style="stop-color:#D1E1EA"/>
			<stop  offset="1" style="stop-color:#D4E5EE"/>
		</linearGradient>
		<path class="st78" d="M113,40.9l0.4,0.3l0.4,0.3l0.4,0.3l0.4,0.3l0.4,0.3l0.3,0.3l0.4,0.3l0.3,0.3l0.3,0.3l0.3,0.4l0.3,0.3
			l0.3,0.4l0.3,0.3l0.3,0.4l0.3,0.4l0.3,0.4l-0.1-0.4l-0.2-0.4l-0.2-0.4l-0.2-0.4l-0.2-0.4l-0.2-0.4l-0.2-0.4l-0.3-0.4l-0.3-0.4
			l-0.4-0.3l-0.4-0.3l-0.4-0.3l-0.5-0.2l-0.5-0.2l-0.7-0.2L113,40.9L113,40.9z"/>
		
			<linearGradient id="SVGID_73_" gradientUnits="userSpaceOnUse" x1="-6.7256" y1="101.0894" x2="-6.9348" y2="100.9532" gradientTransform="matrix(34.1711 0 0 -167.9263 350.5209 17010.377)">
			<stop  offset="0" style="stop-color:#D4E5EE"/>
			<stop  offset="7.219999e-02" style="stop-color:#CEDFE8"/>
			<stop  offset="0.1858" style="stop-color:#B4CAD6"/>
			<stop  offset="0.3267" style="stop-color:#90ABBA"/>
			<stop  offset="0.4878" style="stop-color:#608096"/>
			<stop  offset="0.5537" style="stop-color:#4A6E87"/>
			<stop  offset="0.5941" style="stop-color:#5E7E95"/>
			<stop  offset="0.685" style="stop-color:#89A3B5"/>
			<stop  offset="0.7734" style="stop-color:#ABC1CE"/>
			<stop  offset="0.8572" style="stop-color:#C1D6E0"/>
			<stop  offset="0.9348" style="stop-color:#D1E1EA"/>
			<stop  offset="1" style="stop-color:#D4E5EE"/>
		</linearGradient>
		<path class="st79" d="M117.7,37.1l0.2,0.7l0.1,0.7l0.2,0.6l0.1,0.6l0.1,0.6l0.1,0.5l0.1,0.6l0.1,0.5l0.1,0.6l0.1,0.5l0.1,0.5
			l0.1,0.6l0.1,0.5l0.1,0.6l0.1,0.5l0.1,0.6l0.1-0.7l0.1-0.7l0.1-0.7l0.1-0.7v-0.7l0.1-0.7l-0.1-0.7v-0.7l-0.1-0.7l-0.1-0.5
			l-0.2-0.6l-0.2-0.5l-0.2-0.5l-0.3-0.4l-0.3-0.4L117.7,37.1L117.7,37.1z"/>
		
			<linearGradient id="SVGID_74_" gradientUnits="userSpaceOnUse" x1="-1.1469" y1="100.9839" x2="-1.2292" y2="100.8508" gradientTransform="matrix(86.8921 0 0 -171.8316 217.7421 17386.2539)">
			<stop  offset="0" style="stop-color:#D4E5EE"/>
			<stop  offset="7.219999e-02" style="stop-color:#CEDFE8"/>
			<stop  offset="0.1858" style="stop-color:#B4CAD6"/>
			<stop  offset="0.3267" style="stop-color:#90ABBA"/>
			<stop  offset="0.4878" style="stop-color:#608096"/>
			<stop  offset="0.5537" style="stop-color:#4A6E87"/>
			<stop  offset="0.5941" style="stop-color:#5E7E95"/>
			<stop  offset="0.685" style="stop-color:#89A3B5"/>
			<stop  offset="0.7734" style="stop-color:#ABC1CE"/>
			<stop  offset="0.8572" style="stop-color:#C1D6E0"/>
			<stop  offset="0.9348" style="stop-color:#D1E1EA"/>
			<stop  offset="1" style="stop-color:#D4E5EE"/>
		</linearGradient>
		<path class="st80" d="M114.3,36.1l-0.5,0.5l-0.4,0.6l-0.2,0.7v0.7l0.1,0.7l0.3,0.7l0.3,0.7l0.4,0.7l0.4,0.7l0.5,0.7l0.5,0.7
			l0.5,0.5l0.5,0.6l0.4,0.4l0.4,0.5l0.3,0.3l-0.1-1l-0.2-0.8l-0.2-0.7l-0.2-0.6l-0.3-0.5l-0.3-0.5l-0.3-0.4l-0.3-0.4l-0.3-0.4
			l-0.3-0.4l-0.3-0.4l-0.3-0.5l-0.2-0.6l-0.2-0.6l-0.2-0.8C114.4,36.9,114.3,36.1,114.3,36.1z"/>
		
			<linearGradient id="SVGID_75_" gradientUnits="userSpaceOnUse" x1="-3.6831" y1="101.0421" x2="-3.8162" y2="100.9083" gradientTransform="matrix(53.6974 0 0 -170.8553 318.3026 17298.3906)">
			<stop  offset="0" style="stop-color:#D4E5EE"/>
			<stop  offset="7.219999e-02" style="stop-color:#CEDFE8"/>
			<stop  offset="0.1858" style="stop-color:#B4CAD6"/>
			<stop  offset="0.3267" style="stop-color:#90ABBA"/>
			<stop  offset="0.4878" style="stop-color:#608096"/>
			<stop  offset="0.5537" style="stop-color:#4A6E87"/>
			<stop  offset="0.5941" style="stop-color:#5E7E95"/>
			<stop  offset="0.685" style="stop-color:#89A3B5"/>
			<stop  offset="0.7734" style="stop-color:#ABC1CE"/>
			<stop  offset="0.8572" style="stop-color:#C1D6E0"/>
			<stop  offset="0.9348" style="stop-color:#D1E1EA"/>
			<stop  offset="1" style="stop-color:#D4E5EE"/>
		</linearGradient>
		<path class="st81" d="M118.5,46.2V45l0.1-0.7v-0.7l0.1-0.6l0.1-0.6l0.1-0.6l0.1-0.5l0.1-0.6l0.1-0.6l0.2-0.6l0.1-0.5l0.2-0.5
			l0.2-0.6l0.2-0.5l0.2-0.6l-0.9,0.9l-0.8,0.9l-0.5,0.8l-0.4,0.8l-0.3,0.7l-0.1,0.7l-0.1,0.7l0.1,0.6l0.2,0.5l0.2,0.5l0.2,0.5
			l0.2,0.4l0.2,0.5l0.2,0.4l0.2,0.4L118.5,46.2L118.5,46.2z"/>
		
			<linearGradient id="SVGID_76_" gradientUnits="userSpaceOnUse" x1="0.2087" y1="111.1954" x2="0.1586" y2="110.1306" gradientTransform="matrix(142.5421 0 0 -21.479 87.8921 2422.2639)">
			<stop  offset="0" style="stop-color:#D4E5EE"/>
			<stop  offset="7.219999e-02" style="stop-color:#CEDFE8"/>
			<stop  offset="0.1858" style="stop-color:#B4CAD6"/>
			<stop  offset="0.3267" style="stop-color:#90ABBA"/>
			<stop  offset="0.4878" style="stop-color:#608096"/>
			<stop  offset="0.5537" style="stop-color:#4A6E87"/>
			<stop  offset="0.5941" style="stop-color:#5E7E95"/>
			<stop  offset="0.685" style="stop-color:#89A3B5"/>
			<stop  offset="0.7734" style="stop-color:#ABC1CE"/>
			<stop  offset="0.8572" style="stop-color:#C1D6E0"/>
			<stop  offset="0.9348" style="stop-color:#D1E1EA"/>
			<stop  offset="1" style="stop-color:#D4E5EE"/>
		</linearGradient>
		<path class="st82" d="M109.1,48.5l0.5,0.1l0.5,0.1l0.5,0.1l0.5,0.1h0.5l0.5,0.1h1l0.5-0.1h0.5l0.5-0.1l0.5-0.1h0.5l0.4-0.1
			l0.5-0.1l0.4-0.1l-0.4,0.2l-0.4,0.2l-0.4,0.2l-0.4,0.2l-0.5,0.2l-0.5,0.1l-0.5,0.2l-0.5,0.1h-1.6l-0.5-0.1l-0.5-0.2l-0.5-0.2
			l-0.5-0.3L109.1,48.5L109.1,48.5z"/>
		
			<linearGradient id="SVGID_77_" gradientUnits="userSpaceOnUse" x1="0.6152" y1="103.2023" x2="0.5761" y2="102.9704" gradientTransform="matrix(182.571 0 0 -98.608 4.9053 10210.3398)">
			<stop  offset="0" style="stop-color:#D4E5EE"/>
			<stop  offset="7.219999e-02" style="stop-color:#CEDFE8"/>
			<stop  offset="0.1858" style="stop-color:#B4CAD6"/>
			<stop  offset="0.3267" style="stop-color:#90ABBA"/>
			<stop  offset="0.4878" style="stop-color:#608096"/>
			<stop  offset="0.5537" style="stop-color:#4A6E87"/>
			<stop  offset="0.5941" style="stop-color:#5E7E95"/>
			<stop  offset="0.685" style="stop-color:#89A3B5"/>
			<stop  offset="0.7734" style="stop-color:#ABC1CE"/>
			<stop  offset="0.8572" style="stop-color:#C1D6E0"/>
			<stop  offset="0.9348" style="stop-color:#D1E1EA"/>
			<stop  offset="1" style="stop-color:#D4E5EE"/>
		</linearGradient>
		<path class="st83" d="M112,51.1l-0.4,0.1l-0.3,0.1l-0.4,0.1l-0.4,0.1l-0.4,0.2l-0.4,0.1l-0.3,0.2l-0.4,0.2l-0.4,0.2l-0.3,0.2
			l-0.3,0.2l-0.3,0.2l-0.3,0.3l-0.3,0.2l-0.2,0.3l-0.3,0.3l0.3-0.8l0.3-0.7l0.4-0.5l0.5-0.5l0.5-0.4l0.7-0.4l0.7-0.3l0.7-0.3
			l0.8-0.2l0.8-0.3l0.8-0.2L114,49l0.8-0.2l0.8-0.2l0.7-0.1l0.7-0.2l-0.3,0.1l-0.5,0.3l-0.5,0.4l-0.7,0.4l-0.7,0.5l-0.7,0.4
			l-0.7,0.4L112,51.1L112,51.1z"/>
		
			<linearGradient id="SVGID_78_" gradientUnits="userSpaceOnUse" x1="3.817822e-02" y1="102.5491" x2="-1.411691e-02" y2="102.3897" gradientTransform="matrix(136.6842 0 0 -143.5184 114.2526 14752.1504)">
			<stop  offset="0" style="stop-color:#D4E5EE"/>
			<stop  offset="7.219999e-02" style="stop-color:#CEDFE8"/>
			<stop  offset="0.1858" style="stop-color:#B4CAD6"/>
			<stop  offset="0.3267" style="stop-color:#90ABBA"/>
			<stop  offset="0.4878" style="stop-color:#608096"/>
			<stop  offset="0.5537" style="stop-color:#4A6E87"/>
			<stop  offset="0.5941" style="stop-color:#5E7E95"/>
			<stop  offset="0.685" style="stop-color:#89A3B5"/>
			<stop  offset="0.7734" style="stop-color:#ABC1CE"/>
			<stop  offset="0.8572" style="stop-color:#C1D6E0"/>
			<stop  offset="0.9348" style="stop-color:#D1E1EA"/>
			<stop  offset="1" style="stop-color:#D4E5EE"/>
		</linearGradient>
		<path class="st84" d="M110.6,56.8l-0.3-0.7l-0.1-0.7l0.1-0.7l0.3-0.7l0.4-0.6l0.5-0.6l0.6-0.5l0.7-0.5l0.7-0.5l0.8-0.4l0.8-0.4
			l0.7-0.4l0.7-0.4l0.7-0.3l0.5-0.3l0.4-0.2l-0.4,0.9l-0.4,0.8l-0.5,0.6l-0.4,0.5l-0.4,0.4l-0.5,0.4l-0.5,0.3l-0.5,0.3l-0.4,0.3
			l-0.5,0.3l-0.5,0.3l-0.4,0.4l-0.4,0.4l-0.4,0.6L111,56L110.6,56.8L110.6,56.8z"/>
		
			<linearGradient id="SVGID_79_" gradientUnits="userSpaceOnUse" x1="-1.526" y1="102.4625" x2="-1.6164" y2="102.3143" gradientTransform="matrix(79.0816 0 0 -154.2579 242.1499 15840.748)">
			<stop  offset="0" style="stop-color:#D4E5EE"/>
			<stop  offset="7.219999e-02" style="stop-color:#CEDFE8"/>
			<stop  offset="0.1858" style="stop-color:#B4CAD6"/>
			<stop  offset="0.3267" style="stop-color:#90ABBA"/>
			<stop  offset="0.4878" style="stop-color:#608096"/>
			<stop  offset="0.5537" style="stop-color:#4A6E87"/>
			<stop  offset="0.5941" style="stop-color:#5E7E95"/>
			<stop  offset="0.685" style="stop-color:#89A3B5"/>
			<stop  offset="0.7734" style="stop-color:#ABC1CE"/>
			<stop  offset="0.8572" style="stop-color:#C1D6E0"/>
			<stop  offset="0.9348" style="stop-color:#D1E1EA"/>
			<stop  offset="1" style="stop-color:#D4E5EE"/>
		</linearGradient>
		<path class="st85" d="M118.6,48.9l-0.3,0.5l-0.4,0.5l-0.3,0.5l-0.3,0.5l-0.3,0.5l-0.3,0.5l-0.3,0.5l-0.3,0.5l-0.3,0.5l-0.2,0.5
			l-0.2,0.5l-0.2,0.5l-0.2,0.5l-0.2,0.5l-0.2,0.6l-0.1,0.6l-0.3-1.2l-0.2-1.1v-0.9l0.1-0.8l0.2-0.7l0.3-0.7l0.4-0.5l0.4-0.4l0.4-0.4
			l0.4-0.4l0.5-0.3l0.4-0.3l0.4-0.2l0.4-0.2l0.3-0.3L118.6,48.9z"/>
	</g>
</g>
<g>
	<path class="st2" d="M255.2,5.2h92v92h-92V5.2z"/>
	<path class="st86" d="M259.3,66.4h2.8v-11l4.3,9.6c0.5,1.1,1.2,1.6,2.6,1.6c1.4,0,2-0.4,2.6-1.6l4.3-9.6v11h2.8v-11
		c0-1.1-0.4-1.6-1.3-1.9c-2.1-0.7-3.5-0.1-4.2,1.3l-4.2,9.4l-4.1-9.4c-0.6-1.4-2.1-2-4.2-1.3c-0.9,0.3-1.3,0.8-1.3,1.9L259.3,66.4
		L259.3,66.4L259.3,66.4z M280.9,57.4h2.8v6c0,0.3,0.1,1.1,1.6,1.1c0.8,0,6,0,6,0v-7.2h2.8c0,0,0,9.8,0,9.9c0,2.4-3,2.9-4.4,3H281
		v-1.9c0,0,8.8,0,8.8,0c1.8-0.2,1.6-1.1,1.6-1.4v-0.7h-5.9c-2.7,0-4.5-1.2-4.5-2.6C280.9,63.5,281,57.5,280.9,57.4L280.9,57.4z
		 M340.7,50.4c-1.7,0-3,0.1-4.1,0.6c-0.3,0.1-0.8,0.1-0.9,0.5c0.2,0.2,0.2,0.4,0.3,0.7c0.3,0.4,0.7,1,1.1,1.3c0.4,0.3,0.9,0.7,1.3,1
		c0.9,0.5,1.8,0.8,2.6,1.3c0.5,0.3,1,0.7,1.4,1c0.2,0.2,0.4,0.4,0.7,0.5v0c-0.1-0.2-0.2-0.5-0.3-0.7l-0.6-0.6
		c-0.6-0.8-1.4-1.5-2.2-2.1c-0.7-0.5-2.2-1.1-2.4-1.9c0,0,0,0,0,0c0.5-0.1,1-0.2,1.4-0.3c0.7-0.2,1.4-0.1,2.1-0.3
		c0.3-0.1,0.7-0.2,1-0.3v-0.2c-0.4-0.4-0.6-0.9-1.1-1.3c-1.1-0.9-2.3-1.9-3.5-2.6c-0.7-0.4-1.5-0.7-2.2-1.1
		c-0.2-0.1-0.7-0.2-0.8-0.4c-0.4-0.5-0.6-1.1-0.9-1.6c-0.6-1.2-1.2-2.5-1.7-3.7c-0.4-0.8-0.6-1.7-1.1-2.4c-2.2-3.6-4.6-5.8-8.3-8
		c-0.8-0.4-1.7-0.6-2.7-0.9c-0.5,0-1.1-0.1-1.6-0.1c-0.3-0.1-0.7-0.5-1-0.7c-1.2-0.8-4.3-2.4-5.2-0.2c-0.6,1.4,0.9,2.7,1.4,3.5
		c0.4,0.5,0.8,1,1.1,1.6c0.2,0.4,0.2,0.7,0.3,1.1c0.4,1,0.7,2,1.1,2.9c0.2,0.4,0.5,0.9,0.8,1.3c0.2,0.2,0.5,0.3,0.5,0.7
		c-0.3,0.4-0.3,1.1-0.5,1.6c-0.7,2.4-0.5,5.4,0.6,7.2c0.3,0.5,1.1,1.7,2.2,1.3c1-0.4,0.7-1.6,1-2.7c0.1-0.2,0-0.4,0.1-0.6v0
		c0.3,0.6,0.6,1.2,0.9,1.7c0.6,1,1.8,2.2,2.8,2.9c0.5,0.4,0.9,1,1.6,1.3v0h-0.1c-0.1-0.2-0.3-0.3-0.5-0.4c-0.4-0.4-0.8-0.9-1.1-1.3
		c-0.9-1.2-1.7-2.5-2.4-3.9c-0.3-0.7-0.6-1.4-0.9-2c-0.1-0.3-0.1-0.6-0.3-0.8c-0.3,0.5-0.8,0.9-1,1.5c-0.4,0.9-0.4,2-0.6,3.2
		c-0.1,0-0.1,0-0.1,0.1c-0.7-0.2-0.9-0.9-1.2-1.5c-0.6-1.5-0.7-3.9-0.2-5.7c0.1-0.4,0.8-1.9,0.5-2.3c-0.1-0.4-0.5-0.7-0.8-1
		c-0.3-0.4-0.6-0.9-0.8-1.3c-0.5-1.2-0.7-2.5-1.3-3.7c-0.3-0.6-0.7-1.2-1.1-1.6c-0.4-0.6-0.9-1-1.2-1.7c-0.1-0.2-0.3-0.6-0.1-0.9
		c0.1-0.2,0.1-0.2,0.3-0.3c0.3-0.2,1.1,0.1,1.4,0.2c0.8,0.3,1.4,0.6,2.1,1.1c0.3,0.2,0.6,0.6,1,0.7h0.4c0.7,0.1,1.4,0,2.1,0.2
		c1.1,0.3,2.2,0.9,3.1,1.5c2.8,1.8,5.1,4.3,6.7,7.3c0.3,0.5,0.4,0.9,0.6,1.4c0.4,1,1,2.1,1.5,3.1c0.4,1,0.9,2,1.5,2.9
		c0.3,0.4,1.6,0.7,2.2,0.9c0.4,0.2,1.1,0.4,1.4,0.6c0.7,0.4,1.4,1,2.2,1.4C339.6,49.5,340.7,50,340.7,50.4L340.7,50.4z"/>
	<path class="st86" d="M319,31.9c-0.3,0-0.6,0-0.9,0.1v0h0.1c0.2,0.3,0.5,0.6,0.7,0.9c0.1,0.3,0.3,0.7,0.5,1l0.1-0.1
		c0.3-0.2,0.4-0.5,0.4-1.1c-0.1-0.1-0.1-0.3-0.2-0.4C319.4,32.2,319.2,32.1,319,31.9L319,31.9z"/>
	<path class="st87" d="M296.3,66.4h8c0.9,0,1.9-0.2,2.6-0.5c1.2-0.6,1.8-1.3,1.8-2.3v-2c0-0.8-0.7-1.6-2-2c-0.7-0.3-1.6-0.4-2.4-0.4
		h-3.4c-1.1,0-1.7-0.3-1.8-1.1c0-0.1,0-0.2,0-0.3v-1.3c0-0.1,0-0.1,0-0.2c0.1-0.6,0.4-0.7,1.4-0.8c0.1,0,0.2,0,0.3,0h7.9v-1.9h-7.8
		c-1.1,0-1.7,0.1-2.2,0.2c-1.7,0.5-2.4,1.3-2.4,2.8v1.6c0,1.3,1.4,2.3,3.8,2.6c0.3,0,0.5,0,0.8,0h2.9c0.1,0,0.2,0,0.3,0
		c0.9,0.1,1.3,0.2,1.5,0.6c0.1,0.2,0.2,0.3,0.2,0.5v1.6c0,0.2-0.1,0.4-0.4,0.7c-0.2,0.2-0.6,0.3-1.2,0.4c-0.1,0-0.2,0-0.3,0h-7.7
		V66.4z M326,63.1c0,1.9,1.4,3,4.3,3.2c0.3,0,0.5,0,0.8,0h7.2v-1.9H331c-1.6,0-2.3-0.4-2.3-1.4v-9.6H326L326,63.1L326,63.1L326,63.1
		z M310.4,63.2v-6.6c0-1.7,1.2-2.7,3.5-3c0.2,0,0.5,0,0.7,0h5.3c0.3,0,0.5,0,0.8,0c2.3,0.3,3.5,1.3,3.5,3v6.6c0,1.4-0.5,2.1-1.7,2.6
		l2.7,2.5h-3.2l-2.2-2l-2.2,0.1h-3c-0.5,0-1-0.1-1.6-0.2C311.2,65.7,310.4,64.8,310.4,63.2L310.4,63.2z M313.4,63.1
		c0,0.1,0,0.2,0,0.3c0.2,0.8,0.9,1.2,2,1.2h2.5l-2.3-2.1h3.2l2,1.8c0.4-0.2,0.6-0.5,0.7-0.9c0-0.1,0-0.2,0-0.3v-6.3
		c0-0.1,0-0.1,0-0.2c-0.2-0.7-0.9-1.1-2-1.1h-4.2c-1.2,0-2,0.5-2,1.4L313.4,63.1L313.4,63.1L313.4,63.1z M339.5,66.4h0.4v-1.5h0.6
		v-0.3H339v0.3h0.6V66.4L339.5,66.4z M342.7,66.4h0.4v-1.9h-0.6l-0.5,1.3l-0.5-1.3h-0.6v1.9h0.4v-1.4l0.5,1.4h0.3l0.5-1.4h0
		L342.7,66.4L342.7,66.4z"/>
	<path class="st86" d="M259.9,48.9v-7h2.2c0.5,0,0.9,0,1.1,0.1c0.3,0.1,0.6,0.3,0.8,0.7c0.2,0.3,0.3,0.7,0.3,1.2
		c0,0.6-0.2,1.1-0.5,1.5c-0.3,0.4-0.9,0.6-1.7,0.6h-1.5v2.9L259.9,48.9L259.9,48.9z M260.7,45.2h1.5c0.5,0,0.8-0.1,1-0.3
		c0.2-0.2,0.3-0.5,0.3-1c0-0.3-0.1-0.5-0.2-0.7c-0.1-0.2-0.2-0.3-0.4-0.4c-0.1-0.1-0.4-0.1-0.8-0.1h-1.5V45.2L260.7,45.2z
		 M265.1,45.5c0-1.2,0.3-2.1,0.8-2.7c0.5-0.6,1.2-1,2-1c0.5,0,1,0.1,1.4,0.4c0.4,0.3,0.7,0.7,1,1.2c0.2,0.6,0.4,1.2,0.4,1.9
		c0,1-0.2,1.9-0.7,2.5c-0.5,0.7-1.2,1.1-2,1.1c-0.9,0-1.5-0.4-2-1.1C265.3,47.3,265.1,46.4,265.1,45.5L265.1,45.5z M265.8,45.5
		c0,0.9,0.2,1.5,0.6,2c0.4,0.5,0.8,0.7,1.4,0.7s1-0.3,1.4-0.7c0.4-0.5,0.6-1.2,0.6-2.1c0-0.6-0.1-1.1-0.3-1.6
		c-0.1-0.4-0.4-0.7-0.7-0.9c-0.3-0.2-0.6-0.3-1-0.3c-0.6,0-1,0.2-1.4,0.7C266,43.8,265.8,44.5,265.8,45.5z M272.5,48.9l-1.5-7h0.8
		l0.9,4.6c0.1,0.5,0.2,1,0.3,1.4l0.3-1.3l1.1-4.7h0.9l0.8,3.5c0.2,0.8,0.4,1.6,0.5,2.5c0.1-0.4,0.1-1,0.3-1.5l0.9-4.5h0.8l-1.6,7
		H276l-1.2-5.3l-0.2-0.8c0,0.3-0.1,0.6-0.1,0.8l-1.2,5.3H272.5L272.5,48.9z M279.1,48.9v-7h4.1v0.8h-3.4v2.1h3.2v0.8h-3.2v2.4h3.5
		v0.8H279.1L279.1,48.9z M284.4,48.9v-7h2.5c0.5,0,0.9,0.1,1.2,0.2c0.3,0.1,0.5,0.4,0.6,0.7c0.1,0.3,0.2,0.7,0.2,1
		c0,0.5-0.1,1-0.4,1.3c-0.3,0.3-0.7,0.5-1.2,0.6c0.2,0.1,0.4,0.3,0.5,0.4c0.2,0.3,0.4,0.6,0.6,0.9l1,1.9h-1l-0.8-1.4
		c-0.3-0.6-0.5-1-0.7-1.1c-0.1-0.2-0.3-0.3-0.4-0.4c-0.1-0.1-0.3-0.1-0.6-0.1h-0.9v3.1L284.4,48.9L284.4,48.9z M285.1,45h1.6
		c0.4,0,0.6,0,0.8-0.1c0.2-0.1,0.3-0.2,0.4-0.4c0.1-0.2,0.1-0.4,0.1-0.6c0-0.4-0.1-0.6-0.3-0.9c-0.2-0.2-0.5-0.3-0.9-0.3h-1.8V45
		L285.1,45z M290.2,48.9v-7h4.1v0.8h-3.4v2.1h3.2v0.8h-3.2v2.4h3.5v0.8H290.2L290.2,48.9z M295.5,48.9v-7h2c0.5,0,0.9,0,1.1,0.1
		c0.3,0.1,0.6,0.3,0.9,0.6c0.2,0.3,0.4,0.7,0.6,1.1c0.1,0.4,0.2,1,0.2,1.6c0,0.8-0.1,1.5-0.3,2c-0.2,0.6-0.5,0.9-0.9,1.2
		c-0.4,0.2-0.9,0.3-1.4,0.3H295.5L295.5,48.9z M296.2,48.1h1.2c0.5,0,0.9-0.1,1.1-0.3c0.3-0.1,0.4-0.4,0.6-0.8
		c0.2-0.5,0.3-1,0.3-1.7c0-0.7-0.1-1.3-0.3-1.7c-0.2-0.4-0.4-0.7-0.7-0.8c-0.2-0.1-0.5-0.1-1-0.1h-1.2L296.2,48.1L296.2,48.1
		L296.2,48.1z M303.7,48.9v-7h2.2c0.4,0,0.8,0.1,1,0.2c0.3,0.1,0.5,0.3,0.6,0.6c0.2,0.3,0.3,0.6,0.3,1c0,0.3-0.1,0.6-0.2,0.9
		c-0.1,0.3-0.3,0.5-0.6,0.6c0.3,0.1,0.6,0.3,0.8,0.6c0.2,0.3,0.3,0.7,0.3,1.1s-0.1,0.8-0.3,1.1c-0.2,0.3-0.4,0.6-0.7,0.7
		c-0.3,0.1-0.7,0.2-1.2,0.2H303.7z M304.4,44.8h1.2c0.3,0,0.6,0,0.7-0.1c0.2-0.1,0.4-0.2,0.5-0.3c0.1-0.1,0.1-0.4,0.1-0.6
		c0-0.3,0-0.5-0.1-0.6c-0.1-0.2-0.2-0.3-0.4-0.3c-0.1-0.1-0.4-0.1-0.9-0.1h-1.1L304.4,44.8L304.4,44.8L304.4,44.8z M304.4,48.1h1.4
		c0.3,0,0.5,0,0.7-0.1c0.2-0.1,0.4-0.2,0.5-0.4c0.1-0.2,0.2-0.4,0.2-0.7s0-0.5-0.1-0.7c-0.1-0.2-0.3-0.3-0.4-0.4
		c-0.2-0.1-0.5-0.1-0.9-0.1h-1.3L304.4,48.1L304.4,48.1z M310.6,48.9v-3l-2.2-4h0.9l1.1,2.1c0.2,0.4,0.4,0.8,0.6,1.2
		c0.2-0.4,0.4-0.8,0.6-1.2l1.1-2.1h0.9l-2.3,4v3H310.6L310.6,48.9z"/>
</g>
</svg>
