<?xml version="1.0" encoding="utf-8"?>
<!-- Generator: Adobe Illustrator 25.2.1, SVG Export Plug-In . SVG Version: 6.00 Build 0)  -->
<svg version="1.1" id="Layer_1" xmlns="http://www.w3.org/2000/svg" xmlns:xlink="http://www.w3.org/1999/xlink" x="0px" y="0px"
	 viewBox="0 0 500 500" style="enable-background:new 0 0 500 500;" xml:space="preserve">
<style type="text/css">
	.st0{fill:#BDDCF2;}
	.st1{fill:#035384;}
</style>
<path class="st0" d="M73,84C-4.6,161.6-29.4,326.6,57,421c109.2,119.3,340.2,65,400-46c24.2-44.9,30.1-117.2-5-152
	c-52.2-51.7-155.1,18.7-210.5-34.9C194.6,142.8,234.4,59.9,193,37C160.3,18.9,103.9,53.1,73,84z"/>
<ellipse transform="matrix(0.937 -0.3493 0.3493 0.937 -20.3974 129.3261)" class="st0" cx="348.4" cy="121.2" rx="102.5" ry="60.7"/>
<path class="st1" d="M322.6,329.2v101.2c0,3.3-1.3,6.2-3.5,8.4c-2.2,2.2-5.1,3.5-8.4,3.5h-71.3c0.3-1.1,0.4-2.2,0.5-3.2v-0.2
	c0-2.7-0.7-5.2-2.2-7.3h72.2c0.6,0,1.1-0.2,1.4-0.6c0.4-0.4,0.6-0.9,0.6-1.5v-100C315.1,329.8,319.3,329.7,322.6,329.2z
	 M237.8,348.5c-0.4,0.6-1.1,1-1.8,1.1s-1.4-0.1-2.1-0.5l0,0c-0.6-0.4-1-1.1-1.1-1.8l0,0c-0.1-0.7,0.1-1.4,0.5-2l9.6-13.2
	c0.4-0.6,1.1-1,1.8-1.1s1.4,0.1,2.1,0.5c0.6,0.4,1,1.1,1.1,1.8l0,0c0.1,0.7-0.1,1.4-0.5,2L237.8,348.5z M267.2,394.3
	c-1.5,0.4-3-0.4-3.4-1.9l0,0c-0.2-0.7-0.1-1.5,0.2-2.1c0.3-0.6,0.9-1.1,1.6-1.3c4.7-1.4,9.5-2.8,14.2-4.2c0.7-0.2,1.5-0.1,2.1,0.2
	c0.6,0.3,1.1,0.9,1.3,1.6l0,0c0.2,0.7,0.1,1.5-0.2,2.1c-0.4,0.6-0.9,1.1-1.6,1.3L267.2,394.3L267.2,394.3z M263.3,380.5
	c-0.7,0.3-1.5,0.2-2.1,0c-0.7-0.3-1.2-0.8-1.5-1.5s-0.3-1.5,0-2.1s0.8-1.2,1.5-1.5c4.2-1.7,8.5-3.5,12.8-5.1c0.7-0.3,1.4-0.2,2.1,0
	c0.6,0.3,1.2,0.8,1.5,1.5l0,0c0.3,0.7,0.2,1.4,0,2.1c-0.3,0.7-0.8,1.2-1.5,1.5C271.9,377,267.4,378.8,263.3,380.5L263.3,380.5z
	 M257.5,368.4c-0.6,0.4-1.4,0.6-2.1,0.4c-1.5-0.3-2.5-1.8-2.2-3.3l0,0c0.1-0.7,0.6-1.3,1.2-1.7c4.2-2.5,8.2-5.7,12.4-8.1
	c0.6-0.4,1.3-0.5,2-0.4l0,0c0.7,0.1,1.3,0.5,1.7,1.2v0.1c0.8,1.3,0.4,3-0.8,3.8L257.5,368.4L257.5,368.4z M248.1,357.7
	c-0.5,0.5-1.2,0.8-2,0.8c-0.7,0-1.4-0.3-1.9-0.8s-0.8-1.2-0.8-2c0-0.7,0.3-1.4,0.8-1.9l11-10.6c0.5-0.5,1.2-0.8,1.9-0.7
	c0.7,0,1.4,0.3,1.9,0.8l0,0c0.5,0.5,0.8,1.2,0.7,1.9c0,0.7-0.3,1.4-0.8,1.9L248.1,357.7L248.1,357.7z M178.1,411.9
	c-0.4,1.6-0.3,3.4,0.2,5.1c1.4,5.5,6.8,13,13.2,13.5c3.7,0.3,9.1-3.5,12.5-5.7c0.4-0.3,0.9-0.4,1.4-0.3c1.5,0.1,1.9,1.4,2.5,2.5
	c1.3,2.3,2.5,4.6,3.9,6.9c1.2,2,2.4,3.9,3.6,5.5l0,0l0.1,0.2c0.1,0.2,0.3,0.5,0.5,0.7v0.1c0.7,1,1.5,2.1,2.3,3s1.5,1.7,2.3,2.2
	c0.5,0.4,1,0.5,1.5,0.4c1.4-0.3,3.5-4,4.2-5.3c0.3-0.5,0.4-1.1,0.5-1.7c-0.3-0.1-0.6-0.1-1-0.2l0,0c-5.7-0.7-5.3-3.5-6.1-7.4
	c-0.1-0.6-0.3-0.4-0.9-0.7c-1-0.4-1.7-1-2.3-1.8c-1.1-1.5-1.6-3.6-1.7-5.5c-0.3-5.2,0.9-5,4.9-6.6c5.5-2.2,10.4-3.4,14.6-4.1
	c4.3-0.7,8-0.8,11.3-0.9c-6.9-4.6-14-11.9-20-20.1c-6.1-8.4-11.1-17.7-13.5-25.8c-1.6,4.7-3.9,10.4-7.8,16.6
	C200.1,389.6,179.3,406.9,178.1,411.9L178.1,411.9L178.1,411.9z M223.9,380.7c2.3-0.9,4.6-1.3,6.9-1.1c6.6,0.8,11.3,5.9,10.4,12.2
	c-0.2,2.5-1.1,5.2-2.6,8.1c1.3,1.3,2.7,2.5,4.2,3.8c2.1,1.8,4.3,3.5,6.4,4.8c1.9,1.2,3.9,2.2,5.8,2.9c2.6-0.5,2.3-4,2-6
	c-0.4-3.4-1.9-7.5-4.1-11.9c-2.4-4.8-5.6-10-9.2-14.9c-3.5-4.8-7.4-9.4-11.3-13.2c-2.5-2.5-5-4.7-7.3-6.3c-2-1.4-5.5-3.8-8.1-3.8
	c-1.3,0-1.5,0.5-1.6,1.7c-0.2,1.8,0.1,4.1,0.8,6.7c0.8,3.1,2.2,6.7,4.1,10.4C221.1,375.5,223.9,380.8,223.9,380.7z M243.4,416.5
	c-6.3,0.2-13.9,1.1-24,5.4c0,0.5,0,1,0,1.5c0.1,0.8,0.3,2.7,1.1,3c0.4,0.2,0.8,0.4,1.2,0.6c0.8,0.4,1.3,0.8,1.8,1.6l0,0
	c1.1,1.8,0.4,5.4,2.8,5.7l0,0c3.8,0.4,5.1,2.2,5.1,4.5c0,2.9-3.5,9.1-6.3,11c-0.8,0.5-1.5,0.8-2.3,1c-1.7,0.3-3.4-0.3-4.9-1.4
	c-1.3-0.9-2.5-2.2-3.6-3.5c-2.4-2.9-4.7-6.3-6.6-9.5c-1.2-1.9-2.3-4.1-3.6-6.3l0,0c-0.9,0.6-1.8,1.2-2.7,1.7
	c-3.2,2.1-6.3,3.8-10.7,3.4c-8.5-0.9-15.7-10-17.3-17.9c-0.5-2.2-0.5-4.5,0-6.6c2.6-11.1,27-22.9,35.7-50.7l0,0
	c1.1-3.5,2.1-8.8,6.4-9.3c2.9-0.4,6,0.9,8.5,2.3l0,0c3.5,2,7.3,5.1,11.2,9c4.1,4,8.1,8.8,11.8,13.8c3.8,5.2,7.2,10.6,9.7,15.8
	c2.3,4.8,3.9,9.3,4.4,13.2c0.2,1.6,0.2,3.2,0,4.6c-0.6,4.5-2.7,6.2-7.5,6.8C251.1,416.6,246.7,416.4,243.4,416.5L243.4,416.5z
	 M184.5,442.3h-44.2c-6.5,0-11.9-5.4-11.9-11.9V329.3c3.3,0.6,7.5,0.8,10.7,0.7v99.5c0,1.1,0.9,2.1,2.1,2.1h29.9
	c1,1.3,2,2.6,3.1,3.8C177.1,438.4,180.6,440.8,184.5,442.3L184.5,442.3z M113.5,288.5l15.2-48.7c1.3-4,4.3-6.6,10.2-6.9h172
	c5.3,0.6,8.8,2.8,10.2,6.8l16.4,48.7c0.9,1.4,0.4,8.3,0.4,9.8c0,5.9-2.4,11.3-6.3,15.2c-6.4,6.4-16.1,6.2-24.3,4.3
	c-2.3-1.1-7.9-2.5-9.7-4.3c-1.5-1.5-2.9-3.3-3.9-5.3c-1,1.9-2.3,3.7-3.9,5.3c-3.9,3.9-12.9,6.3-18.8,6.3s-14.9-2.4-18.8-6.3
	c-1.5-1.5-2.9-3.3-3.9-5.3c-1,1.9-2.3,3.7-3.9,5.3c-3.9,3.9-12.9,6.3-18.8,6.3c-5.9,0-14.9-2.4-18.8-6.3c-1.5-1.5-2.9-3.3-3.9-5.3
	c-1,1.9-2.3,3.7-3.9,5.3c-3.9,3.9-12.9,6.3-18.8,6.3s-14.9-2.4-18.8-6.3c-1.5-1.5-2.9-3.3-3.9-5.3c-1,1.9-2.3,3.7-3.9,5.3
	c-2.6,2.6-9.4,4.5-12.9,5.5c-7.2,0.9-15.7-0.2-21.1-5.5c-3.9-3.9-6.3-9.3-6.3-15.2C113.2,298.3,113.5,288.5,113.5,288.5z"/>
</svg>
