<?xml version="1.0" encoding="utf-8"?>
<!-- Generator: Adobe Illustrator 25.2.1, SVG Export Plug-In . SVG Version: 6.00 Build 0)  -->
<svg version="1.1" id="Layer_1" xmlns="http://www.w3.org/2000/svg" xmlns:xlink="http://www.w3.org/1999/xlink" x="0px" y="0px"
	 viewBox="0 0 500 500" style="enable-background:new 0 0 500 500;" xml:space="preserve">
<style type="text/css">
	.st0{fill:#F4DFBD;}
	.st1{opacity:0.3;fill-rule:evenodd;clip-rule:evenodd;}
</style>
<path class="st0" d="M73,84C-4.6,161.6-29.4,326.6,57,421c109.2,119.3,340.2,65,400-46c24.2-44.9,30.1-117.2-5-152
	c-52.2-51.7-155.1,18.7-210.5-34.9C194.6,142.8,234.4,59.9,193,37C160.3,18.9,103.9,53.1,73,84z"/>
<ellipse transform="matrix(0.937 -0.3493 0.3493 0.937 -20.4057 129.3502)" class="st0" cx="348.4" cy="121.2" rx="102.5" ry="60.7"/>
<path class="st1" d="M91.9,397.3h28.7c-2.1-0.6-3.7-2.5-3.7-4.7V275.3c0-2.7,2.2-5,5-5h31.4l-2,8.1h-25.4V391h199.9V278.4h-25.1
	l-2.2-8.1h30.7c2.7,0,4.9,2.2,4.9,5v117.2c0,2.2-1.5,4.2-3.7,4.7h29.9c7.6,0,7.6,13.1,0,13.1H91.9C84.3,410.4,84.3,397.3,91.9,397.3
	z M217.6,234.3h19.6c1.5,0,2.6,1.1,2.6,2.6l0,0v6.5h30.8c0.5-1.5,1.4-2.9,2.5-4l0,0c4.1-4.1,10.9-4.1,15,0l0,0l0,0
	c4.1,4.1,4.1,10.9,0,15l0,0l0,0c-4.1,4.1-10.9,4.1-15,0l0,0l0,0c-1.1-1.1-2-2.6-2.5-4.1h-16c5.1,3,9.9,6.7,13.8,11.1
	c8,8.9,13.2,19.7,15.2,31.4h4.2c1.7,0,3.1,1.4,3.2,3c0,0,0,0,0,0.1v14.3c0,1.7-1.4,3.1-3.1,3.1l0,0h-14.3c-1.7,0-3.1-1.4-3.1-3.1
	v-14.3c0-1.7,1.4-3.1,3.1-3.1h3.2c-1.9-10.1-6.5-19.5-13.3-26.9c-6.4-7.1-14.7-12.2-23.9-14.7v5.6c0,1.5-1.1,2.6-2.6,2.6l0,0h-19.5
	c-1.4,0-2.6-1.1-2.6-2.6l0,0V251c-9.5,2.6-18,8-24.3,15.3c-6.6,7.5-11,16.6-12.8,26.3h3.2c1.7,0,3.1,1.4,3.1,3.1l0,0v14.3
	c0,1.7-1.4,3.1-3.1,3.1l0,0h-14.2c-1.7,0-3.1-1.4-3.2-3.1l0,0v-14.2c0-1.7,1.4-3.1,3.1-3.1l0,0h4.4c2-11.3,7-21.9,14.6-30.7
	c4.1-4.7,8.9-8.7,14.2-11.8h-18.5c-0.5,1.5-1.4,2.9-2.5,4l0,0c-2,2-4.6,3.1-7.5,3.1c-2.9,0-5.5-1.1-7.5-3.1l0,0
	c-4.1-4.1-4.1-10.9,0-15l0,0l0,0c4.1-4.1,10.9-4.1,15,0l0,0l0,0c1.1,1.1,2,2.6,2.5,4.2h33.3V237C215,235.4,216.1,234.3,217.6,234.3
	C217.5,234.3,217.6,234.3,217.6,234.3z M256.1,326.9L246,352.9l-37.3-0.5l-10.4-25.4c8.9-16,18-35.3,22.6-52.4l4.9,0.5l-0.1,45.8
	c-2.5,0.9-3.7,3.6-2.9,6.2c0.9,2.5,3.6,3.7,6.2,2.9c2.5-0.9,3.7-3.6,2.9-6.2c-0.5-1.5-1.7-2.6-3.2-3l0.1-45.3l5.6-0.4
	C238.4,292.2,247.4,311.6,256.1,326.9L256.1,326.9z M245.2,364h-36.3v-7.2h36.3V364z M218,399.4h16.2c3.6,0,3.6,7.1,0,7.1H218
	C214.2,406.5,214.2,399.4,218,399.4z"/>
</svg>
