<?xml version="1.0" encoding="utf-8"?>
<!-- Generator: Adobe Illustrator 25.2.1, SVG Export Plug-In . SVG Version: 6.00 Build 0)  -->
<svg version="1.1" id="Layer_1" xmlns="http://www.w3.org/2000/svg" xmlns:xlink="http://www.w3.org/1999/xlink" x="0px" y="0px"
	 viewBox="0 0 500 500" style="enable-background:new 0 0 500 500;" xml:space="preserve">
<style type="text/css">
	.st0{fill:#BDEFBF;}
	.st1{fill-rule:evenodd;clip-rule:evenodd;fill:#036B03;}
</style>
<path class="st0" d="M73,84C-4.6,161.6-29.4,326.6,57,421c109.2,119.3,340.2,65,400-46c24.2-44.9,30.1-117.2-5-152
	c-52.2-51.7-155.1,18.7-210.5-34.9C194.6,142.8,234.4,59.9,193,37C160.3,18.9,103.9,53.1,73,84z"/>
<ellipse transform="matrix(0.937 -0.3493 0.3493 0.937 -20.3974 129.3261)" class="st0" cx="348.4" cy="121.2" rx="102.5" ry="60.7"/>
<path class="st1" d="M213.6,231.6h89.1l20.4,36.1h41.7c2.3,0,4.1,1.8,4.1,4.1v141c0,2.3-1.8,4.1-4.1,4.1H122c-2.3,0-4.1-1.8-4.1-4.1
	v-141c0-2.3,1.8-4.1,4.1-4.1h18.8v-12.9H164v13h25.2l15.7-31.1C208.2,230.3,206.4,231.6,213.6,231.6z M254,296.2
	c22,0,39.9,17.8,39.9,39.9c0,10.6-4.2,20.8-11.7,28.3l-0.5,0.4c-15.8,15.3-41.1,14.9-56.4-0.9s-14.9-41.1,0.9-56.4
	C233.7,300.2,243.6,296.2,254,296.2z M271.9,318.2c-9.9-9.9-25.9-9.8-35.7,0.1c-9.9,9.9-9.8,25.9,0.1,35.7
	c9.7,9.7,25.4,9.8,35.3,0.3l0.3-0.4C281.8,344.1,281.8,328.1,271.9,318.2L271.9,318.2L271.9,318.2z M342.7,285.6c6.7,0,12,5.4,12,12
	c0,6.7-5.4,12-12,12c-6.7,0-12-5.4-12-12C330.6,291,336,285.6,342.7,285.6L342.7,285.6z M254,275.8c33.3,0,60.3,27,60.3,60.3
	s-27,60.3-60.3,60.3s-60.3-27-60.3-60.3S220.7,275.8,254,275.8L254,275.8z"/>
</svg>
