<?xml version="1.0" encoding="utf-8"?>
<!-- Generator: Adobe Illustrator 25.2.1, SVG Export Plug-In . SVG Version: 6.00 Build 0)  -->
<svg version="1.1" id="Layer_1" xmlns="http://www.w3.org/2000/svg" xmlns:xlink="http://www.w3.org/1999/xlink" x="0px" y="0px"
	 viewBox="0 0 500 500" style="enable-background:new 0 0 500 500;" xml:space="preserve">
<style type="text/css">
	.st0{fill:#F4DFBD;}
	.st1{fill-rule:evenodd;clip-rule:evenodd;fill:#513003;}
</style>
<path class="st0" d="M73,84C-4.6,161.6-29.4,326.6,57,421c109.2,119.3,340.2,65,400-46c24.2-44.9,30.1-117.2-5-152
	c-52.2-51.7-155.1,18.7-210.5-34.9C194.6,142.8,234.4,59.9,193,37C160.3,18.9,103.9,53.1,73,84z"/>
<ellipse transform="matrix(0.937 -0.3493 0.3493 0.937 -20.3974 129.3261)" class="st0" cx="348.4" cy="121.2" rx="102.5" ry="60.7"/>
<path class="st1" d="M114,237.6h222.9c3.5,0,6.4,2.9,6.4,6.4v147.7c0,3.5-2.9,6.4-6.4,6.4H114c-3.5,0-6.4-2.9-6.4-6.4c0,0,0,0,0,0
	V244C107.6,240.4,110.5,237.6,114,237.6z M133.5,360.2c-2.7,0.2-5.1-1.9-5.3-4.6c-0.2-2.7,1.9-5.1,4.6-5.3c0.2,0,0.4,0,0.6,0h75.7
	c2.7-0.2,5.1,1.9,5.3,4.6s-1.9,5.1-4.6,5.3c-0.2,0-0.4,0-0.6,0H133.5z M133.8,334.7c-2.7-0.2-4.8-2.5-4.6-5.3
	c0.2-2.5,2.1-4.5,4.6-4.6h55.2c2.7,0.2,4.8,2.5,4.6,5.3c-0.2,2.5-2.1,4.5-4.6,4.6L133.8,334.7z M133.5,309.3
	c-2.7,0.2-5.1-1.9-5.3-4.6c-0.2-2.7,1.9-5.1,4.6-5.3c0.2,0,0.4,0,0.6,0h39.1c2.7,0.2,4.8,2.5,4.6,5.3c-0.2,2.5-2.1,4.5-4.6,4.6
	H133.5z M133.5,283.9c-2.7,0.2-5.1-1.9-5.3-4.6c-0.2-2.7,1.9-5.1,4.6-5.3c0.2,0,0.4,0,0.6,0h22.7c2.7,0.2,4.8,2.5,4.6,5.3
	c-0.2,2.5-2.1,4.5-4.6,4.6H133.5z M319.5,334.1v12.4l-25.4,14.4v-14.4l16.3-6.2l-16.3-6.1v-14.4
	C294.2,319.7,319.5,334.1,319.5,334.1z M275.6,364.8h-10.7l13.4-52h10.8l-13.4,52H275.6z M257.5,334.1l-16.4,6.1l16.4,6.2v14.4
	l-25.2-14.4v-12.4l25.4-14.4v14.4H257.5z M268.4,259.9v7c0,1.9-1.6,3.5-3.5,3.5h-5.8c-0.7,2.4-1.8,4.6-3.1,6.7l3.8,3.8
	c1.4,1.4,1.4,3.6,0,4.9l-5.2,5.2c-1.4,1.4-3.6,1.4-4.9,0l-4.2-4.2c-2.2,1.2-4.5,2-6.9,2.6v5.4c0,1.9-1.6,3.5-3.5,3.5h-7.4
	c-1.9,0-3.5-1.6-3.5-3.5v-5.9c-2.4-0.7-4.6-1.7-6.7-3l-3.8,3.8c-1.4,1.4-3.6,1.4-4.9,0c0,0,0,0,0,0l-5.2-5.2c-1.3-1.4-1.3-3.5,0-4.9
	l4.2-4.2c-1.2-2.2-2-4.5-2.6-6.9h-5.4c-1.9,0-3.5-1.6-3.5-3.5c0,0,0,0,0,0V260h-82.6v113.5c0,3.2,2.6,5.8,5.8,5.8l0,0h212.4
	c3.2,0,5.8-2.6,5.8-5.8V259.9H268.4z M246.5,259.9h-28.4c-0.1,0.8-0.2,1.6-0.2,2.5c0.6,7.9,7.5,13.9,15.4,13.3
	c7.1-0.5,12.8-6.2,13.3-13.3C246.7,261.6,246.6,260.8,246.5,259.9z M326.7,247c2.1,0,3.8,1.7,3.8,3.8c0,2.1-1.7,3.8-3.8,3.8
	s-3.8-1.7-3.8-3.8C322.8,248.7,324.5,247,326.7,247z M300.9,247c2.1,0,3.8,1.7,3.8,3.8c0,2.1-1.7,3.8-3.8,3.8s-3.8-1.7-3.8-3.8
	C297,248.7,298.8,247,300.9,247z M313.8,247c2.1,0,3.8,1.7,3.8,3.8c0,2.1-1.7,3.8-3.8,3.8s-3.8-1.7-3.8-3.8
	C309.9,248.7,311.6,247,313.8,247z M196.4,406.9h58.1c0.2,10.1,4.3,19.1,15.5,26.1h-89.2C189.9,426.5,196.4,418.6,196.4,406.9z"/>
</svg>
