<?xml version="1.0" encoding="utf-8"?>
<!-- Generator: Adobe Illustrator 25.2.1, SVG Export Plug-In . SVG Version: 6.00 Build 0)  -->
<svg version="1.1" id="Layer_1" xmlns="http://www.w3.org/2000/svg" xmlns:xlink="http://www.w3.org/1999/xlink" x="0px" y="0px"
	 viewBox="0 0 500 500" style="enable-background:new 0 0 500 500;" xml:space="preserve">
<style type="text/css">
	.st0{fill:#F4F2BD;}
	.st1{fill-rule:evenodd;clip-rule:evenodd;fill:#7F7604;}
</style>
<path class="st0" d="M73,84C-4.6,161.6-29.4,326.6,57,421c109.2,119.3,340.2,65,400-46c24.2-44.9,30.1-117.2-5-152
	c-52.2-51.7-155.1,18.7-210.5-34.9C194.6,142.8,234.4,59.9,193,37C160.3,18.9,103.9,53.1,73,84z"/>
<ellipse transform="matrix(0.937 -0.3493 0.3493 0.937 -20.3885 129.3275)" class="st0" cx="348.4" cy="121.2" rx="102.5" ry="60.7"/>
<path class="st1" d="M106.6,232.9h233.8c3.7,0,6.7,3,6.7,6.7v155c0,3.7-3,6.7-6.7,6.7H106.6c-3.7,0-6.7-3-6.7-6.8l0,0v-155
	C99.9,235.9,102.9,233,106.6,232.9z M199.2,358.7h0.2l6.4-3.7c0,0,0.1-0.1,0.1-0.2v-0.1l-7-12.1l0,0c-0.1-0.1-0.1-0.2-0.1-0.3
	c-0.1-0.6,0.2-1.2,0.8-1.3l0,0l10.3-2.1l0,0c0.8-0.1,1.5-0.4,2.1-0.9c0.2-0.1,0.4-0.3,0.5-0.6c0.1-0.1,0.1-0.3,0-0.4
	c-0.2-0.4-0.5-0.7-0.9-0.9l-34.8-24l3.2,42.1c0,0.4,0.1,0.8,0.3,1.2c0.1,0.1,0.2,0.2,0.3,0.3c0.2,0,0.5,0,0.7-0.1
	c0.7-0.3,1.3-0.8,1.8-1.4l7-7.8l0,0c0.1-0.1,0.2-0.2,0.3-0.2c0.5-0.3,1.2-0.1,1.5,0.4l7,12.1h0.1H199.2z M137.3,280.2
	c-1.4,0-2.6,1.1-2.6,2.6c0,0.1,0,0.2,0,0.3v5.4c0,1.4,1.2,2.6,2.6,2.6c0.7,0,1.4-0.3,1.8-0.8c0.5-0.5,0.8-1.2,0.8-1.9v-3.2h2.6
	c1.4,0,2.6-1.2,2.6-2.6s-1.2-2.6-2.6-2.6l0,0L137.3,280.2z M139.9,298.9c0-1.4-1.2-2.6-2.6-2.6c-0.7,0-1.4,0.3-1.8,0.8
	c-0.5,0.5-0.8,1.2-0.8,1.9v5.2c0,1.4,1.2,2.6,2.6,2.6c0.7,0,1.4-0.3,1.8-0.8c0.5-0.5,0.8-1.2,0.8-1.9V298.9L139.9,298.9z
	 M139.9,314.5c0-1.4-1.2-2.6-2.6-2.6c-0.7,0-1.3,0.3-1.8,0.7c-0.5,0.5-0.8,1.2-0.8,1.9v5.2c0,1.4,1.2,2.6,2.6,2.6
	c0.7,0,1.3-0.3,1.8-0.7c0.5-0.5,0.8-1.2,0.8-1.9V314.5L139.9,314.5z M139.9,330.1c0-1.4-1.2-2.6-2.7-2.6c-0.7,0-1.3,0.3-1.8,0.7
	c-0.5,0.5-0.8,1.2-0.8,1.9v5.2c-0.1,1.4,0.9,2.7,2.4,2.8c1.4,0.1,2.7-0.9,2.8-2.4c0-0.2,0-0.3,0-0.5v-5.1H139.9z M139.9,345.7
	c0-1.4-1.2-2.6-2.6-2.6c-0.7,0-1.4,0.3-1.8,0.8c-0.5,0.5-0.8,1.2-0.8,1.9v4.7c-0.1,1.4,1.1,2.7,2.5,2.7h0.1h0.3
	c1.4,0,2.6-1.2,2.6-2.6c0-0.5-0.1-0.9-0.4-1.3L139.9,345.7L139.9,345.7L139.9,345.7z M148,348c-1.4,0-2.6,1.2-2.6,2.6
	c0,0.7,0.3,1.4,0.8,1.8c0.5,0.5,1.2,0.8,1.9,0.8h5.2c1.4,0,2.6-1.2,2.6-2.7c0-0.7-0.3-1.3-0.7-1.8c-0.5-0.5-1.2-0.8-1.9-0.8H148V348
	z M163.6,348c-1.4,0-2.6,1.2-2.6,2.6c0,0.7,0.3,1.3,0.7,1.8c0.5,0.5,1.2,0.8,1.9,0.8h5.2c0.2,0,0.4,0,0.7,0l-0.4-5.1L163.6,348
	L163.6,348z M202.5,313.9c0,1.4,1.2,2.6,2.7,2.6c0.7,0,1.3-0.3,1.8-0.7c0.5-0.5,0.8-1.2,0.8-1.9v-5.2c0-1.4-1.2-2.6-2.6-2.6
	c-0.7,0-1.4,0.3-1.8,0.8c-0.5,0.5-0.8,1.2-0.8,1.9L202.5,313.9L202.5,313.9z M202.5,298.2c-0.1,1.4,0.9,2.7,2.4,2.8
	c1.4,0.1,2.7-0.9,2.8-2.4c0-0.2,0-0.3,0-0.5V293c0-1.4-1.2-2.6-2.7-2.6c-0.7,0-1.3,0.3-1.8,0.7c-0.5,0.5-0.8,1.2-0.8,1.9
	C202.5,293,202.5,298.2,202.5,298.2z M205,285.3c1.4,0,2.6-1.2,2.6-2.6c0-0.7-0.3-1.3-0.7-1.8c-0.5-0.5-1.2-0.8-1.9-0.8h-5.2
	c-1.4,0-2.6,1.2-2.6,2.6c0,0.7,0.3,1.3,0.7,1.8c0.5,0.5,1.2,0.8,1.9,0.8H205z M189.4,285.3c1.4,0,2.6-1.2,2.6-2.6s-1.2-2.6-2.6-2.6
	l0,0h-5.2c-1.4,0-2.6,1.2-2.6,2.6s1.2,2.6,2.6,2.6l0,0H189.4z M173.8,285.3c1.4,0,2.6-1.2,2.6-2.6s-1.2-2.6-2.6-2.6h-5.2
	c-1.4,0-2.6,1.2-2.6,2.6s1.2,2.6,2.6,2.6l0,0H173.8z M158.1,285.3c1.4,0,2.6-1.2,2.6-2.6c0-0.7-0.3-1.3-0.7-1.8
	c-0.5-0.5-1.2-0.8-1.9-0.8h-5.2c-1.4,0-2.6,1.2-2.6,2.6c0,0.7,0.3,1.3,0.7,1.8c0.5,0.5,1.2,0.8,1.9,0.8H158.1z M266.9,381.4
	c-0.2-39.3-2.9-86.9,0-125.1H108.7v119.1c0,3.3,2.7,6,6,6H266.9z M283.6,276.5c-1.7,0.2-3.2-1-3.4-2.7c-0.2-1.7,1-3.2,2.7-3.4
	c0.2,0,0.5,0,0.7,0h41c1.7-0.2,3.2,1,3.4,2.7s-1,3.2-2.7,3.4c-0.2,0-0.5,0-0.7,0H283.6z M287.5,353.4h33.1c4.6,0,8.3,3.7,8.3,8.3
	l0,0l0,0c0,4.6-3.7,8.3-8.3,8.3h-33.1c-4.6,0-8.3-3.7-8.3-8.3l0,0C279.2,357.2,282.9,353.5,287.5,353.4L287.5,353.4z M283.5,339.5
	c-1.7-0.2-2.9-1.7-2.7-3.4c0.2-1.4,1.3-2.5,2.7-2.7h41.2c1.7,0.2,2.9,1.7,2.7,3.4c-0.2,1.4-1.3,2.5-2.7,2.7H283.5z M284.2,318.5
	c-1.7,0.2-3.2-1-3.4-2.7c-0.2-1.7,1-3.2,2.7-3.4c0.2,0,0.5,0,0.7,0h39.7c1.7,0.2,2.9,1.7,2.7,3.4c-0.2,1.4-1.3,2.5-2.7,2.7H284.2z
	 M283.4,297.5c-1.7,0.2-3.2-1-3.4-2.7c-0.2-1.7,1-3.2,2.7-3.4c0.2,0,0.5,0,0.7,0h41.3c1.7,0.2,2.9,1.7,2.7,3.4
	c-0.2,1.4-1.3,2.5-2.7,2.7H283.4z M336,380.3V257.8h-63.8v123.6h60.4C333.8,381.4,335,381,336,380.3L336,380.3z M193.1,410.5h61
	c0.2,10.5,4.5,20,16.3,27.4h-93.6C186.3,431,193.1,422.7,193.1,410.5L193.1,410.5z M328.9,242.8c2.2,0,4,1.8,4,4s-1.8,4-4,4
	s-4-1.8-4-4S326.7,242.8,328.9,242.8z M301.9,242.8c2.2,0,4,1.8,4,4s-1.8,4-4,4s-4-1.8-4-4S299.7,242.8,301.9,242.8z M315.4,242.8
	c2.2,0,4,1.8,4,4s-1.8,4-4,4s-4-1.8-4-4S313.2,242.8,315.4,242.8z"/>
</svg>
